<svg width="1681" height="282" viewBox="0 0 1681 282" fill="none" xmlns="http://www.w3.org/2000/svg">
<path d="M737.768 193.344H738.556L800.772 0H887.797V120.653H853V116.153H829.911V81.9053H829.124L760.213 281.156H712.566L643.655 83.874H642.868V281.156H584.983V0H672.008L737.768 193.344Z" fill="white"/>
<g clip-path="url(#clip0_562_7708)">
<path d="M-4.33125 0.0158239H57.4875V116.566L167.344 0.0158239H244.519L134.662 111.053L255.15 281.153H177.581L92.925 154.76L57.4875 190.591V281.153H-4.33125V0.0158239Z" fill="white"/>
</g>
<g clip-path="url(#clip1_562_7708)">
<path d="M361.761 0.280473C368.193 -0.234076 376.555 -0.105623 386.846 0.666215C408.972 3.75357 427.238 12.7588 441.646 27.6809C444.626 30.6613 447.371 33.8193 449.884 37.1535H409.424C409.231 36.9533 409.039 36.7528 408.843 36.5568C400.61 28.0667 390.705 22.6643 379.127 20.3488C372.695 19.3197 366.135 19.0618 359.445 19.5764C342.722 21.6346 327.415 28.0667 313.522 38.8723C293.197 54.3089 277.631 75.7918 266.825 103.321C258.85 123.131 253.189 145.386 249.845 170.084C248.816 180.118 248.687 190.924 249.459 202.501C249.716 203.53 249.845 204.302 249.845 204.817C253.704 229.258 264.51 245.981 282.262 254.986C299.499 263.733 319.31 262.704 341.693 251.899C361.032 242.402 377.415 227.284 390.844 206.547V214.154H428.197C415.309 230.159 400.368 243.513 383.372 254.214C369.479 263.219 355.715 269.779 342.079 273.896C306.318 284.959 275.059 282.257 248.302 265.791C242.899 262.447 237.882 258.588 233.251 254.214C217.814 239.035 208.166 219.095 204.307 194.397C203.278 186.164 203.149 175.744 203.921 163.138C204.178 162.109 204.307 161.208 204.307 160.436C208.938 125.189 223.86 92.7716 249.073 63.1848C256.277 54.952 263.996 47.2342 272.229 40.0305C300.786 16.3609 330.63 3.11054 361.761 0.280473Z" fill="white"/>
</g>
<path d="M430.441 185.752C430.441 194.761 432.068 202.394 435.321 208.65C438.574 214.906 442.828 220.036 448.084 224.04C453.589 227.794 459.971 230.672 467.228 232.674C474.485 234.426 481.993 235.301 489.75 235.301C495.006 235.301 500.636 234.926 506.642 234.175C512.648 233.174 518.279 231.423 523.534 228.92C528.789 226.418 533.169 223.039 536.672 218.785C540.176 214.28 541.927 208.65 541.927 201.893C541.927 194.636 539.55 188.755 534.795 184.25C530.291 179.746 524.285 175.992 516.777 172.989C509.27 169.986 500.761 167.359 491.252 165.106C481.742 162.854 472.108 160.352 462.348 157.599C452.338 155.096 442.578 152.093 433.069 148.59C423.559 144.836 415.051 140.081 407.543 134.326C400.036 128.57 393.905 121.438 389.15 112.929C384.645 104.17 382.393 93.6599 382.393 81.3977C382.393 67.6339 385.271 55.7471 391.027 45.7371C397.033 35.4768 404.79 26.9683 414.3 20.2116C423.809 13.4548 434.57 8.4498 446.582 5.19655C458.594 1.94331 470.606 0.316693 482.618 0.316693C496.632 0.316693 510.021 1.94331 522.783 5.19655C535.796 8.19956 547.308 13.2046 557.318 20.2116C567.328 27.2186 575.211 36.2276 580.966 47.2386C586.972 57.9993 589.975 71.1374 589.975 86.6529H532.918C532.418 78.6449 530.666 72.0133 527.663 66.7581C524.91 61.5028 521.157 57.3737 516.402 54.3707C511.647 51.3677 506.142 49.2406 499.885 47.9893C493.879 46.7381 487.248 46.1124 479.991 46.1124C475.236 46.1124 470.481 46.6129 465.726 47.6139C460.972 48.6149 456.592 50.3667 452.588 52.8692C448.834 55.3717 445.706 58.4998 443.204 62.2536C440.701 66.0073 439.45 70.7621 439.45 76.5178C439.45 81.7731 440.451 86.0273 442.453 89.2806C444.455 92.5338 448.334 95.5368 454.09 98.2896C460.096 101.042 468.229 103.795 478.489 106.548C489 109.301 502.638 112.804 519.405 117.058C524.41 118.059 531.292 119.936 540.051 122.689C549.06 125.191 557.943 129.321 566.702 135.076C575.461 140.832 582.968 148.59 589.225 158.35C595.731 167.859 598.984 180.121 598.984 195.136C598.984 207.399 596.607 218.785 591.852 229.295C587.098 239.806 579.965 248.94 570.456 256.698C561.197 264.205 549.56 270.086 535.546 274.34C521.782 278.595 505.766 280.722 487.498 280.722C472.733 280.722 458.344 278.845 444.33 275.091C430.566 271.588 418.304 265.957 407.543 258.199C397.033 250.442 388.649 240.557 382.393 228.545C376.137 216.533 373.134 202.268 373.384 185.752H430.441Z" fill="white"/>
<g clip-path="url(#clip2_562_7708)">
<path fill-rule="evenodd" clip-rule="evenodd" d="M839.25 35.5908H862.875V23.7783H874.688V11.9658H921.938V0.15332H957.375V11.9658H992.812V23.7783H1016.44V35.5908H1028.25V47.4033H1040.06V59.2158H1051.88V71.0283H1063.69V94.6533H1072.88V200.966H1063.69V224.591H1051.88V236.403H1040.06V248.216H1028.25V260.028H1016.44V271.841H992.812V281.028H886.5V271.841H862.875V260.028H851.062V248.216H839.25V236.403H827.438V224.591H815.625V200.966H803.812V165.528H792V130.091H803.812V82.8408H815.625V71.0283H827.438V47.4033H839.25V35.5908ZM862.875 118.278V82.8408H898.312V71.0283H933.75V35.5908H981V47.4033H1004.62V59.2158H1016.44V71.0283H1028.25V82.8408H1040.06V95.3096H1016.44V82.8408H992.812V71.0283H957.375V82.8408H945.562V106.466H957.375V118.278H969.188V130.091H992.812V141.903H1004.62V189.153H1016.44V236.403H1004.62V248.216H981V260.028H898.312V248.216H874.688V236.403H862.875V224.591H851.062V212.778H839.25V189.153H827.438V118.278H839.25V153.716H862.875V165.528H874.688V224.591H886.5V236.403H898.312V224.591H910.125V200.966H933.75V189.153H945.562V177.341H957.375V153.716H945.562V141.903H921.938V130.091H910.125V118.278H862.875Z" fill="white"/>
</g>
<g clip-path="url(#clip3_562_7708)">
<path d="M1027.3 -0.0025447H1089.12V229.175H1226.15V281.153H1027.3V-0.0025447Z" fill="white"/>
</g>
<g clip-path="url(#clip4_562_7708)">
<path d="M1384.29 0.748056L1393.35 0.354311H1393.74C1400.83 0.354311 1404.64 1.14181 1405.16 2.7168C1405.42 3.76681 1408.97 46.2918 1415.79 130.292C1422.36 214.817 1425.9 257.342 1426.42 257.867C1426.69 258.129 1427.61 258.523 1429.18 259.048C1432.33 259.836 1439.94 260.229 1452.02 260.229H1459.89L1461.47 261.411C1462.26 262.723 1462.65 263.642 1462.65 264.167L1459.11 279.917C1458.32 281.492 1455.43 282.148 1450.44 281.886C1449.39 281.886 1447.42 281.886 1444.54 281.886C1406.47 280.836 1375.37 280.967 1351.22 282.279H1346.49L1345.31 281.098C1344.26 280.048 1343.74 278.998 1343.74 277.948C1343.74 273.748 1345.05 268.629 1347.67 262.592C1348.2 261.017 1352.01 260.229 1359.09 260.229C1365.39 259.704 1369.59 259.442 1371.69 259.442C1377.73 258.392 1381.01 257.342 1381.54 256.292C1381.8 256.029 1381.27 247.367 1379.96 230.304C1378.65 215.079 1377.99 206.417 1377.99 204.317C1377.99 203.792 1363.03 203.529 1333.11 203.529H1287.82L1276.01 224.398C1267.61 238.573 1263.28 246.317 1263.02 247.629C1261.97 250.254 1262.36 252.486 1264.2 254.323C1266.82 257.473 1272.47 259.442 1281.13 260.229C1284.81 260.229 1287.17 261.148 1288.22 262.986L1288.61 264.167L1286.64 272.042C1285.59 277.029 1284.54 280.048 1283.49 281.098L1282.31 282.279H1277.59C1255.8 281.229 1235.19 280.967 1215.77 281.492C1202.38 282.017 1195.56 282.279 1195.29 282.279H1192.54L1191.36 281.098C1190.31 280.048 1189.78 279.129 1189.78 278.342L1193.33 262.592C1194.37 261.017 1197.39 260.229 1202.38 260.229C1220.76 259.442 1233.49 254.192 1240.57 244.479L1311.84 122.417C1357.52 43.4043 1380.88 3.37306 1381.93 2.32306C1382.19 2.06056 1382.98 1.53556 1384.29 0.748056ZM1371.69 124.779C1368.81 87.2418 1367.36 68.2106 1367.36 67.6856C1367.36 66.6356 1361.59 76.2168 1350.04 96.4293L1316.96 153.523L1300.82 181.086L1338.22 181.479H1376.02C1376.02 181.742 1374.58 162.842 1371.69 124.779Z" fill="white"/>
</g>
<path d="M1506.49 113.81H1569.09C1580.12 113.81 1589.17 111.185 1596.26 105.935C1603.35 100.685 1606.89 92.1533 1606.89 80.3408C1606.89 73.7783 1605.71 68.3971 1603.35 64.1971C1600.99 59.9971 1597.84 56.7158 1593.9 54.3533C1589.96 51.9908 1585.37 50.4158 1580.12 49.6283C1575.13 48.5783 1569.88 48.0533 1564.37 48.0533H1506.49V113.81ZM1444.67 0.0158239H1576.97C1590.36 0.0158239 1602.56 1.19707 1613.59 3.55957C1624.61 5.92208 1634.06 9.85958 1641.94 15.3721C1649.81 20.6221 1655.85 27.7096 1660.05 36.6346C1664.51 45.5596 1666.74 56.5846 1666.74 69.7096C1666.74 83.8846 1663.46 95.6971 1656.9 105.147C1650.6 114.597 1641.15 122.341 1628.55 128.378C1645.87 133.366 1658.74 142.16 1667.14 154.76C1675.8 167.097 1680.13 182.06 1680.13 199.647C1680.13 213.822 1677.37 226.16 1671.86 236.66C1666.35 246.897 1658.87 255.297 1649.42 261.86C1640.23 268.422 1629.6 273.278 1617.52 276.428C1605.71 279.578 1593.51 281.153 1580.91 281.153H1444.67V0.0158239ZM1506.49 233.116H1572.64C1578.67 233.116 1584.45 232.591 1589.96 231.541C1595.47 230.228 1600.33 228.26 1604.53 225.635C1608.73 222.747 1612.01 218.941 1614.37 214.216C1617 209.491 1618.31 203.453 1618.31 196.103C1618.31 181.666 1614.24 171.428 1606.11 165.391C1597.97 159.091 1587.21 155.941 1573.82 155.941H1506.49V233.116Z" fill="white"/>
<defs>
<clipPath id="clip0_562_7708">
<rect width="255.938" height="280.875" fill="white" transform="translate(0 0.15332)"/>
</clipPath>
<clipPath id="clip1_562_7708">
<rect width="263.812" height="280.875" fill="white" transform="translate(204 0.15332)"/>
</clipPath>
<clipPath id="clip2_562_7708">
<rect width="263.812" height="280.875" fill="white" transform="translate(792 0.15332)"/>
</clipPath>
<clipPath id="clip3_562_7708">
<rect width="194.25" height="280.875" fill="white" transform="translate(1031.62 0.15332)"/>
</clipPath>
<clipPath id="clip4_562_7708">
<rect width="270.375" height="280.875" fill="white" transform="translate(1194.38 0.15332)"/>
</clipPath>
</defs>
</svg>
