<svg width="1689" height="297" viewBox="0 0 1689 297" fill="none" xmlns="http://www.w3.org/2000/svg">
<path d="M680.595 29.4326H694.626V57.4961H708.657V85.5596H722.689V127.654H736.721V155.718H750.753V169.749H764.784V141.686H778.816V99.5908H792.848V71.5273H806.879V29.4326H820.911V1.36914H933.164V15.4004H905.102V121H875V244H905.102V267.971H933.164V282.003H792.848V267.971H834.942V57.4961H848.975V43.4639H834.942V57.4961H820.911V99.5908H806.879V127.654H792.848V155.718H778.816V197.812H764.784V225.876H750.753V267.971H736.721V296.034H722.689V253.939H708.657V225.876H694.626V183.781H680.595V155.718H666.562V127.654H652.531V85.5596H638.499V57.4961H624.468V253.939H638.499V267.971H666.562V282.003H568.341V267.971H582.372V253.939H596.404V15.4004H568.341V1.36914H680.595V29.4326ZM736.721 197.812H750.753V183.781H736.721V197.812Z" fill="white"/>
<g clip-path="url(#clip0_562_7775)">
<path d="M-4.33125 0.862504H57.4875V117.413L167.344 0.862504H244.519L134.662 111.9L255.15 282H177.581L92.925 155.606L57.4875 191.438V282H-4.33125V0.862504Z" fill="white"/>
</g>
<g clip-path="url(#clip1_562_7775)">
<path fill-rule="evenodd" clip-rule="evenodd" d="M219.812 36.4375H243.438V24.625H255.25V12.8125H302.5V1H337.938V12.8125H373.375V24.625H397V36.4375H408.812V48.25H420.625V60.0625H432.438V71.875H444.25V95.5H453.438V201.812H444.25V225.438H432.438V237.25H420.625V249.062H408.812V260.875H397V272.688H373.375V281.875H267.062V272.688H243.438V260.875H231.625V249.062H219.812V237.25H208V225.438H196.188V201.812H184.375V166.375H172.562V130.938H184.375V83.6875H196.188V71.875H208V48.25H219.812V36.4375ZM243.438 119.125V83.6875H278.875V71.875H314.312V36.4375H361.562V48.25H385.188V60.0625H397V71.875H408.812V83.6875H420.625V96.1562H397V83.6875H373.375V71.875H337.938V83.6875H326.125V107.312H337.938V119.125H349.75V130.938H373.375V142.75H385.188V190H397V237.25H385.188V249.062H361.562V260.875H278.875V249.062H255.25V237.25H243.438V225.438H231.625V213.625H219.812V190H208V119.125H219.812V154.562H243.438V166.375H255.25V225.438H267.062V237.25H278.875V225.438H290.688V201.812H314.312V190H326.125V178.188H337.938V154.562H326.125V142.75H302.5V130.938H290.688V119.125H243.438Z" fill="white"/>
<rect x="228" y="255" width="45" height="27" fill="white"/>
</g>
<g clip-path="url(#clip2_562_7775)">
<path d="M553.947 0.47775L574.077 0.864873C581.303 2.15522 588.141 4.34882 594.593 7.44565C601.303 10.5425 607.11 15.1878 612.013 21.3815C613.045 22.4137 613.69 23.0589 613.949 23.317L625.175 12.0909C632.659 4.60689 636.53 0.735832 636.788 0.47775C638.078 -0.554518 640.659 -0.554518 644.53 0.47775C645.304 1.25197 645.82 1.89714 646.078 2.41328C646.336 3.44556 642.723 18.9298 635.239 48.8659C627.497 79.3182 623.368 94.8025 622.852 95.3186L621.691 96.4799H614.723C608.787 96.4799 605.561 95.7057 605.045 94.1573C604.787 93.3831 604.916 91.7056 605.432 89.1249C607.755 71.06 606.335 56.2209 601.174 44.6078C594.98 31.7043 584.141 23.9622 568.657 21.3815C562.464 20.3492 555.625 20.3492 548.141 21.3815C538.334 23.446 529.172 28.6074 520.656 36.8657C505.946 51.3176 500.01 66.6728 502.849 82.9312C504.398 94.0282 510.333 101.641 520.656 105.77L547.366 113.125C557.431 115.706 566.98 118.287 576.012 120.868C582.722 123.706 588.916 127.964 594.593 133.642C598.722 137.771 602.077 142.545 604.658 147.965C611.884 163.191 613.174 180.095 608.529 198.676C602.593 223.967 588.658 245.128 566.722 262.161C564.915 263.451 563.109 264.742 561.302 266.032C552.27 271.452 544.657 275.194 538.463 277.258C528.914 280.355 519.108 281.774 509.043 281.516C493.043 280.742 479.623 277.645 468.784 272.226C463.623 269.903 458.332 266.161 452.913 261L449.429 257.516C449.171 257.516 445.429 261.387 438.203 269.129L426.202 281.129L422.331 281.516H421.944C419.88 281.516 418.46 281.129 417.686 280.355C416.912 279.581 416.525 278.936 416.525 278.419C416.525 277.645 424.009 247.322 438.977 187.45C439.493 185.901 442.719 185.127 448.654 185.127H455.622L456.784 186.288C457.816 187.321 457.945 190.03 457.171 194.418C457.171 194.934 457.042 195.579 456.784 196.353C454.977 205.902 454.719 213.902 456.01 220.354C461.171 245.386 480.139 258.548 512.914 259.838C519.624 259.838 525.301 259.064 529.947 257.516C544.399 252.871 556.012 242.806 564.786 227.322C568.399 221.386 570.851 215.192 572.141 208.74C575.238 193.256 572.786 180.869 564.786 171.578C562.205 168.998 558.851 166.804 554.721 164.998L528.011 157.643C508.398 152.481 496.398 148.739 492.01 146.417C474.462 136.352 465.3 120.351 464.526 98.4154C464.01 89.1249 465.429 79.5763 468.784 69.7696C476.784 45.511 492.397 26.6719 515.624 13.2522C518.721 11.4457 521.946 9.76829 525.301 8.21987C534.076 4.09074 542.205 1.63907 549.689 0.864873C550.721 0.606791 552.141 0.47775 553.947 0.47775Z" fill="white"/>
</g>
<g clip-path="url(#clip3_562_7775)">
<path d="M1010.48 1.24921C1016.91 0.734683 1025.27 0.86313 1035.56 1.63495C1057.69 4.72221 1075.95 13.7269 1090.36 28.6486C1104.51 42.7986 1113.39 60.9363 1116.99 83.0617C1122.65 116.507 1116.09 150.468 1097.31 184.943C1093.7 191.374 1089.72 197.677 1085.34 203.852C1070.68 224.948 1052.93 242.057 1032.09 255.178C1018.19 264.182 1004.43 270.743 990.795 274.86C955.034 285.922 923.775 283.221 897.018 266.755C891.616 263.411 886.598 259.552 881.967 255.178C866.531 239.999 856.883 220.06 853.024 195.362C851.995 187.13 851.867 176.71 852.638 164.104C852.896 163.075 853.024 162.173 853.024 161.402C857.655 126.155 872.577 93.7388 897.79 64.1525C904.993 55.9198 912.712 48.2019 920.945 40.9982C949.502 17.329 979.346 4.07923 1010.48 1.24921ZM1027.84 21.3166C1021.41 20.2875 1014.85 20.0296 1008.16 20.5441C991.438 22.6023 976.13 29.0345 962.237 39.84C941.912 55.2764 926.347 76.7591 915.542 104.287C907.566 124.097 901.907 146.352 898.562 171.05C897.533 181.084 897.405 191.889 898.176 203.466C898.434 204.495 898.562 205.267 898.562 205.781C902.421 230.222 913.226 246.946 930.978 255.95C948.215 264.698 968.026 263.668 990.409 252.862C1019.22 238.712 1041.48 212.085 1057.17 172.98C1066.18 149.825 1071.96 126.669 1074.54 103.515C1075.57 95.0249 1075.57 86.0201 1074.54 76.5012V74.9582C1071.71 58.4927 1066.05 46.0146 1057.56 37.5246C1049.32 29.0347 1039.42 23.6321 1027.84 21.3166Z" fill="white"/>
</g>
<g clip-path="url(#clip4_562_7775)">
<path d="M1186.35 15.3955H1158.29V29.4268H1144.25V253.937H1130.22V267.968H1228.45V263H1239V253.937H1256.51V239.904H1270.54V211.841H1284.57V183.777H1298.6V253.937H1284.57V282H1046.03V267.968H1074.1V15.3955H1046.03V1.36328H1186.35V15.3955Z" fill="white"/>
<rect x="1071" y="13" width="12" height="6" fill="white"/>
</g>
<g clip-path="url(#clip5_562_7775)">
<path d="M1384.3 1.59474L1393.35 1.20099H1393.75C1400.84 1.20099 1404.64 1.98849 1405.17 3.56348C1405.43 4.61349 1408.97 47.1385 1415.8 131.138C1422.36 215.663 1425.9 258.188 1426.43 258.713C1426.69 258.976 1427.61 259.37 1429.19 259.895C1432.34 260.682 1439.95 261.076 1452.02 261.076H1459.9L1461.47 262.257C1462.26 263.57 1462.65 264.488 1462.65 265.013L1459.11 280.763C1458.32 282.338 1455.44 282.995 1450.45 282.732C1449.4 282.732 1447.43 282.732 1444.54 282.732C1406.48 281.682 1375.37 281.813 1351.22 283.126H1346.5L1345.32 281.945C1344.27 280.895 1343.74 279.845 1343.74 278.795C1343.74 274.595 1345.05 269.476 1347.68 263.438C1348.2 261.863 1352.01 261.076 1359.1 261.076C1365.4 260.551 1369.6 260.288 1371.7 260.288C1377.74 259.238 1381.02 258.188 1381.54 257.138C1381.8 256.876 1381.28 248.213 1379.97 231.151C1378.65 215.926 1378 207.263 1378 205.163C1378 204.638 1363.04 204.376 1333.11 204.376H1287.83L1276.02 225.245C1267.62 239.42 1263.29 247.163 1263.02 248.476C1261.97 251.101 1262.37 253.332 1264.2 255.17C1266.83 258.32 1272.47 260.288 1281.14 261.076C1284.81 261.076 1287.17 261.995 1288.22 263.832L1288.62 265.013L1286.65 272.888C1285.6 277.876 1284.55 280.895 1283.5 281.945L1282.32 283.126H1277.59C1255.8 282.076 1235.2 281.813 1215.77 282.338C1202.39 282.863 1195.56 283.126 1195.3 283.126H1192.54L1191.36 281.945C1190.31 280.895 1189.79 279.976 1189.79 279.188L1193.33 263.438C1194.38 261.863 1197.4 261.076 1202.39 261.076C1220.76 260.288 1233.49 255.038 1240.58 245.326L1311.85 123.263C1357.52 44.251 1380.89 4.21974 1381.94 3.16974C1382.2 2.90724 1382.99 2.38224 1384.3 1.59474ZM1371.7 125.626C1368.81 88.0885 1367.37 69.0572 1367.37 68.5322C1367.37 67.4822 1361.59 77.0635 1350.04 97.276L1316.97 154.37L1300.82 181.932L1338.23 182.326H1376.03C1376.03 182.588 1374.59 163.688 1371.7 125.626Z" fill="white"/>
</g>
<path d="M1451.39 1.03353C1451.94 0.758882 1479.55 0.621559 1534.2 0.621559C1588.86 0.896205 1617.97 1.30818 1621.54 1.85749C1630.6 3.23074 1639.39 5.97723 1647.91 10.097C1658.07 15.3153 1665.9 22.0442 1671.39 30.2837C1682.65 46.7627 1683.61 64.4776 1674.27 83.4284C1672.63 86.7242 1670.7 89.8827 1668.51 92.9038C1664.39 99.2207 1658.07 105.675 1649.55 112.267C1636.1 122.154 1620.17 129.432 1601.77 134.101C1600.94 134.376 1600.53 134.651 1600.53 134.925C1602.45 134.925 1607.4 136.161 1615.36 138.633C1633.76 144.401 1646.4 154.425 1653.26 168.707C1660.95 184.362 1660.27 201.528 1651.2 220.204C1640.22 242.45 1621.54 259.479 1595.17 271.289C1593.53 272.113 1592.02 272.799 1590.64 273.349C1581.58 276.919 1572.24 279.391 1562.63 280.764C1559.06 281.313 1528.43 281.725 1470.76 282C1412.81 282 1383.28 281.588 1382.18 280.764L1381.36 279.116C1381.08 278.292 1381.5 275.134 1382.6 269.641C1384.24 264.148 1385.34 260.989 1385.89 260.165L1387.54 258.929H1401.55C1416.93 258.655 1425.58 257.556 1427.5 255.634C1428.32 255.084 1438.21 216.908 1457.16 141.105C1476.11 65.3015 1485.59 27.1252 1485.59 26.5759C1485.59 26.3013 1485.31 25.8893 1484.76 25.34C1483.67 24.7907 1476.25 24.2414 1462.52 23.6921H1448.51L1447.28 22.4562C1445.63 21.3576 1445.63 17.5125 1447.28 10.9209C1448.65 5.15328 1450.02 1.85748 1451.39 1.03353ZM1605.47 24.1041C1603.83 23.8294 1591.88 23.6921 1569.63 23.6921L1533.79 24.1041C1531.04 24.3787 1529.26 25.2027 1528.43 26.5759C1528.43 27.1252 1524.18 43.7415 1515.66 76.4248L1503.3 125.862H1537.09L1571.28 125.45L1575.4 124.626C1592.15 120.506 1605.75 111.992 1616.18 99.0834C1621.68 93.0411 1626.07 85.6256 1629.37 76.8368C1631.02 70.7945 1631.84 64.7522 1631.84 58.7099C1631.84 54.0409 1631.56 50.6078 1631.02 48.4106C1629.37 42.3683 1626.48 37.2873 1622.36 33.1675C1617.97 28.7731 1612.34 25.752 1605.47 24.1041ZM1583.23 146.46L1579.93 145.637L1539.15 145.225H1498.77L1484.76 200.841C1475.43 237.644 1470.76 256.458 1470.76 257.282C1470.76 257.831 1471.31 258.243 1472.41 258.517H1510.72C1535.44 258.517 1549.17 258.243 1551.92 257.694C1571.42 253.299 1586.8 242.725 1598.06 225.971C1605.2 215.26 1609.18 203.313 1610 190.13C1610.28 176.123 1606.71 164.725 1599.29 155.936C1594.35 150.992 1588.99 147.834 1583.23 146.46Z" fill="white"/>
<defs>
<clipPath id="clip0_562_7775">
<rect width="255.938" height="280.875" fill="white" transform="translate(0 1)"/>
</clipPath>
<clipPath id="clip1_562_7775">
<rect width="280" height="281" fill="white" transform="translate(173 1)"/>
</clipPath>
<clipPath id="clip2_562_7775">
<path d="M379 1H600.812V281.875H490.562C428.948 281.875 379 231.927 379 170.312V1Z" fill="white"/>
</clipPath>
<clipPath id="clip3_562_7775">
<rect width="264" height="282" fill="white" transform="translate(858)"/>
</clipPath>
<clipPath id="clip4_562_7775">
<rect width="166" height="282" fill="white" transform="translate(1066)"/>
</clipPath>
<clipPath id="clip5_562_7775">
<rect width="270.375" height="280.875" fill="white" transform="translate(1194.38 1)"/>
</clipPath>
</defs>
</svg>
