<svg width="1680" height="282" viewBox="0 0 1680 282" fill="none" xmlns="http://www.w3.org/2000/svg">
<path d="M893.901 0.380859C922.426 0.380859 937.101 0.655549 937.924 1.2041C938.472 1.47846 939.021 2.16394 939.569 3.26074C939.844 4.63214 939.295 7.7867 937.924 12.7236C936.552 17.9349 935.592 21.0894 935.044 22.1865L933.809 23.4209H919.41C905.696 23.6952 897.741 24.3804 895.547 25.4775C894.176 26.0261 893.353 26.8493 893.079 27.9463C892.161 30.2417 888.724 42.9956 882.768 66.208H840.796L850.291 27.9463L826.473 66.208H826.017V66.9385L772.944 152.195C721.654 235.302 695.597 277.267 694.774 278.09C693.677 279.187 692.717 279.872 691.894 280.146C690.523 280.969 687.643 281.381 683.255 281.381C677.495 281.381 674.34 280.421 673.792 278.501C673.517 277.677 668.443 236.535 658.569 155.075C648.422 73.3452 643.347 32.3402 643.347 32.0605L593.565 231.188C591.097 240.787 589.862 245.861 589.862 246.41C589.862 253.541 598.776 257.519 616.604 258.342C620.993 258.342 623.736 258.616 624.833 259.164C626.479 259.713 627.302 260.947 627.302 262.867L623.187 278.912C622.09 280.558 619.347 281.244 614.959 280.97H607.965C589.314 279.873 566.137 279.736 538.434 280.559C535.692 280.833 533.498 280.97 531.852 280.97C523.898 281.244 519.372 280.558 518.275 278.912C517.727 278.089 518.001 274.935 519.098 269.45C520.469 263.69 521.704 260.261 522.801 259.164C523.624 258.616 525.544 258.342 528.56 258.342C540.354 258.342 550.228 256.559 558.183 252.993C563.394 249.976 566.411 247.096 567.234 244.354L621.953 26.3008C621.953 26.0265 621.678 25.615 621.13 25.0664C620.032 24.5179 612.626 23.9694 598.913 23.4209H584.925L583.279 21.7754C582.182 20.6783 582.32 17.3868 583.691 11.9014C585.337 5.31922 586.571 1.75315 587.393 1.2041C588.216 0.655549 603.302 0.380859 632.65 0.380859C661.724 0.380862 676.672 0.655551 677.495 1.2041C678.318 1.75258 679.003 2.43814 679.552 3.26074C680.1 4.35786 684.763 41.7978 693.54 115.579L707.117 226.662L776.646 115.579C821.9 41.8014 845.214 4.22451 846.588 2.84961L849.057 1.2041H849.469C850.568 0.655661 865.379 0.380861 893.901 0.380859ZM826.017 220.49H843.952C838.179 243.378 835.219 254.898 835.068 255.05C834.794 255.873 836.029 256.559 838.771 257.107C841.789 257.656 848.371 258.068 858.519 258.342C867.021 258.342 871.821 258.616 872.919 259.164C874.565 259.713 875.388 260.947 875.388 262.867L871.273 278.912C870.176 280.558 867.296 281.244 862.634 280.97H853.994C832.052 279.873 804.212 279.736 770.475 280.559C767.184 280.833 764.578 280.97 762.658 280.97C753.333 281.244 748.121 280.558 747.024 278.912C746.476 278.089 746.751 274.935 747.848 269.45C749.219 263.416 750.59 259.987 751.962 259.164C753.333 258.616 758.27 258.342 766.772 258.342C782.132 258.068 790.772 256.97 792.692 255.05C793.516 254.496 803.39 216.372 822.314 140.676L826.017 125.754V220.49Z" fill="white"/>
<rect x="803.389" y="80.0977" width="77.5292" height="38.8857" transform="rotate(-58.1115 803.389 80.0977)" fill="white"/>
<rect x="815.731" y="233.861" width="45.2562" height="26.7423" fill="white"/>
<g clip-path="url(#clip0_562_7711)">
<path d="M111.84 267.144V281.175H-42.5V267.144H-0.407274V14.5875H-42.5V0.556625H111.84V14.5875H69.7473V140.866H55.7164V154.897H69.7473V140.866H83.7782V126.835H97.8091V112.804H111.84V98.773H125.871V84.7421H139.902V70.7112H153.933V56.6803H167.964V42.6494H181.995V14.5875H153.933V0.556625H252.149V14.5875H238.118V28.6184H210.056V42.6494H196.025V56.6803H181.995V70.7112H167.964V84.7421H153.933V98.773H139.902V112.804H153.933V126.835H167.964V154.897H181.995V168.928H196.025V182.958H210.056V211.02H224.087V225.051H238.118V239.082H252.149V267.144H280.211V281.175H181.995V267.144H167.964V253.113H153.933V225.051H139.902V211.02H125.871V182.958H111.84V168.928H97.8091V154.897H83.7782V168.928H69.7473V267.144H111.84Z" fill="white"/>
</g>
<g clip-path="url(#clip1_562_7711)">
<path d="M359.378 0.505711C365.805 -0.00842687 374.16 0.120206 384.443 0.891453C406.553 3.97645 424.805 12.9747 439.202 27.8856C446.084 34.7672 451.717 42.5928 456.102 51.3622H416.514C413.775 45.6123 410.412 40.7432 406.424 36.7547C398.197 28.271 388.299 22.8722 376.731 20.5584C370.304 19.5302 363.748 19.2728 357.064 19.787C340.353 21.8437 325.057 28.2709 311.175 39.0682C290.865 54.4932 275.311 75.9597 264.514 103.468C256.544 123.263 250.888 145.501 247.546 170.181C246.518 180.207 246.389 191.005 247.16 202.573C247.417 203.601 247.546 204.373 247.546 204.888C251.402 229.31 262.2 246.02 279.939 255.018C297.163 263.759 316.959 262.731 339.325 251.933C356.487 243.506 371.318 230.648 383.822 213.362H426.445C413.412 229.735 398.256 243.365 380.973 254.247C367.09 263.245 353.336 269.801 339.711 273.914C303.976 284.968 272.741 282.27 246.004 265.816C240.605 262.474 235.591 258.617 230.964 254.247C215.539 239.079 205.898 219.155 202.042 194.475C201.014 186.249 200.886 175.837 201.657 163.24C201.914 162.212 202.042 161.311 202.042 160.54C206.67 125.32 221.581 92.9276 246.775 63.3631C253.974 55.1366 261.686 47.4237 269.912 40.2254C298.448 16.5737 328.271 3.33364 359.378 0.505711Z" fill="white"/>
</g>
<path d="M430.441 185.773C430.441 194.782 432.068 202.415 435.321 208.671C438.574 214.928 442.828 220.058 448.084 224.062C453.589 227.815 459.971 230.693 467.228 232.695C474.485 234.447 481.993 235.323 489.75 235.323C495.006 235.323 500.636 234.948 506.642 234.197C512.648 233.196 518.279 231.444 523.534 228.942C528.789 226.439 533.169 223.061 536.672 218.806C540.176 214.302 541.927 208.671 541.927 201.915C541.927 194.657 539.55 188.776 534.795 184.272C530.291 179.767 524.285 176.014 516.777 173.011C509.27 170.008 500.761 167.38 491.252 165.128C481.742 162.876 472.108 160.373 462.348 157.62C452.338 155.118 442.578 152.115 433.069 148.611C423.559 144.858 415.051 140.103 407.543 134.347C400.036 128.591 393.905 121.459 389.15 112.951C384.645 104.192 382.393 93.6814 382.393 81.4192C382.393 67.6554 385.271 55.7685 391.027 45.7585C397.033 35.4983 404.79 26.9898 414.3 20.233C423.809 13.4763 434.57 8.47129 446.582 5.21803C458.594 1.9648 470.606 0.338177 482.618 0.338177C496.632 0.338177 510.021 1.9648 522.783 5.21803C535.796 8.22104 547.308 13.226 557.318 20.233C567.328 27.24 575.211 36.249 580.966 47.2601C586.972 58.0208 589.975 71.1589 589.975 86.6744H532.918C532.418 78.6664 530.666 72.0348 527.663 66.7795C524.91 61.5243 521.157 57.3952 516.402 54.3922C511.647 51.3892 506.142 49.262 499.885 48.0108C493.879 46.7595 487.248 46.1339 479.991 46.1339C475.236 46.1339 470.481 46.6344 465.726 47.6354C460.972 48.6364 456.592 50.3882 452.588 52.8907C448.834 55.3932 445.706 58.5213 443.204 62.275C440.701 66.0288 439.45 70.7836 439.45 76.5393C439.45 81.7945 440.451 86.0488 442.453 89.302C444.455 92.5553 448.334 95.5583 454.09 98.311C460.096 101.064 468.229 103.817 478.489 106.569C489 109.322 502.638 112.826 519.405 117.08C524.41 118.081 531.292 119.958 540.051 122.71C549.06 125.213 557.943 129.342 566.702 135.098C575.461 140.854 582.968 148.611 589.225 158.371C595.731 167.881 598.984 180.143 598.984 195.158C598.984 207.42 596.607 218.806 591.852 229.317C587.098 239.827 579.965 248.962 570.456 256.719C561.197 264.227 549.56 270.108 535.546 274.362C521.782 278.616 505.766 280.743 487.498 280.743C472.733 280.743 458.344 278.866 444.33 275.113C430.566 271.609 418.304 265.979 407.543 258.221C397.033 250.463 388.649 240.578 382.393 228.566C376.137 216.554 373.134 202.29 373.384 185.773H430.441Z" fill="white"/>
<g clip-path="url(#clip2_562_7711)">
<path fill-rule="evenodd" clip-rule="evenodd" d="M839.562 35.6123H863.188V23.7998H875V11.9873H922.25V0.174805H957.688V11.9873H993.125V23.7998H1016.75V35.6123H1028.56V47.4248H1040.38V59.2373H1052.19V71.0498H1064V94.6748H1073.19V200.987H1064V224.612H1052.19V236.425H1040.38V248.237H1028.56V260.05H1016.75V271.862H993.125V281.05H886.812V271.862H863.188V260.05H851.375V248.237H839.562V236.425H827.75V224.612H815.938V200.987H804.125V165.55H792.312V130.112H804.125V82.8623H815.938V71.0498H827.75V47.4248H839.562V35.6123ZM863.188 118.3V82.8623H898.625V71.0498H934.062V35.6123H981.312V47.4248H1004.94V59.2373H1016.75V71.0498H1028.56V82.8623H1040.38V95.3311H1016.75V82.8623H993.125V71.0498H957.688V82.8623H945.875V106.487H957.688V118.3H969.5V130.112H993.125V141.925H1004.94V189.175H1016.75V236.425H1004.94V248.237H981.312V260.05H898.625V248.237H875V236.425H863.188V224.612H851.375V212.8H839.562V189.175H827.75V118.3H839.562V153.737H863.188V165.55H875V224.612H886.812V236.425H898.625V224.612H910.438V200.987H934.062V189.175H945.875V177.362H957.688V153.737H945.875V141.925H922.25V130.112H910.438V118.3H863.188Z" fill="white"/>
<rect x="1012" y="238.175" width="44" height="24" fill="white"/>
</g>
<g clip-path="url(#clip3_562_7711)">
<path d="M1043.52 0.30419C1044.07 0.0251843 1046.31 -0.114318 1050.21 -0.114318C1071.97 1.00172 1101.41 1.28073 1138.52 0.722698C1163.07 0.164687 1175.21 -0.114318 1174.93 -0.114318H1179.95L1181.21 1.14123C1182.6 2.53628 1182.74 5.74488 1181.63 10.767C1181.63 11.3251 1181.49 11.8831 1181.21 12.4411C1179.81 18.5793 1178.56 21.9274 1177.44 22.4854C1176.6 23.0434 1172.28 23.3224 1164.47 23.3224C1148 23.3224 1137.26 23.741 1132.24 24.578C1127.78 25.136 1124.99 26.252 1123.87 27.9261L1065.7 260.62C1065.7 261.178 1066.26 261.596 1067.37 261.875H1095.41C1116.06 261.875 1129.59 261.038 1136.01 259.364C1136.57 259.364 1137.12 259.225 1137.68 258.946C1156.65 254.481 1172.28 244.577 1184.56 229.231C1192.37 219.466 1200.74 202.586 1209.67 178.591C1212.18 171.895 1213.85 168.407 1214.69 168.128C1216.64 166.733 1221.24 166.594 1228.5 167.71C1229.62 167.71 1230.31 167.849 1230.59 168.128C1232.27 168.686 1233.1 169.942 1233.1 171.895L1193.34 283.638C1192.79 284.754 1189.16 285.312 1182.46 285.312C1174.09 285.591 1140.89 285.73 1082.86 285.73C1011.15 285.73 974.88 285.451 974.043 284.893C973.206 284.056 972.648 283.359 972.369 282.801C972.09 281.685 972.508 278.476 973.624 273.175C975.298 267.595 976.414 264.386 976.972 263.549L978.646 262.294H992.876C1008.5 262.015 1017.29 260.899 1019.24 258.946C1020.08 258.388 1030.12 219.605 1049.38 142.599C1068.63 65.5923 1078.25 26.8101 1078.25 26.252C1078.25 25.973 1077.97 25.5545 1077.42 24.9965C1076.3 24.4385 1068.77 23.8805 1054.82 23.3224H1040.59L1039.33 22.0669C1037.66 20.9509 1037.66 17.0447 1039.33 10.3485C1040.73 4.48933 1042.12 1.14122 1043.52 0.30419Z" fill="white"/>
</g>
<g clip-path="url(#clip4_562_7711)">
<path d="M1260.28 180.863H1336.75L1299.55 72.5587H1298.72L1260.28 180.863ZM1266.48 -0.195519H1333.03L1443.4 294.955H1376.02L1353.7 229.228H1243.33L1220.18 294.955H1154.87L1266.48 -0.195519Z" fill="white"/>
</g>
<path d="M1632.27 266.378V280.397H1407.95V266.378H1450.01V14.0196H1407.95V-0.000260189H1618.25V14.0196H1646.29V28.0395H1660.31V98.1389H1646.29V112.159H1632.27V126.179H1618.25V140.199H1646.29V154.218H1660.31V168.238H1674.33V238.338H1660.31V252.358H1646.29V266.378H1632.27ZM1520.11 126.179H1562.17V112.159H1590.21V84.1191H1604.23V56.0793H1590.21V28.0395H1562.17V14.0196H1506.09V28.0395H1520.11V126.179ZM1506.09 266.378H1576.19V252.358H1604.23V224.318H1618.25V182.258H1604.23V154.218H1576.19V140.199H1520.11V252.358H1506.09V266.378Z" fill="white"/>
<defs>
<clipPath id="clip0_562_7711">
<rect width="245" height="281" fill="white" transform="translate(0 0.174805)"/>
</clipPath>
<clipPath id="clip1_562_7711">
<rect width="264" height="281" fill="white" transform="translate(204 0.174805)"/>
</clipPath>
<clipPath id="clip2_562_7711">
<rect width="286" height="280" fill="white" transform="translate(792 1.1748)"/>
</clipPath>
<clipPath id="clip3_562_7711">
<rect width="203.241" height="279.928" fill="white" transform="translate(1016.13 1.12695)"/>
</clipPath>
<clipPath id="clip4_562_7711">
<rect width="283.852" height="280.881" fill="white" transform="translate(1176.64 0.174805)"/>
</clipPath>
</defs>
</svg>
