<svg width="884" height="840" viewBox="0 0 884 840" fill="none" xmlns="http://www.w3.org/2000/svg">
<g clip-path="url(#clip0_596_8300)">
<path d="M436.022 343.015C478.909 342.851 521.793 344.028 564.607 346.543C569.86 346.847 593.911 348.058 597.343 348.983C598.297 350.351 597.969 350.535 598.068 352.539C560.097 349.678 522.056 347.905 483.985 347.224C474.084 346.969 464.182 346.85 454.276 346.868C449.959 346.875 440.528 347.168 436.643 346.81C435.698 345.655 436.035 344.82 436.022 343.015Z" fill="white"/>
<path d="M438.076 44.0674L442.958 44.0721C442.336 73.4803 442.004 102.894 441.965 132.309C441.603 168.892 440.925 206.785 441.076 243.32C440.895 245.399 440.778 247.095 440.731 249.198L440.26 249.082L438.076 44.0674Z" fill="white"/>
<path d="M439.954 620.184C440.735 618.539 440.2 614.542 440.64 612.362C440.709 614.982 440.701 619.735 441.111 622.157C441.655 629.603 441.482 638.214 441.499 645.759L441.642 684.993L442.872 801.069C441.296 801.047 439.66 801.095 438.081 801.121L439.259 681.867C439.41 661.597 439.138 640.368 439.954 620.184Z" fill="white"/>
<path d="M387.52 3.61707L389.844 3.41309C391.128 4.31136 390.657 3.73292 391.233 5.26693C391.003 5.84362 390.79 6.70266 390.048 6.85024C384.682 7.91751 377.503 8.79316 372.252 9.68621C335.971 15.842 300.667 26.7826 267.264 42.2217C266.545 42.578 265.81 42.9089 265.082 43.2461C263.863 42.5962 264.316 43.0681 263.765 41.7041C263.834 41.2183 263.987 40.2284 264.359 39.9465C267.407 37.6381 274.398 34.897 277.812 33.4463C312.852 18.5506 349.763 8.51461 387.52 3.61707Z" fill="white"/>
<path d="M264.183 354.389C264.113 352.387 263.783 352.213 264.581 350.706C273.357 348.579 383.921 342.333 390.619 343.868C391.241 344.63 390.991 345.274 391.003 346.545C389.982 348.061 379.824 347.741 377.518 347.8C369.802 348.003 362.088 348.268 354.377 348.594C330.507 349.517 306.657 350.909 282.842 352.771C280.128 352.975 266.12 353.811 264.272 354.576L264.183 354.389Z" fill="white"/>
<path d="M833.649 560.982C836.489 567.872 829.276 582.768 826.458 589.131C817.083 610.316 805.994 630.703 793.303 650.085C786.794 660.069 780.173 668.685 773.258 678.263C772.844 676.467 773.06 674.054 773.124 672.155C800.551 633.997 817.225 605.633 833.649 560.982Z" fill="white"/>
<path d="M773.137 162.122C774.752 163.357 780.082 170.882 781.507 172.838C799.264 197.26 814.363 223.508 826.548 251.137C831.827 263.071 834.37 266.2 833.86 279.4C833.381 278.815 833.571 279.143 833.295 278.351C818.593 236.685 798.841 203.166 773.068 167.798C773.021 165.996 773.107 163.945 773.137 162.122Z" fill="white"/>
<path d="M719.713 485.297L720.551 485.366L721.026 486.208C721.008 488.029 721.267 487.231 720.283 488.707C718.362 489.687 707.39 491.072 704.416 491.508C684.28 494.474 664.079 496.999 643.835 499.084C632.708 500.245 620.294 501.613 609.153 502.136C608.769 502.248 609.054 502.192 608.298 502.011C607.918 500.685 607.78 500.621 608.229 499.3C608.557 499.045 608.885 498.79 609.209 498.536C614.592 497.983 621.753 497.422 626.962 496.943C639.933 495.73 652.891 494.366 665.827 492.855C683.84 490.706 701.809 488.189 719.713 485.297Z" fill="white"/>
<path d="M608.091 349.434C610.534 350.031 629.777 351.482 633.234 351.807C654.579 353.865 675.88 356.381 697.117 359.355C702.202 360.079 716.027 361.813 720.395 363.19C721.241 364.452 720.931 364.904 720.978 366.744C690.124 361.209 656.271 358.057 625.029 354.789C622.301 354.504 610.521 353.959 608.786 353.119C607.755 351.614 608.121 351.657 608.091 349.434Z" fill="white"/>
<path d="M570.642 815.814C573.564 815.594 595.85 823.674 597.783 825.531C597.986 827.123 597.934 827.089 597.567 828.569C595.444 828.449 575.558 820.769 571.665 819.436C557.654 824.244 541.735 828.129 527.271 831.159C523.472 831.997 498.312 837.077 496.063 835.756C495.856 834.004 495.756 834.846 496.464 833.145C497.794 831.867 501.929 831.815 503.936 831.522C508.814 830.814 513.678 830.011 518.53 829.109C536.18 825.859 553.588 821.417 570.642 815.814Z" fill="white"/>
<path d="M595.254 499.61C596.985 499.467 596.316 499.226 597.555 499.882C598.332 501.557 598.241 500.732 598.034 502.416C597.796 502.653 597.555 502.895 597.317 503.132C571.173 505.416 524.469 507.695 500.379 508.096C499.046 508.161 498.51 508.161 497.185 508.07C495.912 507.056 495.398 506.629 496.02 505.109C497.466 503.987 528.389 503.391 532.757 503.214C553.609 502.347 574.445 501.147 595.254 499.61Z" fill="white"/>
<path d="M836.118 275.683C837.124 276.681 839.165 283.269 839.735 284.976C846.404 305.431 852.49 327.02 855.654 348.327C856.591 354.644 856.129 368.348 855.796 374.803C855.235 373.189 854.035 361.858 853.664 359.224C852.348 350.253 850.768 341.323 848.92 332.446C846.861 323.021 844.479 313.669 841.781 304.406C838.216 292.412 835.846 288.416 836.118 275.683Z" fill="white"/>
<path d="M854.636 474.319L856.008 474.678C856 479.033 856.159 487.878 855.555 492C852.943 509.711 848.17 527.797 842.986 544.904C840.784 552.164 837.931 559.148 836.084 566.391C835.855 553.386 836.809 552.017 840.551 539.693C842.627 532.908 844.514 526.066 846.21 519.177C850.008 503.65 852.356 489.997 854.636 474.319Z" fill="white"/>
<path d="M165.09 730.899C166.221 731.534 176.701 740.59 178.429 742.023C185.7 747.98 193.148 753.717 200.763 759.225C206.178 763.109 211.715 766.822 217.365 770.353C221.453 772.908 226.367 775.679 230.235 778.58C231.11 779.236 231 781.692 231.031 782.953C208.657 771.276 185.586 752.922 166.335 736.636C164.557 735.134 164.982 733.006 165.09 730.899Z" fill="white"/>
<path d="M677.533 763.174L677.917 763.683C678.509 768.846 673.139 770.62 669.03 773.253C650.759 785.003 631.62 795.332 611.773 804.155L611.402 803.918C610.845 802.64 611.048 802.908 611.199 801.319C611.855 800.326 612.994 799.541 614.073 799.062C636.73 788.944 656.815 776.831 677.533 763.174Z" fill="white"/>
<path d="M608.112 34.2891C627.437 43.1396 649.723 53.5702 667.42 66.0804C668.231 66.6558 668.02 69.1214 668.007 70.1487C666.328 69.6338 658.165 64.4272 655.878 63.0415C650.413 59.7484 644.888 56.5572 639.307 53.4692C629.051 47.887 618.817 43.6779 608.639 38.4493C607.797 37.2156 608.061 35.8395 608.112 34.2891Z" fill="white"/>
<path d="M230.214 57.3477C230.451 57.5065 230.688 57.6654 230.925 57.8242C230.971 59.6082 231.234 60.9269 229.583 62.0208C223.974 65.8267 217.895 69.0192 212.335 72.8911C200.433 81.1797 187.591 89.7313 176.804 99.4374C176.586 99.3921 176.368 99.3464 176.15 99.3006C175.947 97.5205 175.923 97.3638 176.207 95.6173C181.654 87.9895 221.646 62.4999 230.214 57.3477Z" fill="white"/>
<path d="M833.757 457.179C834.145 458.361 834.02 459.432 833.787 460.593C829.384 464.927 782.4 476.633 773.142 478.865C772.986 477.212 772.999 477.104 773.202 475.446C773.828 474.881 802.722 467.431 805.817 466.524C815.231 463.727 824.55 460.61 833.757 457.179Z" fill="white"/>
<path d="M773.03 371C790.783 375.265 808.351 379.775 825.621 385.748C828.336 386.687 830.934 387.49 833.408 388.986C834.228 390.068 833.995 391.411 833.99 392.861C813.69 385.011 794.581 380.118 773.595 374.929C772.827 373.91 773.034 372.358 773.03 371Z" fill="white"/>
<path d="M264.05 497.59C276.734 498.725 289.432 499.709 302.14 500.542C309.257 501.004 318.492 501.246 325.378 502.178C326.135 503.279 325.945 504.121 326.092 505.67C311.191 505.351 295.815 503.715 280.902 502.8C275.716 502.48 269.646 502.157 264.584 501.337C263.841 500.37 264.057 498.915 264.05 497.59Z" fill="white"/>
<path d="M225.381 355.281C227.942 355.008 229.785 354.38 231.35 356.791L231.044 357.666C228.625 359.359 188.262 363.827 182.051 364.712C179.597 365.191 177.705 366.021 175.693 364.188C175.101 360.656 189.414 359.867 192.247 359.478C203.28 357.989 214.325 356.59 225.381 355.281Z" fill="white"/>
<path d="M175.958 487.222C187.147 488.862 198.351 490.381 209.572 491.793C215.587 492.527 224.537 493.248 230.254 494.422C231.208 495.855 230.892 496.122 231.017 498.147C218.263 496.252 204.454 495.354 191.63 493.256C186.954 492.492 181.036 492.104 176.544 490.93C175.74 489.626 176.023 489.022 175.958 487.222Z" fill="white"/>
<path d="M678.155 72.8438C689.39 79.2996 709.375 96.321 719.696 105.193C721.375 106.634 720.956 108.773 720.887 111.036C710.122 101.765 699.383 92.3917 687.72 84.2507C684.612 82.0799 681.232 79.7459 678.44 77.2229C677.762 75.8235 678.043 74.4202 678.155 72.8438Z" fill="white"/>
<path d="M436.307 506.106C433.216 505.718 429.102 506.119 425.931 506.214C415.573 506.529 405.286 507.531 394.969 508.394C393.496 508.515 392.781 508.273 391.75 507.315C391.794 505.757 391.638 506.529 392.58 504.993C397.869 503.443 427.719 502.291 434.968 502.187C436.613 502.165 434.878 503.046 436.354 504.846C439.898 505.342 447.922 504.997 452.087 505.114L452.502 505.23C454.233 505.683 454.388 505.709 456.145 505.705C451.764 506.331 438.659 505.29 436.307 506.106Z" fill="white"/>
<path d="M720.348 729.406L720.814 729.872C720.922 730.675 721.103 731.612 720.939 732.419C719.981 737.111 693.513 756.221 687.621 760.589C686.619 759.501 686.801 756.79 687.94 755.914C699.103 747.367 709.729 738.622 720.348 729.406Z" fill="white"/>
<path d="M423.559 671.413C426.837 671.227 433.63 670.165 435.84 672.457C435.931 674.275 436.25 673.627 435.361 674.693C432.115 675.349 413.759 675.82 409.222 676.044C405.999 676.476 399.648 678.073 397.275 675.971C397.051 674.4 396.893 675.077 397.482 673.826C402.371 672.319 417.78 671.771 423.559 671.413Z" fill="white"/>
<path d="M397.31 162.493C401.262 162.345 434.52 161.77 435.707 162.515C436.324 163.682 436.095 164.162 435.875 165.476L435.159 165.866C426.956 165.941 418.749 166.031 410.547 166.163C408.231 166.2 398.321 166.671 397.203 165.783C396.972 164.13 397.01 164.162 397.31 162.493Z" fill="white"/>
<path d="M396.963 335.653C407.725 336.73 423.9 335.389 435.456 336.264C436.164 337.284 435.896 338.504 435.896 339.965L411.36 339.74C407.578 339.707 401.167 339.893 397.644 339.355C396.742 337.875 397.052 337.664 396.963 335.653Z" fill="white"/>
<path d="M353.006 503.348C358.918 503.318 365.742 503.849 371.777 503.974C376.688 504.073 385.99 503.957 390.539 504.729C391.052 505.528 390.931 507.112 390.978 508.226C383.172 508.105 375.368 507.919 367.565 507.673C363.429 507.552 357.444 507.531 353.443 506.965C352.778 505.972 352.992 504.626 353.006 503.348Z" fill="white"/>
<path d="M458.061 805.191C464.545 805.226 490.577 805.066 495.407 805.981C496.227 806.948 495.973 807.855 496.076 809.448C485.885 809.689 475.344 808.843 465.123 809.016C463.004 809.05 460.453 809.111 458.411 808.692C457.742 807.704 458.005 806.469 458.061 805.191Z" fill="white"/>
<path d="M458.036 474.41C464.07 474.453 490.34 476.309 495.299 477.648C496.296 478.99 495.959 479.305 496.08 481.343C483.571 479.34 470.704 479.331 458.398 478.053C457.746 477.073 457.997 475.679 458.036 474.41Z" fill="white"/>
<path d="M353.321 826.757C365.073 829.476 378.953 831.414 390.873 833.05C390.938 833.784 390.809 835.938 390.777 836.789C384.765 836.033 358.388 832.243 353.369 830.322C352.794 829.079 353.113 828.147 353.321 826.757Z" fill="white"/>
<path d="M257.752 132.42C257.987 132.411 258.584 132.544 258.846 132.591C259.127 133.766 259.087 133.725 258.959 134.941C257.479 137.385 236.141 148.278 231.941 150.692C231.513 150.89 231.793 150.819 231.076 150.633C230.904 148.951 230.876 148.995 231.233 147.361C232.613 145.192 254.024 134.37 257.752 132.42Z" fill="white"/>
<path d="M258.352 352.243L258.947 352.886C259.011 353.669 259.127 355.693 258.441 356.091C249.755 361.133 240.159 365.904 231.522 370.94L231.115 370.429C230.657 367.498 231.743 366.499 234.234 365.052C241.938 360.575 250.37 356.103 258.352 352.243Z" fill="white"/>
<path d="M258.283 197.249L258.525 197.316C259.309 198.25 258.989 198.514 258.945 200.14C257.571 202.09 235.938 213.388 231.639 215.786L231.047 215.579C230.986 215.013 230.801 213.269 231.057 212.976C235.042 208.392 253.386 199.662 258.283 197.249Z" fill="white"/>
<path d="M258.473 507.237C261.405 511.455 252.358 514.537 249.352 516.138C243.258 519.375 237.356 522.557 231.375 526.01C230.721 525.19 230.976 523.886 231.088 522.932C233.143 519.552 253.834 509.434 258.473 507.237Z" fill="white"/>
<path d="M257.776 817.45C258.57 817.372 258.175 817.299 258.941 817.761C258.98 818.413 259.076 820.636 258.482 820.99C249.779 826.174 240.686 830.659 231.838 835.709L231.154 835.791C230.996 834.837 230.833 833.581 231.158 832.627C232.033 830.067 253.956 819.436 257.776 817.45Z" fill="white"/>
<path d="M350.719 426.097L352.449 425.904C353.241 426.768 352.943 426.794 352.906 428.395C352.725 428.692 352.543 428.989 352.361 429.287C346.231 431.178 333.867 434.076 328.145 435.647L326.727 435.962L326.086 435.375C325.721 433.636 325.668 434.473 326.285 432.781C328.945 430.661 346.512 427.045 350.719 426.097Z" fill="white"/>
<path d="M347.901 749.154C350.643 748.899 351.444 748.489 353.405 750.483L353.357 751.877C351.319 753.384 333.583 753.595 330.097 753.729C327.942 753.967 327.533 754.312 325.89 752.844C325.501 751.549 325.422 752.154 325.866 750.988C327.67 749.482 344.258 749.283 347.901 749.154Z" fill="white"/>
<path d="M155.703 113.015C157.233 117.831 152.576 121.07 149.483 124.108C145.617 127.905 141.998 131.609 138.385 135.648C137.893 133.934 138.095 132.018 138.142 130.198C142.985 124.921 150.327 117.586 155.703 113.015Z" fill="white"/>
<path d="M855.417 447.207L855.822 447.583C856.215 449.059 856.211 448.951 855.758 450.41C853.094 453.639 840.771 458.283 836.524 460.049L836.273 459.854C835.781 458.663 835.958 458.421 836.17 457.144C837.689 455.201 852.33 448.709 855.417 447.207Z" fill="white"/>
<path d="M836.023 389C841.319 391.009 851.014 394.402 855.257 398.162C856.245 399.038 856.034 400.725 855.986 402.071C849.84 398.986 842.161 395.922 836.593 392.891C835.816 391.899 836.023 390.345 836.023 389Z" fill="white"/>
<path d="M452.087 505.114C453.814 505.006 456.106 504.587 457.466 505.442C458.096 506.637 457.945 507.104 457.863 508.45C456.874 509.167 438.322 509.128 436.203 508.709C436.039 507.371 436.048 507.432 436.306 506.107C438.659 505.291 451.764 506.331 456.145 505.705C454.388 505.709 454.233 505.684 452.502 505.23L452.087 505.114Z" fill="white"/>
<path d="M138.109 704.611C139.797 705.777 147.861 714.44 149.876 716.521L150.03 721.247C148.19 720.772 139.8 711.544 138.086 709.709L138.109 704.611Z" fill="white"/>
<path d="M264.066 796.438C267.521 797.814 272.333 799.407 275.111 801.812C276.166 802.722 276.011 804.302 276.041 805.735C272.467 804.164 267.764 802.917 264.864 800.448C263.732 799.485 264.074 797.996 264.066 796.438Z" fill="white"/>
<path d="M597.96 795.22C601.543 796.489 606.748 797.935 608.911 800.982C610.357 803.02 609.947 802.929 609.662 805.377L608.475 805.467C607.379 801.22 602.605 802.018 598.612 799.139C597.667 797.516 598.003 797.404 597.96 795.22Z" fill="white"/>
<path d="M164.42 56.8926C168.083 60.3229 158.57 67.2277 156.353 69.5491C155.745 67.9468 156.006 66.3402 156.089 64.5842C158.496 62.1104 161.817 59.2559 164.42 56.8926Z" fill="white"/>
<path d="M148.288 365.024C148.475 364.978 149.265 365.011 149.493 365.014C150.418 366.328 150.196 367.069 149.466 368.303C147.147 369.274 142.633 369.868 139.97 370.318C138.939 370.51 139.28 370.517 138.305 370.343C137.963 368.981 137.92 369.06 138.164 367.695C139.854 365.818 145.512 365.428 148.288 365.024Z" fill="white"/>
<path d="M138.083 480.721C141.466 481.515 146.355 481.39 149.34 483.272C150.263 483.85 150.004 485.145 150.017 486.324C148.515 486.751 140.307 484.964 138.483 484.506C137.888 483.505 138.079 481.973 138.083 480.721Z" fill="white"/>
<path d="M677.464 90.1855C678.276 91.4719 678.017 91.1533 678.09 92.8886C676.964 95.823 671.46 98.6542 668.581 100.509C667.765 99.843 667.947 98.5808 667.973 97.6558C669.004 95.1716 674.956 91.8051 677.464 90.1855Z" fill="white"/>
<path d="M597.956 720.121C600.537 721.088 605.324 722.487 607.267 724.312C608.316 725.305 608.001 726.846 608.005 728.31C605.285 727.187 600.818 725.797 598.759 724.058C597.658 723.125 597.969 721.593 597.956 720.121Z" fill="white"/>
<path d="M678.073 633.872C680.758 635.439 684.224 638.063 686.822 639.928C686.934 640.899 686.926 642.82 686.947 643.874L686.291 643.981C683.641 642.367 681.336 641.107 679.225 638.81C677.654 637.097 677.973 636.328 678.073 633.872Z" fill="white"/>
<path d="M440.122 576.107L440.925 576.207C440.895 589.623 441.858 609.612 441.111 622.156C440.701 619.735 440.709 614.982 440.64 612.362C440.2 614.542 440.735 618.539 439.954 620.184C439.661 616.666 440.062 608.464 440.114 604.484C440.217 595.023 440.222 585.565 440.122 576.107Z" fill="white"/>
<path d="M598.077 261.927C601.53 262.216 604.331 261.562 607.323 262.918C608.385 264.399 608.022 264.235 608.082 266.45C604.431 265.92 601.31 266.624 598.552 265.195C597.706 263.74 598.012 263.927 598.077 261.927Z" fill="white"/>
<path d="M602.177 424.146C604.767 423.832 606.865 423.121 608.346 425.676L607.879 426.685C606.563 427.732 606.187 427.606 604.405 427.708C601.746 427.9 599.354 428.71 597.464 426.445C597.943 424.128 600.265 424.216 602.177 424.146Z" fill="white"/>
<path d="M155.384 781.179C158.518 784.338 152.564 789.013 150.588 790.926L150.318 790.826C148.067 787.183 153.012 783.277 155.384 781.179Z" fill="white"/>
<path d="M264.183 342.451L264.272 342.639C264.043 343.836 264.002 345.551 263.932 346.818C262.183 347.66 261.068 348.487 259.344 348.161L258.874 347.325C259.96 344.028 261.229 343.922 264.183 342.451Z" fill="white"/>
<path d="M835.376 399.578L835.717 399.899C836.77 402.752 835.544 410.598 834.741 413.687L834.284 413.26C833.313 409.958 834.28 402.941 835.376 399.578Z" fill="white"/>
<path d="M834.396 114.226C836.347 117.382 836.075 125.59 835.915 129.349C833.852 125.396 833.537 118.502 834.396 114.226Z" fill="white"/>
<path d="M262.798 109.235L263.913 109.403C265.505 112.061 261.962 113.831 259.953 114.527L259.563 114.735L259.017 114.417C258.667 111.036 259.951 110.386 262.798 109.235Z" fill="white"/>
<path d="M392.015 331.516C393.567 331.474 394.881 331.324 396.363 331.785C397.363 333.25 397.011 333.244 397.063 335.387C395.524 335.442 393.923 335.649 392.521 335.104C391.736 334.071 391.983 332.897 392.015 331.516Z" fill="white"/>
<path d="M440.731 249.199C440.778 247.096 440.895 245.4 441.076 243.32C441.409 249.799 441.171 257.386 441.171 263.927C441.171 267.945 441.253 276.547 440.64 280.274L440.325 280.245C440.295 278.744 439.989 273.629 440.312 272.587C441.132 267.264 440.761 254.924 440.731 249.199Z" fill="white"/>
<path d="M391.966 833.085C393.836 833.404 394.537 833.128 396.427 833.909C397.341 835.511 397.016 835.442 397.04 837.574C395.334 837.22 394.144 837.38 392.575 836.663C391.72 835.248 392.025 835.019 391.966 833.085Z" fill="white"/>
<path d="M394.975 2.5918C395.921 2.61376 395.705 2.6231 396.639 2.90432C398.103 5.45608 396.484 6.1289 394.397 6.78761C392.67 6.80448 393.387 7.06753 392.103 6.21653C391.179 3.40844 392.813 3.05987 394.975 2.5918Z" fill="white"/>
<path d="M440.26 249.082L440.731 249.198C440.761 254.923 441.132 267.263 440.312 272.586L440.26 249.082Z" fill="white"/>
<path d="M440.123 576.108C440.054 571.834 440.071 569.27 440.494 564.988C441.154 567.613 440.973 573.444 440.925 576.207L440.123 576.108Z" fill="white"/>
<path d="M855.732 466.17C855.913 469.161 856.026 471.691 856.008 474.678L854.636 474.32C854.934 471.643 855.18 468.781 855.732 466.17Z" fill="white"/>
<path d="M136.948 131.608L136.912 136.85C126.673 148.803 118.207 158.073 108.593 170.956C68.9796 223.917 42.5779 285.568 31.5819 350.786C29.3656 363.843 28.155 376.273 26.8984 389.412C55.9989 374.813 84.2001 367.116 115.914 359.996C120.639 358.935 132.374 356.12 136.656 356.142C136.96 357.431 136.944 357.338 136.638 358.634C136.036 359.367 135.231 360.079 134.278 360.231C128.822 361.102 123.463 362.229 118.078 363.428C104.463 366.369 90.9532 369.781 77.5736 373.657C57.2981 379.608 45.248 384.552 26.747 393.664C25.6335 411.164 25.618 428.718 26.7006 446.219C58.5011 463.023 93.4243 471.444 128.407 478.787C130.482 479.223 135.527 479.603 136.758 481.239C136.69 482.685 136.957 483.203 136.202 483.988C132.461 483.742 119.865 480.855 115.62 479.879C88.6072 473.672 51.2176 464.378 27.0101 450.587C32.4917 526.701 58.9056 599.823 103.334 661.865C110.07 671.314 117.215 680.46 124.749 689.283C128.538 693.738 133.386 698.784 136.925 703.204C136.93 704.927 136.91 706.701 136.949 708.41C82.1792 650.819 45.0227 578.758 29.8631 500.741C26.8006 485.167 23.7736 464.201 23.0719 448.209C11.4603 441.298 3.99487 435.483 0 422.42V417.52C3.84408 405.682 11.8466 397.423 23.0493 391.866C28.2047 312.539 55.9285 236.34 102.953 172.248C112.797 158.797 125.19 143.544 136.948 131.608ZM12.3921 435.889C15.7303 438.768 19.1437 441.565 22.9418 443.827C21.157 432.445 22.464 418.48 22.3266 406.835C22.3066 405.146 22.9827 397.399 22.2577 396.652C7.34074 406.374 -5.05516 420.447 12.3921 435.889Z" fill="white"/>
<path d="M436.061 0H459.179C461.989 0.69505 469.448 1.02902 472.573 1.25166C479.725 1.73424 486.861 2.41488 493.974 3.2928C524.456 7.0977 554.43 14.2399 583.354 24.5909C587.795 26.1327 598.043 28.0139 597.999 33.3659L597.443 33.7612C591.015 31.4734 584.562 28.7864 578.114 26.6177C547.597 16.1056 515.962 9.16502 483.848 5.93482C473.89 4.89855 463.889 4.28925 453.879 4.10857C450.758 4.03445 438.582 4.18819 436.397 3.71428C435.785 2.64409 436.018 1.30464 436.061 0Z" fill="white"/>
<path d="M436.061 840C436.065 838.606 435.836 837.328 436.462 836.275C439.402 836.046 455.178 835.774 457.824 836.154C458.217 837.557 457.923 838.55 457.699 840H436.061Z" fill="white"/>
</g>
<defs>
<clipPath id="clip0_596_8300">
<rect width="884" height="840" fill="white"/>
</clipPath>
</defs>
</svg>
