<svg width="281" height="281" viewBox="0 0 281 281" fill="none" xmlns="http://www.w3.org/2000/svg">
<g clip-path="url(#clip0_1169_13584)">
<path fill-rule="evenodd" clip-rule="evenodd" d="M47.25 35.4375H70.875V23.625H82.6875V11.8125H129.938V0H165.375V11.8125H200.812V23.625H224.438V35.4375H236.25V47.25H248.062V59.0625H259.875V70.875H271.688V94.5H280.875V200.812H271.688V224.438H259.875V236.25H248.062V248.062H236.25V259.875H224.438V271.688H200.812V280.875H94.5V271.688H70.875V259.875H59.0625V248.062H47.25V236.25H35.4375V224.438H23.625V200.812H11.8125V165.375H0V129.938H11.8125V82.6875H23.625V70.875H35.4375V47.25H47.25V35.4375ZM70.875 118.125V82.6875H106.312V70.875H141.75V35.4375H189V47.25H212.625V59.0625H224.438V70.875H236.25V82.6875H248.062V95.1562H224.438V82.6875H200.812V70.875H165.375V82.6875H153.562V106.312H165.375V118.125H177.188V129.938H200.812V141.75H212.625V189H224.438V236.25H212.625V248.062H189V259.875H106.312V248.062H82.6875V236.25H70.875V224.438H59.0625V212.625H47.25V189H35.4375V118.125H47.25V153.562H70.875V165.375H82.6875V224.438H94.5V236.25H106.312V224.438H118.125V200.812H141.75V189H153.562V177.188H165.375V153.562H153.562V141.75H129.938V129.938H118.125V118.125H70.875Z" fill="#368AFF"/>
</g>
<defs>
<clipPath id="clip0_1169_13584">
<rect width="281" height="281" fill="white"/>
</clipPath>
</defs>
</svg>
