<svg width="1279" height="580" viewBox="0 0 1279 580" fill="none" xmlns="http://www.w3.org/2000/svg">
<g clip-path="url(#clip0_825_19669)">
<path d="M137.935 274.024V288.473H-21V274.024H22.346V13.9481H-21V-0.500578H137.935V13.9481H94.5893V143.986H80.1406V158.435H94.5893V143.986H109.038V129.537H123.487V115.089H137.935V100.64H152.384V86.1914H166.833V71.7427H181.281V57.2941H195.73V42.8454H210.179V13.9481H181.281V-0.500578H282.422V13.9481H267.973V28.3967H239.076V42.8454H224.627V57.2941H210.179V71.7427H195.73V86.1914H181.281V100.64H166.833V115.089H181.281V129.537H195.73V158.435H210.179V172.883H224.627V187.332H239.076V216.229H253.525V230.678H267.973V245.127H282.422V274.024H311.319V288.473H210.179V274.024H195.73V259.575H181.281V230.678H166.833V216.229H152.384V187.332H137.935V172.883H123.487V158.435H109.038V172.883H94.5893V274.024H137.935Z" fill="white"/>
<path d="M392.22 0.448886C398.909 -0.0862419 407.605 0.047548 418.308 0.850256C441.319 4.06105 460.316 13.4259 475.3 28.9448C490.016 43.661 499.247 62.5245 502.993 85.5353C508.879 120.319 502.056 155.638 482.524 191.492C478.778 198.181 474.631 204.737 470.082 211.158C454.831 233.099 436.369 250.892 414.696 264.538C400.247 273.903 385.932 280.726 371.751 285.007C334.559 296.512 302.05 293.703 274.223 276.578C268.604 273.1 263.386 269.086 258.57 264.538C242.516 248.751 232.482 228.015 228.469 202.328C227.399 193.766 227.265 182.93 228.068 169.819C228.335 168.749 228.469 167.812 228.469 167.01C233.285 130.353 248.804 96.6394 275.026 65.8691C282.518 57.307 290.545 49.2799 299.107 41.7881C328.807 17.1719 359.844 3.39214 392.22 0.448886ZM410.281 21.3192C403.592 20.2489 396.769 19.9813 389.812 20.5164C372.42 22.657 356.5 29.3462 342.051 40.584C320.913 56.638 304.726 78.9799 293.488 107.61C285.193 128.212 279.307 151.357 275.828 177.043C274.758 187.478 274.624 198.716 275.427 210.757C275.695 211.827 275.828 212.63 275.828 213.165C279.842 238.584 291.08 255.976 309.542 265.341C327.469 274.438 348.071 273.368 371.35 262.13C401.317 247.414 424.462 219.72 440.784 179.05C450.148 154.969 456.169 130.888 458.844 106.807C459.915 97.9772 459.915 88.6123 458.844 78.7123C458.844 78.1772 458.844 77.6421 458.844 77.1069C455.901 59.9826 450.015 47.0056 441.185 38.1759C432.623 29.3462 422.321 23.7273 410.281 21.3192Z" fill="white"/>
<path d="M509.118 192.272C509.118 201.561 510.796 209.431 514.15 215.882C517.504 222.332 521.891 227.622 527.309 231.75C532.986 235.62 539.565 238.588 547.048 240.652C554.531 242.458 562.271 243.361 570.27 243.361C575.689 243.361 581.494 242.974 587.687 242.2C593.879 241.168 599.685 239.362 605.103 236.782C610.522 234.201 615.037 230.718 618.65 226.332C622.262 221.687 624.068 215.882 624.068 208.915C624.068 201.432 621.617 195.369 616.714 190.724C612.07 186.08 605.877 182.21 598.137 179.113C590.396 176.017 581.623 173.308 571.818 170.985C562.013 168.663 552.079 166.083 542.016 163.245C531.695 160.665 521.633 157.568 511.828 153.956C502.023 150.086 493.25 145.183 485.509 139.249C477.768 133.314 471.447 125.96 466.544 117.187C461.9 108.157 459.578 97.3196 459.578 84.6764C459.578 70.4851 462.545 58.229 468.48 47.908C474.672 37.329 482.671 28.5562 492.476 21.5896C502.281 14.6229 513.376 9.46242 525.761 6.1081C538.146 2.7538 550.531 1.07665 562.916 1.07665C577.366 1.07665 591.17 2.7538 604.329 6.1081C617.746 9.2044 629.616 14.3649 639.937 21.5896C650.257 28.8142 658.385 38.1031 664.32 49.4562C670.512 60.5512 673.609 74.0974 673.609 90.0949H614.779C614.263 81.8382 612.457 75.0005 609.361 69.582C606.522 64.1635 602.652 59.9061 597.75 56.8098C592.847 53.7135 587.171 51.5203 580.72 50.2302C574.527 48.9401 567.69 48.295 560.207 48.295C555.305 48.295 550.402 48.8111 545.5 49.8432C540.597 50.8753 536.082 52.6815 531.953 55.2617C528.083 57.8419 524.858 61.0672 522.278 64.9376C519.697 68.808 518.407 73.7104 518.407 79.645C518.407 85.0635 519.439 89.4499 521.503 92.8042C523.568 96.1585 527.567 99.2548 533.502 102.093C539.694 104.931 548.08 107.77 558.659 110.608C569.496 113.446 583.558 117.058 600.846 121.445C606.006 122.477 613.102 124.412 622.133 127.25C631.422 129.831 640.582 134.088 649.612 140.023C658.643 145.957 666.384 153.956 672.835 164.019C679.543 173.824 682.898 186.467 682.898 201.948C682.898 214.592 680.446 226.332 675.544 237.169C670.641 248.006 663.288 257.424 653.483 265.422C643.936 273.163 631.938 279.227 617.488 283.613C603.297 287.999 586.784 290.193 567.948 290.193C552.724 290.193 537.888 288.257 523.439 284.387C509.247 280.775 496.604 274.969 485.509 266.97C474.672 258.972 466.028 248.78 459.578 236.395C453.127 224.009 450.031 209.302 450.289 192.272H509.118Z" fill="white"/>
<g clip-path="url(#clip1_825_19669)">
<path d="M670.31 -2.03297C671.226 -2.64389 688.027 -2.94935 720.711 -2.94935C753.091 -2.94935 769.739 -2.64389 770.655 -2.03297C771.571 -1.42202 772.335 -0.658361 772.946 0.258023C773.557 1.47989 778.75 43.1759 788.525 125.346L803.645 249.06L881.081 125.346C931.483 43.1759 957.447 1.32716 958.974 -0.200169L961.724 -2.03297H962.182C963.404 -2.64389 979.899 -2.94935 1011.67 -2.94935C1043.44 -2.94935 1059.78 -2.64389 1060.69 -2.03297C1061.31 -1.72749 1061.92 -0.963823 1062.53 0.258023C1062.83 1.78537 1062.22 5.29822 1060.69 10.7966C1059.17 16.6004 1058.1 20.1133 1057.49 21.3351L1056.11 22.7097H1040.08C1024.8 23.0152 1015.94 23.7789 1013.5 25.0007C1011.97 25.6117 1011.06 26.5281 1010.75 27.7499C1008.92 32.3319 998.074 74.3334 978.219 153.754C957.142 238.063 946.45 280.37 946.145 280.675C945.839 281.592 947.214 282.355 950.269 282.966C953.629 283.577 960.96 284.035 972.262 284.341C981.732 284.341 987.077 284.646 988.299 285.257C990.132 285.868 991.048 287.243 991.048 289.381L986.466 307.251C985.244 309.084 982.037 309.847 976.844 309.542C975.317 309.542 972.109 309.542 967.222 309.542C942.785 308.32 911.78 308.167 874.208 309.084C870.542 309.389 867.64 309.542 865.502 309.542C855.116 309.847 849.312 309.084 848.09 307.251C847.48 306.334 847.785 302.822 849.007 296.712C850.534 289.992 852.061 286.174 853.589 285.257C855.116 284.646 860.615 284.341 870.084 284.341C887.19 284.035 896.812 282.814 898.95 280.675C899.867 280.064 910.864 237.605 931.941 153.296L963.098 27.7499L876.957 166.126C819.835 258.682 790.816 305.418 789.899 306.334C788.677 307.556 787.608 308.32 786.692 308.625C785.165 309.542 781.957 310 777.07 310C770.655 310 767.142 308.931 766.531 306.793C766.226 305.876 760.575 260.056 749.578 169.333C738.276 78.3045 732.625 32.6374 732.625 32.3319L677.183 254.1C674.433 264.791 673.059 270.442 673.059 271.053C673.059 278.995 682.986 283.425 702.842 284.341C707.729 284.341 710.784 284.646 712.006 285.257C713.838 285.868 714.755 287.243 714.755 289.381L710.173 307.251C708.951 309.084 705.896 309.847 701.009 309.542C699.787 309.542 697.191 309.542 693.219 309.542C672.448 308.32 646.636 308.167 615.784 309.084C612.729 309.389 610.286 309.542 608.453 309.542C599.594 309.847 594.554 309.084 593.332 307.251C592.721 306.334 593.027 302.822 594.249 296.712C595.776 290.297 597.151 286.479 598.372 285.257C599.289 284.646 601.427 284.341 604.787 284.341C617.922 284.341 628.919 282.355 637.777 278.384C643.581 275.024 646.941 271.817 647.858 268.762L708.798 25.9171C708.798 25.6117 708.493 25.1535 707.882 24.5425C706.66 23.9316 698.412 23.3207 683.139 22.7097H667.56L665.728 20.8769C664.506 19.6551 664.658 15.9895 666.186 9.8802C668.019 2.54903 669.393 -1.42202 670.31 -2.03297Z" fill="white"/>
<rect x="611" y="267" width="45" height="27" fill="white"/>
</g>
<path d="M625.476 283.479C648.052 284.637 678.587 284.927 717.081 284.349C726.034 284.145 733.396 283.976 739.166 283.844C739.924 284.54 740.672 285.512 741.001 286.5C741.241 287.222 741.257 289.959 741 291.5C739.999 297.5 738.5 305 736.5 306.5C735.374 307.344 733.773 307.713 732.231 307.874C721.688 308.038 714.467 308.445 710.568 309.095C705.938 309.674 703.043 310.831 701.886 312.567L641.54 553.951C641.54 554.53 642.119 554.964 643.276 555.254H672.364C693.781 555.254 707.818 554.386 714.475 552.649C715.054 552.649 715.634 552.504 716.213 552.215C735.894 547.584 752.102 537.309 764.837 521.391C772.941 511.261 781.623 493.75 790.885 468.859C793.489 461.914 795.226 458.296 796.095 458.006C798.121 456.559 802.897 456.414 810.422 457.571C811.579 457.571 812.303 457.716 812.593 458.006C814.329 458.585 815.197 459.887 815.197 461.913L773.953 577.829C773.374 578.987 769.612 579.565 762.666 579.565C753.983 579.855 719.541 580 659.34 580C584.956 580 547.33 579.711 546.462 579.132C545.594 578.264 545.015 577.54 544.725 576.961C544.436 575.803 544.87 572.475 546.028 566.976C547.765 561.187 548.922 557.859 549.501 556.99L551.238 555.688H565.999C582.206 555.398 591.323 554.241 593.349 552.215C594.218 551.636 604.638 511.405 624.608 431.522C644.577 351.646 654.563 311.415 654.564 310.831C654.564 310.542 654.274 310.107 653.695 309.528C652.536 308.95 644.722 308.371 630.252 307.792H615.491L614.188 306.489C612.452 305.331 612.452 301.279 614.188 294.333C615.635 288.255 617.083 284.782 618.53 283.914C619.109 283.625 621.425 283.479 625.476 283.479Z" fill="white"/>
<path d="M843.385 480.513H919.454L882.447 372.783H881.625L843.385 480.513ZM849.553 300.415H915.753L1025.54 594H958.516L936.312 528.622H826.526L803.5 594H738.533L849.553 300.415Z" fill="white"/>
<path d="M1236.73 565.829V580H1010V565.829H1052.51V310.754H1010V296.583H1222.56V310.754H1250.9V324.924H1265.08V395.779H1250.9V409.95H1236.73V424.12H1222.56V438.291H1250.9V452.462H1265.08V466.633H1279.25V537.487H1265.08V551.658H1250.9V565.829H1236.73ZM1123.37 424.12H1165.88V409.95H1194.22V381.608H1208.39V353.266H1194.22V324.924H1165.88V310.754H1109.2V324.924H1123.37V424.12ZM1109.2 565.829H1180.05V551.658H1208.39V523.317H1222.56V480.804H1208.39V452.462H1180.05V438.291H1123.37V551.658H1109.2V565.829Z" fill="white"/>
<g clip-path="url(#clip2_825_19669)">
<path fill-rule="evenodd" clip-rule="evenodd" d="M407.104 335.327H430.657V323.551H442.433V311.776H489.537V300H524.866V311.776H560.194V323.551H583.746V335.327H595.522V347.103H607.299V358.879H619.075V370.654H630.851V394.206H640.01V500.187H630.851V523.738H619.075V535.514H607.299V547.29H595.522V559.065H583.746V570.841H560.194V580H454.209V570.841H430.657V559.065H418.881V547.29H407.104V535.514H395.328V523.738H383.552V500.187H371.776V464.86H360V429.533H371.776V382.43H383.552V370.654H395.328V347.103H407.104V335.327ZM430.657 417.757V382.43H465.985V370.654H501.313V335.327H548.418V347.103H571.97V358.879H583.746V370.654H595.522V382.43H607.299V394.86H583.746V382.43H560.194V370.654H524.866V382.43H513.09V405.981H524.866V417.757H536.642V429.533H560.194V441.308H571.97V488.411H583.746V535.514H571.97V547.29H548.418V559.065H465.985V547.29H442.433V535.514H430.657V523.738H418.881V511.963H407.104V488.411H395.328V417.757H407.104V453.084H430.657V464.86H442.433V523.738H454.209V535.514H465.985V523.738H477.761V500.187H501.313V488.411H513.09V476.636H524.866V453.084H513.09V441.308H489.537V429.533H477.761V417.757H430.657Z" fill="white"/>
</g>
</g>
<defs>
<clipPath id="clip0_825_19669">
<rect width="1279" height="580" fill="white"/>
</clipPath>
<clipPath id="clip1_825_19669">
<rect width="432" height="313" fill="white" transform="translate(591 -3)"/>
</clipPath>
<clipPath id="clip2_825_19669">
<rect width="280" height="280" fill="white" transform="translate(360 300)"/>
</clipPath>
</defs>
</svg>
