<svg width="884" height="840" viewBox="0 0 884 840" fill="none" xmlns="http://www.w3.org/2000/svg">
<g clip-path="url(#clip0_596_8424)">
<path d="M276.737 33.8125C276.988 33.8278 277.188 33.8352 277.299 33.8428C277.423 33.8513 277.53 33.8647 277.638 33.917C277.732 33.9629 277.818 34.0358 277.908 34.1084C278.008 34.1886 278.149 34.3019 278.382 34.4629L278.503 34.5469L278.488 34.6943C278.39 35.6284 277.713 36.4722 276.787 37.2207C275.853 37.9755 274.621 38.6698 273.321 39.2949C272.02 39.921 270.64 40.4837 269.408 40.9717C268.171 41.4618 267.093 41.8731 266.375 42.2031C262.623 43.9698 258.897 45.794 255.2 47.6738H255.198C217.837 66.4094 183.515 90.6748 153.393 119.65C151.601 121.379 148.373 124.506 145.269 127.649C142.158 130.798 139.189 133.946 137.902 135.728L137.847 135.806L137.753 135.826C137.496 135.882 137.33 135.904 137.136 135.814C137.063 135.781 136.982 135.728 136.903 135.682C136.817 135.63 136.705 135.566 136.544 135.488L136.424 135.431L136.405 135.299C136.136 133.402 137.022 131.574 138.234 129.948C139.449 128.32 141.032 126.844 142.22 125.657C180.179 87.7548 226.787 54.3059 276.627 33.8311L276.681 33.8096L276.737 33.8125Z" fill="white" stroke="white" stroke-width="0.5"/>
<path d="M827.783 578.193L828.322 578.908L828.361 578.961L828.37 579.026C828.827 582.463 827.674 586.492 826.044 590.427C824.414 594.363 822.28 598.264 820.75 601.422C806.565 630.945 788.992 658.717 768.388 684.179L768.387 684.18C761.737 692.303 754.803 700.189 747.602 707.828L747.603 707.829C745.92 709.636 743.85 711.647 741.871 713.671C739.886 715.701 737.986 717.749 736.618 719.655L736.409 719.946L736.208 719.649C735.894 719.186 735.579 718.42 735.429 717.667C735.353 717.289 735.318 716.902 735.35 716.55C735.381 716.199 735.481 715.86 735.699 715.604L736.67 714.472C741.565 708.815 747.061 703.206 752.048 697.715C776.554 670.468 797.321 640.075 813.802 607.342L813.803 607.341C816.22 602.614 818.435 597.601 820.613 592.676C822.79 587.753 824.93 582.915 827.193 578.549L827.194 578.547L827.362 578.228L827.546 577.878L827.783 578.193Z" fill="white" stroke="white" stroke-width="0.5"/>
<path d="M136.971 703.765C137.244 703.925 137.635 704.238 138.106 704.651C138.581 705.068 139.15 705.6 139.783 706.211C141.048 707.433 142.573 708.977 144.114 710.562C147.2 713.738 150.347 717.072 151.642 718.353C155.774 722.389 159.992 726.34 164.29 730.204L165.653 731.42C179.772 743.947 194.719 755.516 210.392 766.036C229.626 778.863 249.87 790.143 270.99 799.548H270.991C273.194 800.532 275.613 801.557 277.62 802.962L277.621 802.963C278.138 803.327 278.289 803.976 278.331 804.571C278.352 804.877 278.346 805.189 278.334 805.477C278.323 805.77 278.308 806.027 278.307 806.247L278.306 806.641L277.95 806.473C265.452 800.566 255.372 796.198 242.812 789.484L242.811 789.483C211.54 772.588 182.529 751.807 156.47 727.638L156.469 727.637C150.324 721.912 143.15 715.38 137.754 708.967C137.011 708.082 136.622 707.363 136.475 706.578C136.33 705.803 136.427 704.99 136.597 703.94L136.656 703.579L136.971 703.765Z" fill="white" stroke="white" stroke-width="0.5"/>
<path d="M736.06 120.406C736.274 120.498 736.553 120.688 736.877 120.945C737.207 121.207 737.602 121.551 738.05 121.965C738.948 122.793 740.073 123.912 741.349 125.227C743.901 127.857 747.064 131.287 750.237 134.798C755.789 140.942 761.376 147.339 763.773 150.145L764.595 151.116L766.283 153.158C774.69 163.395 782.641 174.002 790.107 184.947L790.108 184.949C801.422 201.737 811.537 219.305 820.368 237.521H820.367C822.241 241.326 824.418 245.308 826.022 249.409C827.628 253.516 828.674 257.772 828.28 262.146L828.237 262.622L827.871 262.316C827.821 262.275 827.775 262.216 827.74 262.164C827.7 262.107 827.657 262.035 827.609 261.952C827.513 261.787 827.396 261.565 827.26 261.297C826.989 260.759 826.641 260.023 826.24 259.151C825.437 257.407 824.421 255.112 823.392 252.762C821.589 248.644 819.748 244.364 818.934 242.559L818.651 241.944C813.854 231.901 808.673 222.045 803.122 212.398L802.006 210.472C789.209 188.546 774.482 167.809 757.999 148.507L756.398 146.644C753.417 143.183 749.478 139.142 745.658 135.174C741.842 131.211 738.143 127.319 735.656 124.169L735.623 124.126L735.61 124.074C735.414 123.287 735.35 122.795 735.386 122.298C735.422 121.815 735.553 121.329 735.717 120.582L735.783 120.287L736.06 120.406Z" fill="white" stroke="white" stroke-width="0.5"/>
<path d="M551.209 821.931L552.089 822.293L552.188 822.333L552.227 822.433C552.337 822.715 552.405 822.865 552.46 823.003C552.509 823.125 552.553 823.244 552.542 823.382C552.531 823.505 552.476 823.624 552.426 823.74C552.37 823.87 552.292 824.053 552.192 824.343L552.176 824.39L552.144 824.427C551.884 824.722 551.424 825.01 550.826 825.298C550.219 825.589 549.442 825.891 548.521 826.202C546.678 826.824 544.236 827.487 541.384 828.168C535.68 829.531 528.314 830.973 520.761 832.311C505.659 834.985 489.788 837.247 484.937 837.631C482.073 837.858 478.338 837.986 474.61 838.186C470.873 838.386 467.138 838.66 464.244 839.181L464.171 839.193L464.105 839.166L463.436 838.893L463.337 838.853L463.298 838.753C463.176 838.445 463.085 838.254 463.022 838.113C462.963 837.983 462.909 837.858 462.903 837.721C462.897 837.582 462.942 837.454 462.991 837.32C463.044 837.176 463.12 836.982 463.221 836.67L463.243 836.604L463.295 836.558C463.422 836.448 463.611 836.27 463.806 836.126C463.999 835.984 464.245 835.837 464.508 835.816H464.509C484.956 834.34 505.292 832.032 525.377 827.887C534 826.104 542.489 824.014 551.055 821.919L551.134 821.9L551.209 821.931Z" fill="white" stroke="white" stroke-width="0.5"/>
<path d="M650.356 780.401L651.32 780.662L651.424 780.69L651.475 780.784L651.971 781.697L652.018 781.782L651.994 781.876C651.889 782.305 651.576 782.769 651.126 783.254C650.67 783.744 650.051 784.281 649.294 784.854C647.78 786.002 645.694 787.318 643.213 788.735C638.249 791.572 631.678 794.834 624.883 798.009C611.315 804.348 596.824 810.35 592.386 811.94L591.977 812.188L591.852 812.264L591.725 812.192L591.076 811.826L590.966 811.764L590.951 811.638L590.812 810.455L590.805 810.389L590.831 810.326C590.92 810.124 591.008 809.923 591.097 809.722C591.185 809.521 591.273 809.321 591.361 809.119L591.397 809.037L591.478 808.996C593.835 807.796 597.024 806.456 600.169 805.163C603.32 803.868 606.426 802.62 608.637 801.601C621.915 795.477 638.025 788.216 650.156 780.433L650.25 780.372L650.356 780.401Z" fill="white" stroke="white" stroke-width="0.5"/>
<path d="M591.634 27.4355C608.007 34.4045 624.422 40.6582 640.062 49.4756C640.998 50.0031 642.209 50.5671 643.512 51.1982C644.809 51.8268 646.19 52.5191 647.442 53.2939C648.693 54.0678 649.831 54.9332 650.636 55.915C651.443 56.9002 651.924 58.0148 651.828 59.2744L651.803 59.6094L651.489 59.4893C650.362 59.056 647.607 57.6036 644.801 56.085C641.982 54.5596 639.097 52.9596 637.681 52.2129C630.561 48.4698 623.374 44.8582 616.122 41.3809L613.01 39.8984C610.858 38.8838 606.071 37.0273 601.468 35.1572C599.17 34.2238 596.921 33.2885 595.079 32.4561C593.248 31.6283 591.79 30.89 591.097 30.3506L591.031 30.2998L591.009 30.2207C590.91 29.8648 590.832 29.6188 590.791 29.4541C590.747 29.2779 590.727 29.1373 590.762 28.9756C590.791 28.8374 590.863 28.6875 590.943 28.5029C591.029 28.3057 591.148 28.0251 591.3 27.585L591.387 27.3311L591.634 27.4355Z" fill="white" stroke="white" stroke-width="0.5"/>
<path d="M136.241 50.6738C136.499 50.9476 136.621 51.1096 136.708 51.3154C136.747 51.4105 136.779 51.5121 136.814 51.624C136.85 51.739 136.893 51.8783 136.961 52.0635L136.986 52.1299L136.972 52.2002C136.908 52.5132 136.875 52.7533 136.839 52.9678C136.805 53.1762 136.766 53.3676 136.688 53.5459C136.524 53.9192 136.207 54.1801 135.584 54.5479V54.5488C122.63 62.1969 109.735 69.7862 97.4624 78.5088C94.9472 80.2968 92.6609 81.8287 90.3628 83.8896L90.1313 84.0977L89.978 83.8262C89.6223 83.1939 89.4208 82.8528 89.3423 82.4824C89.2642 82.1136 89.3089 81.7172 89.3677 80.9941L89.3716 80.9463L89.3931 80.9043C89.5608 80.563 89.8692 80.1682 90.2827 79.7324C90.6993 79.2934 91.2354 78.7991 91.8726 78.2598C93.147 77.1811 94.8382 75.9099 96.8149 74.5156C100.77 71.7261 105.883 68.4328 111.125 65.1865C121.607 58.6944 132.619 52.3781 135.943 50.625L136.111 50.5361L136.241 50.6738Z" fill="white" stroke="white" stroke-width="0.5"/>
<path d="M747.101 756.229C747.01 756.255 746.864 756.332 746.699 756.426C746.523 756.526 746.294 756.664 746.021 756.834C745.472 757.174 744.736 757.647 743.872 758.212C742.143 759.342 739.893 760.844 737.573 762.404C735.253 763.964 732.863 765.582 730.857 766.942C728.851 768.303 727.229 769.405 726.443 769.934C722.725 772.432 718.198 775.081 713.655 777.765C709.117 780.446 704.563 783.162 700.804 785.787C700.287 786.148 700.097 786.701 700.027 787.256C699.96 787.797 700.001 788.415 699.995 788.904L699.991 789.25L700.321 789.146C702.159 788.559 705.539 786.784 709.667 784.384C713.805 781.978 718.719 778.93 723.637 775.778C733.471 769.477 743.335 762.755 747.051 759.933V759.932C747.295 759.745 747.435 759.478 747.513 759.191C747.59 758.906 747.61 758.585 747.603 758.266C747.589 757.641 747.465 756.925 747.42 756.445L747.392 756.144L747.101 756.229Z" fill="white" stroke="white" stroke-width="0.5"/>
<path d="M89.061 192.852L89.603 193.592L89.6401 193.643L89.6489 193.706C89.7258 194.277 89.8236 194.998 89.8325 195.709C89.8414 196.415 89.7633 197.146 89.4634 197.721C85.9407 204.47 81.7046 211.3 77.6772 218.21C73.6463 225.127 69.8199 232.131 67.0981 239.257L66.978 239.571L66.7124 239.365C66.3317 239.072 66.0924 238.872 65.9478 238.6C65.8075 238.335 65.766 238.017 65.6948 237.548C65.5511 236.599 65.7472 235.296 66.1831 233.754C66.6212 232.204 67.3107 230.383 68.1792 228.387C69.9167 224.393 72.3819 219.673 75.0239 214.973C80.308 205.572 86.3124 196.223 88.6548 192.856L88.855 192.568L89.061 192.852Z" fill="white" stroke="white" stroke-width="0.5"/>
<path d="M43.5947 287.9L44.1475 288.65L44.1885 288.706L44.1953 288.775C44.6831 294.132 43.013 301.273 40.9941 308.461C38.9685 315.673 36.5899 322.939 35.6143 328.617C35.3066 330.408 34.9404 333.026 34.5537 335.592C34.1681 338.151 33.7613 340.662 33.375 342.221L33.1729 343.038L32.8965 342.242C31.8403 339.202 31.7171 335.045 32.1729 330.354C32.6292 325.658 33.6693 320.398 34.9629 315.138C37.55 304.617 41.1572 294.066 43.1562 287.971L43.3076 287.51L43.5947 287.9Z" fill="white" stroke="white" stroke-width="0.5"/>
<path d="M33.1572 498.293C33.2867 498.475 33.3974 498.759 33.4971 499.091C33.599 499.43 33.6975 499.847 33.792 500.314C33.9811 501.251 34.1592 502.408 34.3262 503.591C34.662 505.969 34.9512 508.43 35.1953 509.49L35.832 512.132C37.3315 518.293 38.9222 524.434 40.6025 530.55H40.6016C41.4371 533.557 42.6842 537.304 43.5 541.042C44.3159 544.781 44.7159 548.568 43.835 551.68L43.7061 552.135L43.4023 551.772C43.0191 551.314 42.5857 550.415 42.1182 549.223C41.6462 548.019 41.1273 546.483 40.583 544.724C39.4943 541.204 38.2975 536.773 37.1533 532.275C34.8647 523.279 32.7837 514.001 32.2012 511.181C31.9456 509.941 31.9464 507.426 32.0703 504.903C32.1947 502.372 32.4459 499.787 32.708 498.393L32.8164 497.815L33.1572 498.293Z" fill="white" stroke="white" stroke-width="0.5"/>
<path d="M66.4106 600.697L67.2036 601.282L67.2593 601.323L67.2856 601.386C72.9113 614.756 81.388 627.522 88.4419 640.286L89.1196 641.521L89.1997 641.678C89.5848 642.476 89.7226 643.484 89.7505 644.472C89.7804 645.53 89.6844 646.599 89.606 647.419L89.5513 647.984L89.1714 647.563C88.9372 647.304 88.8107 647.169 88.7407 647.095C88.7077 647.059 88.681 647.031 88.6626 647.009C88.641 646.983 88.6157 646.949 88.5981 646.901C88.5793 646.85 88.5944 646.869 88.5562 646.791C88.5166 646.711 88.4315 646.559 88.2476 646.267L88.2466 646.266C82.4564 636.952 76.696 627.552 71.5229 617.864C70.0799 615.164 68.4653 612.514 67.3364 609.76C66.2032 606.994 65.545 604.094 66.0151 600.862L66.0757 600.449L66.4106 600.697Z" fill="white" stroke="white" stroke-width="0.5"/>
<path d="M308.522 104.727C308.523 105.252 308.282 105.866 307.896 106.524C307.506 107.19 306.948 107.932 306.278 108.721C304.936 110.299 303.119 112.092 301.211 113.876C299.304 115.66 297.297 117.442 295.581 118.999C293.858 120.561 292.435 121.889 291.675 122.772C289.797 124.957 287.534 127.046 285.301 129.189C283.064 131.338 280.852 133.545 279.047 135.983L278.894 136.19L278.692 136.031C278.442 135.834 278.244 135.692 278.132 135.601C278.007 135.498 277.909 135.399 277.853 135.245C277.807 135.119 277.794 134.96 277.774 134.779C277.752 134.583 277.717 134.304 277.634 133.887L277.624 133.834L277.636 133.781C277.807 133.051 278.325 132.11 279.082 131.029C279.843 129.941 280.864 128.687 282.065 127.327C284.468 124.606 287.606 121.446 290.874 118.315C297.41 112.054 304.477 105.897 307.242 103.593L307.369 103.487L307.516 103.562C307.819 103.717 307.98 103.795 308.098 103.955C308.148 104.023 308.192 104.11 308.239 104.193C308.29 104.286 308.361 104.411 308.48 104.589L308.522 104.651V104.727Z" fill="white" stroke="white" stroke-width="0.5"/>
<path d="M734.98 109.44L735.501 109.683L735.597 109.728L735.632 109.826C735.902 110.591 735.996 111.247 735.874 111.882C735.751 112.515 735.417 113.097 734.889 113.726V113.727C731.831 117.367 727.68 121.074 723.667 124.799C719.644 128.533 715.758 132.286 713.189 136.04L713.03 136.272L712.818 136.087C712.155 135.507 712.012 134.67 712.212 133.719C712.411 132.774 712.955 131.671 713.73 130.477C715.283 128.084 717.818 125.247 720.602 122.436C726.17 116.814 732.802 111.237 734.706 109.483L734.829 109.37L734.98 109.44Z" fill="white" stroke="white" stroke-width="0.5"/>
<path d="M712.442 703.762C713.023 704.11 713.8 704.788 714.664 705.624C715.532 706.464 716.505 707.481 717.485 708.524C719.451 710.618 721.434 712.806 722.677 713.929C725.059 716.071 727.608 718.753 729.991 721.103L731 722.087C731.752 722.81 732.442 723.405 733.064 723.968C733.682 724.527 734.231 725.055 734.675 725.63C735.578 726.799 736.03 728.141 735.855 730.306L735.825 730.688L735.487 730.506C735.1 730.296 734.512 729.858 733.786 729.262C733.054 728.661 732.167 727.887 731.177 726.992C729.198 725.202 726.8 722.925 724.399 720.576C719.901 716.176 715.372 711.511 713.547 709.333L713.219 708.932C712.477 707.994 712.084 707.302 711.936 706.548C711.79 705.802 711.891 705.022 712.067 703.937L712.125 703.572L712.442 703.762Z" fill="white" stroke="white" stroke-width="0.5"/>
<path d="M699.574 698.353C699.902 698.516 700.144 698.746 700.294 699.04C700.443 699.331 700.492 699.667 700.47 700.026C700.425 700.737 700.092 701.59 699.578 702.52C698.546 704.385 696.723 706.668 694.702 708.94C692.678 711.216 690.444 713.494 688.58 715.354C686.709 717.219 685.224 718.65 684.68 719.248L684.563 719.375L684.403 719.312C684.353 719.293 684.314 719.284 684.234 719.258C684.167 719.236 684.08 719.204 683.997 719.147C683.747 718.977 683.548 718.792 683.408 718.562C683.267 718.331 683.196 718.072 683.173 717.77V717.769C683.137 717.283 683.348 716.674 683.696 716.003C684.051 715.321 684.57 714.534 685.202 713.683C686.468 711.978 688.207 709.986 690.041 708C691.876 706.013 693.813 704.025 695.477 702.329C697.143 700.631 698.531 699.23 699.277 698.408L699.404 698.269L699.574 698.353Z" fill="white" stroke="white" stroke-width="0.5"/>
<path d="M684.002 120.474C684.762 120.9 685.961 121.931 687.349 123.262C688.745 124.6 690.354 126.262 691.943 127.969C695.117 131.38 698.222 134.989 699.377 136.574C700.071 137.527 700.437 138.228 700.564 138.982C700.69 139.73 700.577 140.504 700.38 141.581L700.311 141.96L699.994 141.742C699.692 141.536 699.151 141.035 698.51 140.4C697.862 139.759 697.094 138.962 696.329 138.149C694.8 136.526 693.272 134.824 692.737 134.147C692.019 133.239 691.001 132.253 689.889 131.199C688.782 130.151 687.585 129.04 686.53 127.896C685.475 126.752 684.548 125.561 683.986 124.347C683.422 123.128 683.219 121.87 683.643 120.611L683.74 120.326L684.002 120.474Z" fill="white" stroke="white" stroke-width="0.5"/>
<path d="M411.486 11.2207L412.66 11.6455L412.783 11.6895L412.816 11.8164C412.848 11.9345 412.875 12.0303 412.898 12.1104C412.921 12.1887 412.941 12.2572 412.956 12.3145C412.985 12.4289 413.006 12.5442 412.969 12.6748C412.939 12.78 412.87 12.8852 412.81 12.9854C412.74 13.0998 412.643 13.2628 412.515 13.5215L412.486 13.5791L412.433 13.6162C411.644 14.1592 410.243 14.7211 408.546 15.2793C406.839 15.8406 404.803 16.4071 402.722 16.9512C398.549 18.0423 394.211 19.0411 391.917 19.7451L391.896 19.752L391.873 19.7549C391.774 19.7665 391.665 19.7446 391.58 19.7227C391.487 19.6987 391.386 19.6646 391.29 19.6289C391.193 19.593 391.096 19.5534 391.011 19.5186C390.923 19.4828 390.851 19.453 390.797 19.4326L390.666 19.3828L390.64 19.2461C390.568 18.8805 390.509 18.6517 390.47 18.4834C390.432 18.3249 390.402 18.1857 390.421 18.042C390.44 17.8984 390.505 17.7709 390.582 17.627C390.663 17.4742 390.779 17.2674 390.941 16.9316L390.971 16.8691L391.028 16.8311C391.889 16.2626 393.325 15.684 395.037 15.123C396.756 14.5598 398.778 14.0071 400.829 13.498C404.932 12.4799 409.165 11.6319 411.354 11.2109L411.421 11.1973L411.486 11.2207Z" fill="white" stroke="white" stroke-width="0.5"/>
<path d="M390.609 819.862C395.897 820.765 406.289 823.617 411.604 825.612L411.839 825.714C412.354 825.971 412.65 826.36 412.837 826.796C413.041 827.272 413.12 827.827 413.218 828.284L413.286 828.605L412.958 828.586C410.958 828.467 406.501 827.624 402.076 826.529C399.86 825.981 397.645 825.368 395.742 824.747C393.844 824.128 392.238 823.496 391.251 822.906C390.752 822.608 390.552 822.134 390.459 821.642C390.413 821.397 390.391 821.139 390.374 820.887C390.357 820.63 390.344 820.382 390.318 820.135L390.284 819.807L390.609 819.862Z" fill="white" stroke="white" stroke-width="0.5"/>
<path d="M568.228 824.572C568.78 824.646 569.219 824.978 569.758 825.673L569.85 825.792L569.788 825.93C569.614 826.316 569.299 826.659 568.9 826.968C568.5 827.277 568.002 827.56 567.439 827.82C566.315 828.34 564.91 828.78 563.46 829.15C560.569 829.89 557.447 830.368 555.974 830.655L553.936 831.18L553.873 831.195L553.812 831.18C553.213 831.027 552.887 830.943 552.604 830.77C552.329 830.6 552.095 830.345 551.66 829.912L551.559 829.811L551.595 829.672L551.78 828.957L551.802 828.874L551.869 828.821C552.49 828.344 553.513 827.903 554.721 827.5C555.936 827.094 557.364 826.717 558.817 826.377C561.719 825.697 564.749 825.155 566.37 824.816L566.374 824.815C566.759 824.741 567.107 824.663 567.396 824.614C567.69 824.565 567.963 824.537 568.228 824.572Z" fill="white" stroke="white" stroke-width="0.5"/>
<path d="M551.949 8.47461C553.21 8.48232 556.737 9.02758 560.246 9.76367C562.005 10.1328 563.769 10.5518 565.254 10.9795C566.73 11.4044 567.959 11.8453 568.625 12.2656C569.172 12.61 569.389 13.0812 569.472 13.5908C569.513 13.8393 569.521 14.0988 569.524 14.3545C569.527 14.6166 569.522 14.8678 569.533 15.1299L569.544 15.4189L569.256 15.3877C567.614 15.2133 564.131 14.5513 560.715 13.7666C557.307 12.9838 553.92 12.069 552.487 11.3828L552.432 11.3564L552.395 11.3076C552.277 11.1511 552.178 11.0253 552.096 10.9209C552.015 10.8176 551.946 10.7311 551.892 10.6582C551.783 10.512 551.705 10.3875 551.674 10.2227C551.648 10.0788 551.662 9.91325 551.674 9.71289C551.687 9.49854 551.703 9.19429 551.697 8.72754L551.694 8.47266L551.949 8.47461Z" fill="white" stroke="white" stroke-width="0.5"/>
<path d="M346.525 752.327C346.941 752.801 347.119 753.334 347.096 753.898C347.073 754.455 346.856 755.026 346.517 755.594C345.84 756.726 344.635 757.908 343.282 759.024C341.925 760.144 340.398 761.215 339.061 762.122C337.715 763.035 336.575 763.773 335.966 764.242L335.729 764.424L335.592 764.159C335.416 763.821 335.169 763.406 335.026 762.979C334.88 762.54 334.829 762.049 335.061 761.542C335.402 760.797 336.134 759.955 337.047 759.097C337.966 758.233 339.092 757.33 340.247 756.465C342.548 754.743 345.018 753.133 346.192 752.289L346.376 752.157L346.525 752.327Z" fill="white" stroke="white" stroke-width="0.5"/>
<path d="M60.439 578.179C61.1505 578.985 61.3255 580.241 61.2173 581.654C61.1082 583.079 60.706 584.727 60.1919 586.38C59.6772 588.035 59.0462 589.706 58.4722 591.181C57.8959 592.661 57.3815 593.933 57.0923 594.804L56.9556 595.215L56.6675 594.891C55.8112 593.925 55.4969 592.6 55.5142 591.14C55.5315 589.677 55.8806 588.048 56.3872 586.436C57.4008 583.21 59.0595 579.998 60.0327 578.224L60.2036 577.911L60.439 578.179Z" fill="white" stroke="white" stroke-width="0.5"/>
<path d="M699.962 797.942C700.577 797.957 701.478 798.183 702.493 798.522C703.516 798.864 704.681 799.33 705.834 799.841C708.131 800.859 710.413 802.072 711.438 802.861H711.437C712.031 803.316 712.282 803.74 712.364 804.238C712.403 804.475 712.402 804.72 712.394 804.972C712.385 805.229 712.368 805.491 712.368 805.798V806.064L712.102 806.048C711.624 806.017 710.82 805.788 709.885 805.463C708.939 805.134 707.828 804.697 706.723 804.228C704.521 803.293 702.308 802.222 701.46 801.643C700.691 801.117 700.328 800.686 700.125 800.146C700.027 799.886 699.969 799.609 699.914 799.306C699.858 798.997 699.803 798.657 699.712 798.246L699.643 797.935L699.962 797.942Z" fill="white" stroke="white" stroke-width="0.5"/>
<path d="M56.0576 245.586C56.4918 245.745 56.705 245.904 56.9756 246.113L57.2754 246.34L57.3281 246.379L57.3555 246.438C58.6865 249.334 59.6993 251.589 60.332 253.923C60.9664 256.263 61.2177 258.676 61.042 261.896L61.0195 262.291L60.6729 262.104L60.0244 261.751L59.9619 261.718L59.9268 261.657C57.3738 257.241 55.5676 250.978 55.7217 245.812L55.7324 245.467L56.0576 245.586Z" fill="white" stroke="white" stroke-width="0.5"/>
<path d="M365.724 7.03809C366.027 7.04163 366.237 7.03942 366.379 7.0459C366.531 7.05277 366.65 7.07047 366.774 7.13184C366.879 7.18394 366.983 7.26796 367.104 7.3584C367.235 7.4566 367.422 7.59278 367.723 7.78223L367.854 7.86523L367.838 8.01953L367.763 8.74512L367.754 8.83008L367.695 8.8916C367.237 9.37187 366.583 9.76275 365.838 10.0879C365.091 10.4142 364.237 10.6817 363.365 10.9072C361.628 11.3566 359.775 11.6507 358.542 11.9053L358.508 11.9121L358.474 11.9092L357.359 11.832L357.239 11.8242L357.17 11.7246L356.42 10.6387L356.355 10.543L356.385 10.4307L356.601 9.64746L356.62 9.57812L356.673 9.5293C357.707 8.5832 359.32 8.05607 360.968 7.71777C362.621 7.37866 364.371 7.21823 365.687 7.04004L365.706 7.03809H365.724Z" fill="white" stroke="white" stroke-width="0.5"/>
<path d="M356.613 827.996C357.788 828.019 360.02 828.149 362.16 828.488C363.229 828.658 364.283 828.881 365.172 829.172C365.943 829.424 366.619 829.735 367.071 830.128L367.25 830.302C367.544 830.619 367.628 830.959 367.644 831.321C367.652 831.497 367.645 831.683 367.637 831.872C367.629 832.064 367.621 832.265 367.625 832.485L367.63 832.746L367.371 832.74C364.24 832.673 360.176 832.15 357.263 830.916L357.205 830.892L357.165 830.841C356.902 830.51 356.748 830.335 356.621 830.177C356.504 830.032 356.415 829.909 356.375 829.746C356.338 829.599 356.346 829.433 356.353 829.232C356.36 829.019 356.371 828.717 356.358 828.253L356.35 827.991L356.613 827.996Z" fill="white" stroke="white" stroke-width="0.5"/>
<path d="M589.473 14.8857C589.857 15.01 590.111 15.0748 590.291 15.1191C590.457 15.1602 590.602 15.1924 590.719 15.2539C590.854 15.3249 590.942 15.4262 591.037 15.5547C591.084 15.6188 591.139 15.6984 591.205 15.792C591.271 15.8869 591.352 16.0006 591.453 16.1387L591.54 16.2568L591.479 16.3896L591.05 17.3408L591.025 17.3965L590.976 17.4346C589.147 18.8632 588.095 18.9786 585.959 19.4961C585.739 19.5532 585.564 19.6018 585.454 19.6299C585.333 19.6607 585.238 19.6808 585.135 19.6895C585.034 19.698 584.935 19.6948 584.806 19.6865C584.671 19.6778 584.511 19.665 584.253 19.6494L584.069 19.6377L584.025 19.458C583.967 19.2182 583.921 19.0478 583.897 18.9336C583.871 18.8108 583.858 18.7041 583.885 18.583C583.908 18.4832 583.959 18.3776 584.007 18.2686C584.061 18.147 584.135 17.9733 584.23 17.6982L584.248 17.6455L584.287 17.6055C585.163 16.7035 585.845 16.2045 586.608 15.8389C587.358 15.4794 588.187 15.2505 589.32 14.8857L589.396 14.8613L589.473 14.8857Z" fill="white" stroke="white" stroke-width="0.5"/>
<path d="M584.186 819.881C586.066 820.108 587.707 820.268 588.954 820.896C589.587 821.216 590.123 821.656 590.543 822.285C590.963 822.912 591.26 823.713 591.436 824.744L591.498 825.106L591.137 825.03C590.26 824.844 589.425 824.717 588.608 824.559C587.804 824.403 587.04 824.219 586.373 823.925C585.701 823.629 585.119 823.218 584.687 822.604C584.255 821.99 583.986 821.192 583.907 820.147L583.883 819.845L584.186 819.881Z" fill="white" stroke="white" stroke-width="0.5"/>
<path d="M569.147 19.7295C569.98 19.8929 570.7 20.0266 571.312 20.1885C571.926 20.3509 572.452 20.5461 572.894 20.8447C573.796 21.4543 574.284 22.4467 574.583 24.2207L574.641 24.5684L574.293 24.5088C572.561 24.2095 571.183 24.1453 569.643 23.1338L569.598 23.1045L569.57 23.0605C569.336 22.6983 569.17 22.4458 569.059 22.248C568.944 22.0443 568.876 21.8799 568.845 21.6885C568.816 21.5075 568.822 21.3126 568.831 21.0635C568.84 20.808 568.853 20.4705 568.848 19.9775L568.845 19.6699L569.147 19.7295Z" fill="white" stroke="white" stroke-width="0.5"/>
<path d="M573.01 815.476C573.219 815.526 573.369 815.559 573.471 815.589C573.582 815.621 573.673 815.658 573.76 815.732C573.83 815.792 573.896 815.877 573.963 815.957C574.039 816.047 574.148 816.173 574.328 816.354L574.423 816.45L574.395 816.583L574.226 817.365L574.213 817.429L574.17 817.478C573.488 818.259 573.084 818.675 572.602 819.013C572.127 819.346 571.581 819.6 570.64 820.069L570.532 820.123L570.422 820.072C570.088 819.916 569.871 819.829 569.714 819.763C569.566 819.7 569.439 819.645 569.334 819.552C569.229 819.458 569.161 819.338 569.083 819.196C569.002 819.047 568.894 818.842 568.707 818.526L568.648 818.428L569.02 817.312L569.068 817.269C569.797 816.597 570.247 816.249 570.785 816.021C571.308 815.798 571.909 815.693 572.897 815.475L572.954 815.462L573.01 815.476Z" fill="white" stroke="white" stroke-width="0.5"/>
<path d="M862.112 441.148L862.088 441.198C861.763 441.904 861.496 443.155 861.276 444.732C861.057 446.3 860.888 448.161 860.749 450.068C860.47 453.871 860.305 457.879 860.086 460.041C859.405 467.314 858.533 474.57 857.481 481.801V481.802C855.444 495.212 852.813 508.529 849.597 521.712V521.714C847.281 530.973 844.648 538.954 842.751 548.373L842.262 548.379C841.06 543.039 841.714 537.313 842.984 531.583C843.619 528.717 844.41 525.844 845.204 523.014C845.997 520.182 846.792 517.394 847.441 514.688L848.041 512.096C849.419 506.042 850.653 499.955 851.742 493.845L852.17 491.398C854.278 479.16 855.905 466.843 857.052 454.478C859.684 422.207 858.57 389.734 853.727 357.716C851.33 341.839 848.261 326.425 843.86 311.009C843.244 308.848 842.328 305.611 841.825 302.398C841.573 300.792 841.423 299.184 841.466 297.715C841.51 296.248 841.747 294.901 842.283 293.828L842.431 293.531L842.675 293.755L843.151 294.191L843.212 294.248L843.227 294.331C843.835 297.663 844.783 301.129 845.795 304.609C846.807 308.085 847.883 311.579 848.743 314.945L848.744 314.946C851.665 326.536 854.131 338.235 856.138 350.018C857.873 359.818 859.144 369.695 859.957 379.614L860.034 380.543C860.214 382.909 860.406 386.608 860.685 390.194C860.845 392.251 861.034 394.277 861.266 396.015C861.499 397.758 861.772 399.19 862.096 400.069L862.112 400.111V441.148Z" fill="white" stroke="white" stroke-width="0.5"/>
<path d="M30.2222 338.745C30.8621 340.461 31.0444 343.474 30.9604 347.124C30.8761 350.789 30.5214 355.14 30.062 359.559C29.6025 363.979 29.038 368.472 28.5337 372.422C28.0291 376.374 27.5857 379.778 27.3667 382.027C26.7472 389.111 26.2882 396.208 25.9897 403.312C25.4033 419.792 25.7053 436.291 26.894 452.737L27.0103 454.123C27.6415 461.166 28.9512 469.909 29.8774 478.531C30.8631 487.706 31.4127 496.731 30.2153 503.296L29.7222 503.282C27.9023 488.755 25.1515 474.887 23.9419 460.241C23.8738 459.417 23.7804 457.882 23.6626 456.021C23.5447 454.159 23.4028 451.965 23.2358 449.813C23.0688 447.662 22.8774 445.555 22.6626 443.869C22.5552 443.026 22.4417 442.291 22.3237 441.709C22.2037 441.118 22.0835 440.713 21.9722 440.51L21.9419 440.453V397.507L21.9771 397.448C22.4346 396.677 22.6636 395.497 22.7925 394.229C22.9217 392.958 22.9449 391.681 23.021 390.668C24.1159 376.089 25.682 361.591 28.3159 347.193C28.5379 345.98 28.648 344.443 28.8286 342.9C29.007 341.377 29.2543 339.851 29.7603 338.729L30.0103 338.176L30.2222 338.745Z" fill="white" stroke="white" stroke-width="0.5"/>
<path d="M464.505 -0.25L464.574 -0.197266C464.633 -0.150688 464.75 -0.0902763 464.943 -0.0234375C465.13 0.0416699 465.37 0.107002 465.659 0.171875C466.235 0.301551 466.987 0.42635 467.867 0.544922C469.624 0.781936 471.87 0.993712 474.184 1.18164C478.801 1.55654 483.71 1.83678 485.497 2.03125H485.498C505.183 4.20204 524.708 7.65712 543.948 12.374L543.95 12.375C545.361 12.7283 547.218 13.0652 548.865 13.5957C550.508 14.1252 552.043 14.8741 552.786 16.1113L552.84 16.2031L552.813 16.3057L552.602 17.0879L552.571 17.2051L552.459 17.2529C552.288 17.326 552.068 17.3643 551.823 17.3818C551.573 17.3996 551.279 17.3973 550.95 17.3779C550.29 17.3391 549.469 17.2318 548.542 17.0771C546.685 16.7676 544.379 16.2619 542.04 15.7061C537.93 14.7298 533.734 13.6041 531.607 13.0918L530.829 12.9121C516.904 9.90156 502.837 7.60052 488.677 6.01758V6.0166C481.012 5.20028 473.302 4.52796 465.603 4.18555C464.686 4.14484 463.724 3.71732 463.082 3.04688L463.021 2.9834L463.013 2.89746C462.938 2.08875 462.901 1.7381 463.013 1.38281C463.068 1.21023 463.155 1.04032 463.267 0.825195C463.382 0.605364 463.533 0.319045 463.73 -0.105469L463.796 -0.25H464.505Z" fill="white" stroke="white" stroke-width="0.5"/>
<path d="M460.621 -0.25L460.687 -0.0996094C460.854 0.28584 460.999 0.589795 461.124 0.864258C461.247 1.13445 461.349 1.37645 461.417 1.61523C461.558 2.11256 461.541 2.57192 461.331 3.25977L461.287 3.40625L461.137 3.43262C459.706 3.69158 457.507 3.71573 455.294 3.68262C453.066 3.64927 450.82 3.55802 449.253 3.57812C440.643 3.68861 431.908 3.17561 423.347 3.78711C422.459 3.85052 421.716 3.94787 421.075 3.90137C420.408 3.85297 419.829 3.65026 419.234 3.12012L419.138 3.03418L419.152 2.90625C419.24 2.10885 419.356 1.70348 419.609 1.30469C419.73 1.11463 419.88 0.929291 420.057 0.709961C420.235 0.487975 420.45 0.220166 420.715 -0.146484L420.789 -0.25H460.621Z" fill="white" stroke="white" stroke-width="0.5"/>
<path d="M426.88 835.979C430.844 835.951 435.934 835.987 440.973 836.056C446.013 836.125 451.004 836.227 454.772 836.333C456.655 836.386 458.234 836.441 459.361 836.492C459.924 836.518 460.376 836.543 460.698 836.567C460.858 836.579 460.989 836.591 461.085 836.603C461.133 836.608 461.177 836.615 461.212 836.622C461.236 836.627 461.294 836.639 461.344 836.668L461.48 836.746L461.468 836.902C461.414 837.624 461.375 838.012 461.29 838.384C461.205 838.752 461.076 839.103 460.854 839.746L460.795 839.914H419.901L419.843 839.745C419.694 839.311 419.569 838.998 419.467 838.746C419.367 838.497 419.285 838.292 419.233 838.091C419.123 837.667 419.153 837.277 419.304 836.487L419.331 836.346L419.467 836.299C419.635 836.241 419.945 836.199 420.342 836.164C420.751 836.128 421.284 836.098 421.921 836.073C423.196 836.023 424.899 835.994 426.88 835.979Z" fill="white" stroke="white" stroke-width="0.5"/>
<path d="M682.287 -0.25L682.273 0.0126953C682.239 0.697915 682.238 1.17119 682.161 1.61914C682.082 2.08159 681.925 2.51868 681.59 3.16797L681.542 3.26172L681.441 3.29297C681.169 3.37664 680.752 3.52282 680.407 3.52637H680.401C678.157 3.50327 675.843 3.5412 673.529 3.57324C671.217 3.60527 668.905 3.63166 666.669 3.58691C665.446 3.56248 662.428 3.72156 659.545 3.78027C658.111 3.80947 656.715 3.81367 655.609 3.75586C655.057 3.72698 654.571 3.68228 654.187 3.61621C653.994 3.58318 653.822 3.54439 653.677 3.49707C653.536 3.45096 653.402 3.39102 653.302 3.30859L653.212 3.23535L653.21 3.12012C653.195 2.29947 653.256 1.88369 653.478 1.45801C653.582 1.2567 653.721 1.05668 653.886 0.817383C654.053 0.574705 654.255 0.27822 654.504 -0.129883L654.577 -0.25H682.287Z" fill="white" stroke="white" stroke-width="0.5"/>
<path d="M335.629 -0.25L335.601 0.0253906C335.553 0.495104 335.537 0.859744 335.524 1.16406C335.512 1.4643 335.502 1.72164 335.464 1.95508C335.382 2.45141 335.175 2.82735 334.649 3.41016L334.578 3.48926L334.471 3.49219C332.434 3.55104 326.763 3.6605 321.201 3.69336C318.42 3.70979 315.665 3.70681 313.403 3.66895C311.15 3.63121 309.367 3.55872 308.546 3.43164L308.369 3.4043L308.338 3.22852C308.194 2.41584 308.168 2.02113 308.29 1.59375C308.348 1.39079 308.439 1.1844 308.549 0.932617C308.661 0.676834 308.801 0.357835 308.969 -0.0878906L309.029 -0.25H335.629Z" fill="white" stroke="white" stroke-width="0.5"/>
<path d="M326.813 835.957C329.548 835.882 332.283 835.964 334.263 836.648L334.649 836.794L334.706 836.816L334.745 836.863C335.197 837.397 335.396 837.673 335.471 838.056C335.506 838.234 335.514 838.431 335.524 838.669C335.534 838.912 335.546 839.22 335.586 839.643L335.613 839.917H308.382L308.357 839.695C308.306 839.252 308.247 838.917 308.199 838.64C308.151 838.367 308.11 838.135 308.099 837.918C308.077 837.454 308.197 837.075 308.558 836.424L308.607 836.335L308.705 836.306C309.933 835.937 311.795 835.908 313.654 835.974C314.589 836.007 315.534 836.064 316.41 836.118C317.288 836.172 318.094 836.222 318.761 836.241C320.922 836.302 323.864 836.038 326.813 835.957Z" fill="white" stroke="white" stroke-width="0.5"/>
<g clip-path="url(#clip1_596_8424)">
<path d="M438.642 43.752H441.298L441.293 101.6L441.297 122.74C441.298 126.577 441.2 130.998 441.363 134.793C441.324 135.139 441.207 135.824 441.297 136.128C441.285 136.499 441.252 137.028 441.303 137.381C441.304 137.836 441.366 139.82 441.28 140.136C441.28 140.476 441.261 141.107 441.287 141.423L441.249 142.847C441.259 143.104 441.267 143.822 441.301 144.04C441.3 144.777 441.335 146.113 441.238 146.794L441.303 147.988C441.293 148.237 441.271 149.245 441.236 149.432L441.296 150.676C441.293 151.528 441.309 152.473 441.274 153.317L441.271 154.539C441.287 155.099 441.281 155.484 441.25 156.043C441.262 156.358 441.264 156.958 441.298 157.247L441.293 159.872C441.281 160.302 441.251 160.831 441.278 161.252C441.295 161.741 441.281 162.164 441.263 162.65L441.278 163.867C441.32 164.111 441.321 166.289 441.28 166.498C441.279 166.87 441.259 167.441 441.281 167.795C441.274 168.114 441.278 168.938 441.244 169.215L441.293 170.392C441.294 171.242 441.327 172.322 441.283 173.152C441.28 173.543 441.262 174.04 441.281 174.422C441.277 174.893 441.27 175.364 441.261 175.834C441.267 176.111 441.266 176.8 441.303 177.041C441.297 177.895 441.311 178.833 441.279 179.681L441.272 180.906C441.279 181.394 441.278 181.813 441.257 182.302C441.263 182.654 441.253 183.346 441.288 183.669C441.292 184.487 441.329 185.587 441.27 186.38L441.28 187.614C441.291 188.078 441.284 188.543 441.26 189.007L441.279 190.233C441.305 190.552 441.344 192.662 441.278 192.863C441.279 193.192 441.261 193.849 441.289 194.148C441.284 194.409 441.277 195.511 441.242 195.706C441.256 195.987 441.271 196.641 441.311 196.89C441.286 197.762 441.278 198.637 441.286 199.511L441.267 200.79L441.235 202.119L441.293 203.397C441.288 204.317 441.271 205.236 441.243 206.155L441.295 207.401C441.288 208.29 441.294 209.212 441.249 210.098C441.258 210.43 441.252 211.095 441.341 211.384L441.354 211.509C441.225 212.203 441.245 213.248 441.237 213.981L441.264 215.265L441.338 215.504C441.235 216.248 441.251 217.251 441.242 218.022L441.297 219.272C441.291 220.153 441.301 221.1 441.249 221.974C441.258 222.225 441.275 223.04 441.32 223.24L441.24 225.852C441.255 226.188 441.263 226.82 441.301 227.13C441.299 228.051 441.279 228.973 441.242 229.894C441.257 230.237 441.263 230.818 441.3 231.139C441.289 232.041 441.271 232.941 441.245 233.841C441.255 234.113 441.268 234.89 441.312 235.118C441.296 235.728 441.214 237.183 441.251 237.725C441.257 238.015 441.259 238.896 441.307 239.137C441.291 240.012 441.269 240.887 441.239 241.762C441.248 241.98 441.268 242.854 441.299 243.018C441.294 243.852 441.316 244.902 441.248 245.716L441.274 247.026L441.907 247.098C440.951 247.422 441.267 248.751 441.27 249.596L441.278 251.001C441.396 251.271 441.255 253.149 441.237 253.635C441.247 253.861 441.27 254.72 441.302 254.893L441.247 257.586L441.266 258.861L441.237 260.187L441.259 261.551L441.232 262.89L441.259 264.177L441.234 265.512L441.257 266.789L441.231 268.135L441.257 269.392L441.235 270.748L441.257 272.004L441.24 273.462L441.253 274.753L441.237 276.081L441.252 277.368L441.235 278.71L441.263 279.994L441.238 281.325L441.253 282.616L441.233 284.011L441.252 285.295L441.232 286.614L441.255 287.694C441.159 287.883 440.894 287.944 440.686 288.022C440.396 287.983 440.347 287.931 440.118 287.742C439.984 287.442 439.986 287.22 439.961 286.897L439.906 286.644L439.931 285.341C439.965 284.997 439.945 284.385 439.945 284.019L439.919 282.623C439.946 282.242 439.934 281.686 439.937 281.289L439.928 280.002C439.962 279.635 439.941 279.054 439.938 278.669L439.923 277.388C439.95 276.984 439.93 276.46 439.927 276.046L439.928 274.766C439.956 274.371 439.934 273.836 439.93 273.43L439.915 272.061L439.94 270.748L439.92 269.449L439.945 268.129L439.914 266.825L439.945 265.505L439.916 264.202L439.944 262.881L439.917 261.586C439.95 261.128 439.932 260.605 439.928 260.141L439.918 258.885C439.969 258.476 439.934 257.963 439.919 257.544C439.929 257.166 439.961 256.775 439.847 256.417C439.459 256.171 439.267 256.249 438.765 256.239L438.803 255.993C439.26 256.049 439.411 256.14 439.753 255.821C440.034 255.058 439.956 254.422 439.853 253.641C439.923 253.059 439.924 252.91 439.849 252.328C439.863 250.547 440.66 249.985 438.648 249.707C439.178 249.529 439.491 249.749 439.916 249.318C439.961 248.907 439.879 248.658 439.782 248.256C439.769 247.418 440.123 246.675 439.826 245.672C439.885 245.297 440.002 244.851 439.831 244.521C439.543 244.287 439.066 244.375 438.683 244.4L438.693 244.285C439.023 243.994 439.362 244.207 439.82 243.925C440.03 243.523 439.937 242.277 439.924 241.753C439.921 241.261 439.9 240.946 439.844 240.457C439.889 239.723 440.144 238.382 439.661 237.872L439.863 237.694C439.92 237.119 439.94 236.962 439.796 236.409L439.772 236.357C439.927 235.731 439.974 234.426 439.856 233.772C439.899 233.402 439.987 232.982 439.828 232.652C439.545 232.417 439.064 232.506 438.682 232.531L438.694 232.417L438.762 232.183C440.305 232.382 439.962 231.091 439.929 229.883C439.924 229.402 439.935 229.061 439.814 228.587L439.62 228.44C440.063 228.072 440.232 226.378 439.507 225.998L439.925 225.911C439.922 225.352 439.927 225.096 439.804 224.539L439.777 224.494C439.93 223.886 439.956 222.544 439.856 221.903C439.909 221.473 439.93 221.303 439.892 220.874C439.567 220.589 439.212 220.642 438.705 220.567C439.034 220.297 439.381 220.387 439.886 220.374C439.922 219.621 439.993 218.749 439.881 218.014C439.919 217.603 439.944 216.972 439.786 216.597C439.752 216.499 440.032 214.81 439.897 214.276L439.672 214.143C439.762 214.13 439.836 214.086 439.921 214.047C439.921 213.472 439.928 213.229 439.798 212.656L439.773 212.61C439.937 211.987 439.996 210.68 439.852 210.033C439.906 209.604 439.928 209.436 439.891 209.006C439.565 208.718 440.376 208.521 439.867 208.448L439.929 208.195C439.929 208.195 440.182 207.199 439.812 206.159C440.001 205.864 439.928 205.078 439.779 204.76L439.414 204.548C439.556 204.47 439.69 204.412 439.838 204.346C439.976 203.807 440.007 202.676 439.834 202.135C439.933 201.554 439.931 201.412 439.862 200.824C439.907 200.446 439.903 199.946 439.911 199.557L439.883 198.153C439.91 197.793 439.97 197.397 439.845 197.066C439.47 196.821 439.171 196.875 438.684 196.837C438.846 196.774 439.362 196.663 439.559 196.615C439.9 196.332 440.106 196.2 439.843 195.792C439.445 195.59 439.138 195.458 438.772 195.759C438.697 194.73 438.92 188.855 438.644 188.472L438.642 43.752Z" fill="white"/>
<path d="M441.3 43.752H442.257L442.137 118.963L442.117 132.224C442.12 133.506 442.697 134.265 442.246 134.74C441.873 134.806 441.745 134.806 441.366 134.793C441.202 130.998 441.3 126.577 441.299 122.74L441.295 101.6L441.3 43.752Z" fill="white"/>
<path d="M442.255 43.752H442.601L442.584 108.229C442.584 117.418 442.718 126.948 442.566 136.115L441.297 136.128C441.207 135.824 441.323 135.139 441.363 134.793C441.742 134.806 441.87 134.806 442.244 134.74C442.695 134.265 442.118 133.506 442.114 132.224L442.134 118.963L442.255 43.752Z" fill="white"/>
<path d="M441.303 137.375L442.547 137.38C442.586 138.082 442.608 139.406 442.552 140.131L441.279 140.13C441.366 139.814 441.304 137.831 441.303 137.375Z" fill="white"/>
<path d="M441.293 203.397L442.467 203.362C442.63 203.954 442.653 205.642 442.464 206.209C442.245 206.152 441.51 206.159 441.244 206.155C441.271 205.236 441.288 204.316 441.293 203.397Z" fill="white"/>
<path d="M442.464 207.361C442.66 208.004 442.598 209.388 442.532 210.084L441.246 210.098C441.291 209.212 441.285 208.29 441.292 207.401C441.613 207.391 442.165 207.392 442.464 207.361ZM442.432 209.962C442.413 209.579 442.441 209.198 442.183 208.92C441.91 208.778 441.84 208.739 441.527 208.743C441.501 209.095 441.413 209.555 441.615 209.821C441.941 209.953 442.086 209.947 442.432 209.962Z" fill="white"/>
<path d="M441.532 208.743C441.845 208.738 441.916 208.777 442.188 208.919C442.446 209.197 442.418 209.577 442.437 209.961C442.091 209.945 441.946 209.951 441.62 209.819C441.418 209.553 441.506 209.094 441.532 208.743Z" fill="white"/>
<path d="M442.515 211.337C442.607 211.897 442.634 213.432 442.519 213.982C442.416 213.457 442.44 213.13 442.095 212.755C441.762 212.695 441.891 212.677 441.577 212.847L441.426 213.357L441.355 211.506L441.342 211.381L442.515 211.337Z" fill="white"/>
<path d="M438.631 263.061C438.668 263.535 438.613 263.783 438.853 264.149C439.239 264.246 439.517 264.217 439.913 264.202L439.942 265.505L438.665 265.506C438.615 264.696 438.539 263.867 438.631 263.061Z" fill="white"/>
<path d="M441.337 215.504C441.346 215.796 441.319 216.492 441.48 216.683L441.79 216.761L442.052 216.589C442.518 216.794 442.503 217.394 442.542 217.862L442.435 218.015C442.037 218.025 441.639 218.028 441.241 218.022C441.25 217.252 441.234 216.248 441.337 215.504Z" fill="white"/>
<path d="M441.264 215.264C441.637 215.246 442.122 215.17 442.4 215.397C442.82 216.037 442.58 217.024 442.543 217.861C442.504 217.393 442.519 216.793 442.053 216.588L441.792 216.76L441.481 216.682C441.32 216.49 441.347 215.795 441.338 215.503L441.264 215.264Z" fill="white"/>
<path d="M441.259 264.175L442.509 264.174C442.561 264.704 442.569 264.96 442.54 265.49L441.233 265.509L441.259 264.175Z" fill="white"/>
<path d="M441.265 200.785H442.583L442.525 202.096L441.233 202.114L441.265 200.785Z" fill="white"/>
<path d="M442.549 140.135C442.55 140.574 442.549 140.994 442.579 141.433L441.284 141.42C441.258 141.105 441.278 140.475 441.277 140.135L442.549 140.135Z" fill="white"/>
<path d="M441.295 136.128L442.563 136.114L442.544 137.384L441.301 137.38C441.249 137.027 441.283 136.498 441.295 136.128Z" fill="white"/>
<path d="M442.581 199.539L442.224 199.669C442.334 199.639 442.388 199.626 442.49 199.577L442.345 199.777C442.579 200.201 442.584 200.302 442.589 200.789H441.271L441.291 199.511C441.625 199.508 442.278 199.486 442.581 199.539Z" fill="white"/>
<path d="M441.246 210.095L442.531 210.081C442.433 210.304 442.457 211.193 442.51 211.336L441.339 211.381C441.25 211.092 441.255 210.427 441.246 210.095Z" fill="white"/>
<path d="M441.243 206.155C441.51 206.159 442.244 206.152 442.463 206.209L442.402 206.421C442.547 206.612 442.486 207.121 442.466 207.36C442.167 207.391 441.615 207.39 441.295 207.4L441.243 206.155Z" fill="white"/>
<path d="M441.351 211.506L441.422 213.357L441.573 212.847C441.887 212.677 441.758 212.695 442.091 212.755C442.436 213.13 442.412 213.457 442.515 213.982L441.233 213.979C441.241 213.245 441.222 212.2 441.351 211.506Z" fill="white"/>
</g>
<g clip-path="url(#clip2_596_8424)">
<path d="M438.642 800.964H441.298L441.293 743.116L441.297 721.976C441.298 718.138 441.2 713.718 441.363 709.923C441.324 709.577 441.207 708.891 441.297 708.588C441.285 708.217 441.252 707.688 441.303 707.335C441.304 706.879 441.366 704.896 441.28 704.58C441.28 704.24 441.261 703.608 441.287 703.293L441.249 701.869C441.259 701.612 441.267 700.894 441.301 700.676C441.3 699.939 441.335 698.603 441.238 697.921L441.303 696.728C441.293 696.478 441.271 695.471 441.236 695.284L441.296 694.039C441.293 693.188 441.309 692.242 441.274 691.399L441.271 690.177C441.287 689.617 441.281 689.232 441.25 688.672C441.262 688.358 441.264 687.758 441.298 687.469L441.293 684.843C441.281 684.413 441.251 683.885 441.278 683.464C441.295 682.975 441.281 682.551 441.263 682.066L441.278 680.848C441.32 680.605 441.321 678.427 441.28 678.217C441.279 677.846 441.259 677.275 441.281 676.92C441.274 676.602 441.278 675.778 441.244 675.501L441.293 674.324C441.294 673.474 441.327 672.394 441.283 671.564C441.28 671.173 441.262 670.675 441.281 670.294C441.277 669.823 441.27 669.352 441.261 668.882C441.267 668.605 441.266 667.916 441.303 667.675C441.297 666.82 441.311 665.883 441.279 665.034L441.272 663.809C441.279 663.322 441.278 662.903 441.257 662.414C441.263 662.062 441.253 661.37 441.288 661.046C441.292 660.229 441.329 659.129 441.27 658.336L441.28 657.102C441.291 656.638 441.284 656.173 441.26 655.709L441.279 654.482C441.305 654.164 441.344 652.054 441.278 651.853C441.279 651.524 441.261 650.867 441.289 650.568C441.284 650.306 441.277 649.205 441.242 649.009C441.256 648.729 441.271 648.074 441.311 647.826C441.286 646.954 441.278 646.079 441.286 645.205L441.267 643.926L441.235 642.596L441.293 641.319C441.288 640.399 441.271 639.48 441.243 638.561L441.295 637.315C441.288 636.426 441.294 635.504 441.249 634.618C441.258 634.286 441.252 633.621 441.341 633.332L441.354 633.207C441.225 632.513 441.245 631.468 441.237 630.734L441.264 629.451L441.338 629.212C441.235 628.468 441.251 627.464 441.242 626.694L441.297 625.443C441.291 624.562 441.301 623.615 441.249 622.742C441.258 622.491 441.275 621.676 441.32 621.476L441.24 618.864C441.255 618.528 441.263 617.895 441.301 617.586C441.299 616.664 441.279 615.743 441.242 614.822C441.257 614.479 441.263 613.898 441.3 613.577C441.289 612.675 441.271 611.775 441.245 610.875C441.255 610.603 441.268 609.826 441.312 609.598C441.296 608.988 441.214 607.533 441.251 606.991C441.257 606.701 441.259 605.82 441.307 605.579C441.291 604.704 441.269 603.829 441.239 602.954C441.248 602.736 441.268 601.862 441.299 601.698C441.294 600.863 441.316 599.813 441.248 599L441.274 597.689L441.907 597.617C440.951 597.294 441.267 595.965 441.27 595.119L441.278 593.715C441.396 593.445 441.255 591.567 441.237 591.081C441.247 590.855 441.27 589.996 441.302 589.823L441.247 587.13L441.266 585.855L441.237 584.529L441.259 583.165L441.232 581.826L441.259 580.539L441.234 579.203L441.257 577.927L441.231 576.581L441.257 575.323L441.235 573.968L441.257 572.711L441.24 571.254L441.253 569.963L441.237 568.635L441.252 567.347L441.235 566.006L441.263 564.722L441.238 563.391L441.253 562.1L441.233 560.704L441.252 559.421L441.232 558.102L441.255 557.022C441.159 556.833 440.894 556.772 440.686 556.694C440.396 556.733 440.347 556.785 440.118 556.974C439.984 557.274 439.986 557.496 439.961 557.819L439.906 558.072L439.931 559.375C439.965 559.719 439.945 560.33 439.945 560.697L439.919 562.092C439.946 562.474 439.934 563.03 439.937 563.427L439.928 564.714C439.962 565.081 439.941 565.662 439.938 566.047L439.923 567.328C439.95 567.732 439.93 568.256 439.927 568.67L439.928 569.95C439.956 570.345 439.934 570.88 439.93 571.286L439.915 572.655L439.94 573.968L439.92 575.267L439.945 576.587L439.914 577.891L439.945 579.211L439.916 580.514L439.944 581.835L439.917 583.13C439.95 583.588 439.932 584.111 439.928 584.575L439.918 585.831C439.969 586.24 439.934 586.753 439.919 587.172C439.929 587.55 439.961 587.941 439.847 588.299C439.459 588.545 439.267 588.467 438.765 588.476L438.803 588.723C439.26 588.667 439.411 588.576 439.753 588.895C440.034 589.658 439.956 590.294 439.853 591.075C439.923 591.656 439.924 591.806 439.849 592.388C439.863 594.169 440.66 594.731 438.648 595.009C439.178 595.187 439.491 594.967 439.916 595.398C439.961 595.809 439.879 596.058 439.782 596.46C439.769 597.297 440.123 598.041 439.826 599.044C439.885 599.419 440.002 599.865 439.831 600.195C439.543 600.428 439.066 600.341 438.683 600.316L438.693 600.431C439.023 600.722 439.362 600.509 439.82 600.79C440.03 601.193 439.937 602.439 439.924 602.962C439.921 603.455 439.9 603.77 439.844 604.259C439.889 604.993 440.144 606.334 439.661 606.844L439.863 607.022C439.92 607.596 439.94 607.753 439.796 608.307L439.772 608.359C439.927 608.984 439.974 610.29 439.856 610.944C439.899 611.314 439.987 611.734 439.828 612.064C439.545 612.299 439.064 612.21 438.682 612.185L438.694 612.299L438.762 612.533C440.305 612.334 439.962 613.625 439.929 614.833C439.924 615.313 439.935 615.655 439.814 616.129L439.62 616.276C440.063 616.644 440.232 618.338 439.507 618.718L439.925 618.805C439.922 619.364 439.927 619.62 439.804 620.176L439.777 620.222C439.93 620.83 439.956 622.172 439.856 622.812C439.909 623.243 439.93 623.413 439.892 623.842C439.567 624.127 439.212 624.073 438.705 624.149C439.034 624.419 439.381 624.329 439.886 624.342C439.922 625.095 439.993 625.967 439.881 626.702C439.919 627.113 439.944 627.744 439.786 628.119C439.752 628.217 440.032 629.906 439.897 630.44L439.672 630.573C439.762 630.586 439.836 630.63 439.921 630.668C439.921 631.244 439.928 631.487 439.798 632.06L439.773 632.106C439.937 632.729 439.996 634.036 439.852 634.683C439.906 635.112 439.928 635.28 439.891 635.71C439.565 635.998 440.376 636.195 439.867 636.268L439.929 636.521C439.929 636.521 440.182 637.516 439.812 638.557C440.001 638.852 439.928 639.638 439.779 639.956L439.414 640.168C439.556 640.246 439.69 640.303 439.838 640.369C439.976 640.909 440.007 642.04 439.834 642.581C439.933 643.162 439.931 643.304 439.862 643.892C439.907 644.27 439.903 644.77 439.911 645.159L439.883 646.563C439.91 646.922 439.97 647.319 439.845 647.65C439.47 647.895 439.171 647.841 438.684 647.879C438.846 647.941 439.362 648.053 439.559 648.101C439.9 648.384 440.106 648.516 439.843 648.924C439.445 649.126 439.138 649.257 438.772 648.957C438.697 649.986 438.92 655.861 438.644 656.243L438.642 800.964Z" fill="white"/>
<path d="M441.3 800.964H442.257L442.136 725.753L442.116 712.492C442.12 711.21 442.696 710.451 442.246 709.976C441.872 709.909 441.744 709.91 441.365 709.923C441.202 713.718 441.3 718.138 441.299 721.976L441.294 743.116L441.3 800.964Z" fill="white"/>
<path d="M442.255 800.964H442.601L442.584 736.487C442.584 727.298 442.718 717.768 442.567 708.601L441.297 708.588C441.207 708.891 441.324 709.577 441.364 709.923C441.743 709.91 441.871 709.909 442.244 709.976C442.695 710.451 442.118 711.21 442.115 712.492L442.135 725.753L442.255 800.964Z" fill="white"/>
<path d="M441.303 707.334L442.547 707.329C442.586 706.627 442.608 705.303 442.552 704.578L441.279 704.579C441.366 704.895 441.304 706.878 441.303 707.334Z" fill="white"/>
<path d="M441.292 641.319L442.467 641.354C442.629 640.761 442.652 639.074 442.464 638.507C442.245 638.564 441.51 638.557 441.243 638.561C441.271 639.48 441.287 640.399 441.292 641.319Z" fill="white"/>
<path d="M442.464 637.354C442.66 636.712 442.598 635.328 442.532 634.632L441.246 634.618C441.291 635.504 441.285 636.426 441.292 637.315C441.613 637.325 442.165 637.323 442.464 637.354ZM442.432 634.753C442.413 635.137 442.441 635.518 442.183 635.796C441.91 635.938 441.84 635.977 441.527 635.972C441.501 635.621 441.413 635.161 441.615 634.895C441.941 634.763 442.086 634.769 442.432 634.753Z" fill="white"/>
<path d="M441.532 635.972C441.845 635.977 441.916 635.938 442.188 635.796C442.446 635.518 442.418 635.137 442.437 634.754C442.091 634.77 441.946 634.764 441.62 634.895C441.418 635.161 441.506 635.621 441.532 635.972Z" fill="white"/>
<path d="M442.515 633.373C442.607 632.813 442.634 631.278 442.519 630.728C442.416 631.253 442.44 631.58 442.095 631.955C441.762 632.015 441.891 632.033 441.577 631.863L441.426 631.353L441.355 633.204L441.342 633.329L442.515 633.373Z" fill="white"/>
<path d="M438.631 581.653C438.668 581.179 438.613 580.931 438.853 580.565C439.239 580.468 439.517 580.497 439.913 580.512L439.942 579.209L438.665 579.208C438.615 580.018 438.539 580.847 438.631 581.653Z" fill="white"/>
<path d="M441.337 629.21C441.346 628.917 441.319 628.222 441.48 628.03L441.79 627.953L442.052 628.125C442.518 627.92 442.503 627.32 442.542 626.852L442.435 626.699C442.037 626.689 441.639 626.686 441.241 626.692C441.25 627.462 441.234 628.466 441.337 629.21Z" fill="white"/>
<path d="M441.264 629.451C441.636 629.469 442.121 629.545 442.399 629.318C442.819 628.677 442.58 627.691 442.543 626.854C442.504 627.322 442.518 627.922 442.052 628.127L441.791 627.955L441.48 628.033C441.319 628.224 441.346 628.92 441.337 629.212L441.264 629.451Z" fill="white"/>
<path d="M441.259 580.539L442.509 580.54C442.561 580.009 442.569 579.754 442.54 579.224L441.233 579.204L441.259 580.539Z" fill="white"/>
<path d="M441.265 643.926H442.583L442.525 642.615L441.233 642.597L441.265 643.926Z" fill="white"/>
<path d="M442.549 704.578C442.551 704.139 442.549 703.718 442.58 703.28L441.285 703.293C441.258 703.608 441.278 704.238 441.278 704.578L442.549 704.578Z" fill="white"/>
<path d="M441.295 708.588L442.563 708.602L442.544 707.332L441.301 707.336C441.249 707.689 441.283 708.218 441.295 708.588Z" fill="white"/>
<path d="M442.581 645.173L442.224 645.044C442.334 645.074 442.388 645.087 442.49 645.136L442.345 644.936C442.579 644.512 442.584 644.41 442.589 643.924H441.271L441.291 645.202C441.625 645.205 442.278 645.227 442.581 645.173Z" fill="white"/>
<path d="M441.246 634.617L442.531 634.632C442.433 634.409 442.457 633.52 442.51 633.377L441.339 633.332C441.25 633.621 441.255 634.286 441.246 634.617Z" fill="white"/>
<path d="M441.244 638.555C441.51 638.551 442.244 638.558 442.463 638.501L442.403 638.289C442.547 638.098 442.487 637.589 442.466 637.35C442.167 637.319 441.615 637.32 441.295 637.31L441.244 638.555Z" fill="white"/>
<path d="M441.351 633.21L441.422 631.359L441.573 631.869C441.887 632.039 441.758 632.021 442.091 631.961C442.436 631.586 442.412 631.259 442.515 630.734L441.233 630.737C441.241 631.471 441.222 632.516 441.351 633.21Z" fill="white"/>
</g>
</g>
<g clip-path="url(#clip3_596_8424)">
<path d="M246.306 354.278C246.506 354.259 246.746 354.308 246.95 354.361L247.529 354.534L247.653 354.57L247.695 354.692L248.009 355.604L248.055 355.738L247.964 355.847L247.447 356.464L247.381 356.543L247.279 356.553C246.027 356.671 244.584 357.117 243.219 357.543C242.542 357.754 241.884 357.96 241.291 358.111C240.7 358.262 240.152 358.366 239.7 358.361C232.034 358.287 225.544 358.658 218.036 359.967C216.495 360.235 214.171 360.308 211.833 360.329C209.528 360.35 207.209 360.321 205.555 360.374C204.708 361.181 203.566 361.606 202.283 361.816C200.962 362.033 199.466 362.029 197.942 361.969C196.407 361.908 194.854 361.791 193.374 361.773C191.982 361.757 190.687 361.833 189.584 362.119C189.605 362.304 189.619 362.451 189.612 362.597C189.602 362.8 189.556 362.995 189.472 363.29L189.428 363.443L189.271 363.469C187.617 363.735 185.086 363.78 182.487 363.79C180.143 363.8 177.737 363.781 175.823 363.867C175.843 363.881 175.862 363.898 175.883 363.912C176.112 364.07 176.345 364.214 176.523 364.331L176.85 364.546L176.517 364.752C176.25 364.917 175.884 365.027 175.489 365.104C175.088 365.181 174.634 365.23 174.174 365.263C173.277 365.326 172.283 365.33 171.674 365.362C170.928 365.423 170.523 365.273 169.877 365.094L169.744 365.057L169.705 364.924L169.457 364.086L169.41 363.93L169.535 363.824C169.966 363.461 170.307 363.258 170.601 363.154C170.903 363.048 171.14 363.054 171.344 363.078C171.557 363.104 171.669 363.134 171.823 363.119C171.851 363.116 171.881 363.111 171.914 363.104L170.94 362.756L170.773 362.696L170.774 362.519L170.777 362.038L170.778 361.843L170.967 361.796C172.254 361.482 174.029 361.418 175.787 361.365C177.562 361.312 179.324 361.27 180.636 361.014C186.942 359.781 193.232 359.767 199.433 359.175L237.554 355.6L238.138 355.537C239.467 355.381 240.579 355.15 241.745 354.922C243.076 354.661 244.47 354.406 246.306 354.277V354.278Z" fill="white" stroke="white" stroke-width="0.5"/>
<path d="M169.682 481.655C171.758 481.336 173.073 481.789 174.261 482.34C175.446 482.89 176.449 483.501 177.986 483.6C180.823 483.782 183.542 484.424 186.221 485.153C188.908 485.885 191.544 486.701 194.25 487.249H194.249L226.826 493.585H226.827C228.294 493.847 229.826 493.931 231.386 494.011C232.941 494.09 234.524 494.163 236.069 494.407H236.07C239.37 494.929 242.447 495.954 245.642 496.887L247.02 497.279L247.176 497.322L247.201 497.483L247.755 501.207L247.797 501.488L247.513 501.494C246.009 501.525 244.424 501.197 242.792 500.73C241.165 500.265 239.455 499.65 237.735 499.104C234.27 498.002 230.688 497.156 227.133 498.129L227.021 498.16L226.925 498.094C225.91 497.394 224.477 496.933 222.821 496.613C221.168 496.295 219.318 496.122 217.485 495.987C215.658 495.853 213.84 495.755 212.277 495.585C210.721 495.416 209.371 495.173 208.489 494.727C206.672 493.808 203.595 493.165 199.897 492.57C196.222 491.979 191.936 491.434 187.785 490.705C183.627 489.975 179.562 489.054 176.29 487.697C173.025 486.344 170.495 484.534 169.488 481.994L169.373 481.703L169.682 481.655Z" fill="white" stroke="white" stroke-width="0.5"/>
<path d="M685.402 359.476C685.949 359.412 687.87 359.274 689.141 359.382C696.83 360.033 704.363 361.108 711.875 362.244C719.388 363.381 726.878 364.579 734.49 365.476L734.581 365.486L734.643 365.553C734.993 365.926 735.279 366.234 735.502 366.475L735.824 366.819L735.358 366.892C730.416 367.664 723.745 366.787 717.031 365.73C710.294 364.67 703.507 363.427 698.27 363.433C696.562 363.434 694.469 363.028 692.328 362.613C690.174 362.196 687.962 361.768 685.975 361.706L685.798 361.701L685.745 361.532L685.192 359.8L685.1 359.511L685.402 359.476Z" fill="white" stroke="white" stroke-width="0.5"/>
<path d="M716.962 482.357C724.19 480.44 728.089 479.431 735.462 479.891L735.747 479.908L735.692 480.188L735.314 482.121L735.294 482.226L735.204 482.283C735.056 482.378 734.798 482.464 734.496 482.544C734.182 482.627 733.784 482.714 733.33 482.804C732.422 482.982 731.274 483.173 730.095 483.36C728.255 483.653 726.347 483.939 725.115 484.172L725.642 484.351L724.847 484.565C720.103 485.846 716.019 486.098 711.295 486.458L711.251 486.642L712.556 487.633L712.893 487.89L712.505 488.061C708.611 489.779 704.874 489.526 701.002 489.802H701.001C700.275 489.853 699.137 490.192 697.767 490.633C696.411 491.069 694.848 491.597 693.312 492.003C691.777 492.408 690.243 492.699 688.939 492.65C687.637 492.601 686.509 492.209 685.875 491.19L685.846 491.145L685.839 491.09L685.697 489.952L685.684 489.844L685.754 489.76C685.884 489.605 686.089 489.468 686.328 489.344C686.572 489.217 686.876 489.092 687.227 488.969C687.928 488.722 688.838 488.473 689.884 488.224C691.977 487.725 694.639 487.218 697.314 486.715C699.993 486.211 702.685 485.71 704.847 485.222C705.927 484.978 706.87 484.738 707.61 484.504C708.363 484.266 708.868 484.045 709.104 483.852L709.122 483.838L709.142 483.826C710.466 483.094 711.832 482.894 713.154 482.79C714.491 482.685 715.753 482.678 716.962 482.357Z" fill="white" stroke="white" stroke-width="0.5"/>
<path d="M747.337 359.414C750.695 359.159 753.415 359.52 756.085 359.963C758.591 360.379 761.041 360.864 763.951 360.995L764.54 361.017L766.609 361.062C768.68 361.094 770.757 361.092 772.835 361.086C775.606 361.078 778.381 361.065 781.144 361.122C781.823 361.136 782.717 361.075 783.718 361.008C784.714 360.941 785.807 360.869 786.867 360.864C787.925 360.86 788.963 360.923 789.847 361.132C790.727 361.34 791.49 361.7 791.953 362.321L792.024 362.417L791.994 362.533L791.76 363.433L791.719 363.593L791.555 363.617L790.347 363.798L790.329 363.801H790.31C789.115 363.8 784.953 363.775 780.917 363.8C778.898 363.812 776.914 363.837 775.349 363.883C774.567 363.906 773.891 363.934 773.37 363.969C772.964 363.996 772.668 364.025 772.488 364.056L772.297 364.835L772.272 364.94L772.177 364.993L771.737 365.24L771.526 365.359L771.401 365.152C770.896 364.32 770.086 364.012 769.08 363.906C768.575 363.853 768.033 363.853 767.469 363.857C766.91 363.862 766.327 363.873 765.761 363.84C761.934 363.617 758.22 363.472 754.461 362.345C753.389 362.022 752.247 362.03 751.074 362.02C749.917 362.01 748.729 361.983 747.644 361.553L747.521 361.504L747.492 361.376L747.112 359.719L747.047 359.436L747.337 359.414Z" fill="white" stroke="white" stroke-width="0.5"/>
<path d="M627.297 497.485C627.518 497.458 627.731 497.449 627.944 497.483C628.328 497.546 628.671 497.746 629.077 498.138L629.256 498.317L629.317 498.382L629.324 498.471L629.369 499.061L629.62 499.1L629.465 500.372L629.128 500.363C629.107 500.392 629.088 500.422 629.066 500.449C628.804 500.78 628.475 500.985 628.107 501.099C627.392 501.32 626.522 501.199 625.68 501.05C624.811 500.896 623.956 500.711 623.181 500.735C622.422 500.759 621.781 500.985 621.317 501.631C620.333 503.003 618.396 503.655 616.099 503.94C613.786 504.228 611.028 504.154 608.312 504.003C605.584 503.852 602.906 503.624 600.713 503.598C599.618 503.585 598.658 503.622 597.884 503.742C597.285 503.835 596.821 503.975 596.495 504.16L598.049 505.303L598.341 505.518L598.036 505.714C597.744 505.902 597.341 506.035 596.901 506.134C596.457 506.234 595.955 506.303 595.451 506.354C594.451 506.456 593.404 506.488 592.795 506.53L592.794 506.529C591.894 506.614 590.894 506.752 589.913 506.79C588.924 506.829 587.921 506.769 586.991 506.451L586.84 506.399L586.823 506.24C586.779 505.802 586.742 505.522 586.718 505.306C586.695 505.096 586.683 504.94 586.701 504.785C586.72 504.628 586.769 504.487 586.84 504.304C586.913 504.115 587.01 503.879 587.152 503.497L587.206 503.354L587.356 503.336C588.567 503.187 589.512 502.631 590.504 502.047C591.486 501.469 592.515 500.863 593.841 500.718C598.436 500.214 603.211 500.688 607.878 500.753C612.563 500.818 617.175 500.472 621.548 498.359C622.277 498.006 623.186 497.83 624.078 497.734C624.965 497.639 625.86 497.622 626.577 497.602C626.841 497.558 627.084 497.512 627.297 497.485Z" fill="white" stroke="white" stroke-width="0.5"/>
<path d="M46.6411 440.891C46.7896 440.886 46.9956 440.933 47.2241 441.002C47.4631 441.074 47.7589 441.179 48.1011 441.313C48.786 441.582 49.6708 441.968 50.6841 442.438C52.7116 443.377 55.2661 444.652 57.7925 445.983C60.3184 447.315 62.8198 448.706 64.7417 449.877C65.7021 450.462 66.5219 450.995 67.1284 451.44C67.4313 451.663 67.6854 451.866 67.8784 452.045C68.0177 452.174 68.1396 452.304 68.2222 452.429L68.2915 452.553V452.554L68.3228 452.626C72.1685 453.581 75.9866 454.853 79.7642 456.439C81.2281 457.043 82.0389 457.566 82.8442 457.985C83.5453 458.351 84.275 458.658 85.5054 458.913L86.0649 459.02L86.2124 459.045L86.2593 459.187L86.8638 461.008L86.9028 461.127L86.8315 461.229L86.0044 462.418L85.9556 462.489L85.8726 462.515C85.5455 462.615 85.131 462.625 84.6577 462.574C84.1805 462.523 83.6233 462.406 83.0005 462.234C81.7547 461.891 80.2237 461.324 78.5034 460.598C75.0616 459.144 70.8362 457.044 66.5718 454.797C58.0419 450.302 49.3324 445.21 46.3735 443.509L46.2817 443.456L46.2563 443.354L45.7222 441.271L45.6548 441.008L45.9224 440.962C46.1606 440.921 46.4002 440.898 46.6401 440.891H46.6411Z" fill="white" stroke="white" stroke-width="0.5"/>
<path d="M797.101 377.015C798.24 377.049 800.038 377.352 802.157 377.8C804.282 378.248 806.748 378.845 809.232 379.475C814.21 380.736 819.25 382.123 821.817 382.713L822.093 382.784C822.797 382.987 823.917 383.417 825.064 383.858C826.225 384.305 827.425 384.767 828.311 385.046L828.67 385.154L828.788 385.188L828.834 385.303L829.24 386.325L829.365 386.642L829.025 386.666C827.521 386.777 825.63 386.518 823.555 386.067C821.475 385.615 819.191 384.966 816.895 384.284C812.286 382.915 807.65 381.422 804.438 381.086C803.801 381.019 802.31 380.672 800.854 380.293C799.393 379.913 797.928 379.492 797.333 379.268L797.2 379.218L797.175 379.079L796.847 377.311L796.79 377.006L797.101 377.015Z" fill="white" stroke="white" stroke-width="0.5"/>
<path d="M100.768 440.89C101.115 440.885 101.567 440.99 102.08 441.16C102.599 441.333 103.204 441.581 103.863 441.879C105.182 442.476 106.741 443.282 108.31 444.118C109.882 444.956 111.463 445.821 112.841 446.54C114.223 447.261 115.378 447.822 116.098 448.06L116.143 448.075L116.18 448.105C116.181 448.106 116.187 448.111 116.199 448.118C116.214 448.127 116.235 448.138 116.261 448.151C116.313 448.178 116.384 448.21 116.47 448.247C116.642 448.321 116.869 448.41 117.134 448.508C117.663 448.704 118.334 448.935 118.994 449.158C119.654 449.381 120.303 449.595 120.788 449.756C121.03 449.836 121.233 449.903 121.375 449.951C121.446 449.975 121.504 449.996 121.545 450.011C121.565 450.018 121.584 450.025 121.599 450.031C121.606 450.034 121.616 450.039 121.627 450.044C121.632 450.046 121.643 450.052 121.655 450.061C121.661 450.065 121.674 450.072 121.687 450.084C121.691 450.088 121.701 450.097 121.712 450.111L121.748 450.169L121.891 450.482C122.221 451.177 122.529 451.634 122.828 451.941C123.164 452.286 123.499 452.45 123.872 452.546C124.262 452.646 124.677 452.669 125.211 452.731C125.734 452.793 126.334 452.892 127.033 453.146C128.4 453.646 130.244 454.563 131.764 455.381L132.394 455.724L132.507 455.786L132.521 455.915L132.842 458.779L132.869 459.018L132.632 459.054C132.398 459.089 132.079 459.058 131.71 458.984C131.334 458.91 130.878 458.786 130.357 458.622C129.316 458.293 127.997 457.795 126.5 457.17C123.504 455.92 119.777 454.158 116.092 452.229C112.407 450.299 108.757 448.198 105.916 446.266C104.496 445.3 103.273 444.373 102.348 443.527C101.431 442.69 100.776 441.906 100.536 441.223L100.42 440.895L100.768 440.89Z" fill="white" stroke="white" stroke-width="0.5"/>
<path d="M163.425 363.186C164.192 363.18 164.98 363.22 165.529 363.399C165.96 363.541 166.332 363.871 166.633 364.275C166.937 364.682 167.183 365.185 167.357 365.706C167.531 366.227 167.637 366.777 167.653 367.284C167.668 367.787 167.595 368.271 167.389 368.642L167.272 368.852L167.057 368.743C166.679 368.551 166.446 368.345 166.332 368.091C166.22 367.843 166.243 367.59 166.262 367.384C166.283 367.165 166.306 366.962 166.262 366.723C166.222 366.503 166.122 366.241 165.887 365.921C164.818 365.669 163.666 365.866 162.473 366.178C161.272 366.491 160.007 366.929 158.841 367.051C156.995 367.244 154.954 367.3 153.106 367.354L153.094 367.354L153.082 367.354C152.533 367.315 152.036 367.256 151.623 367.221C151.198 367.184 150.839 367.171 150.51 367.213C149.877 367.293 149.313 367.583 148.621 368.442L148.561 368.517L148.467 368.532C147.818 368.642 147.308 368.749 146.815 368.756C146.305 368.763 145.815 368.664 145.175 368.383L145.056 368.33L145.031 368.201L144.878 367.415L144.857 367.306L144.923 367.218C145.758 366.106 146.902 365.532 148.204 365.236C149.497 364.942 150.966 364.919 152.466 364.918C155.499 364.916 158.67 364.997 161.172 363.315L161.23 363.276L161.299 363.273C161.859 363.246 162.652 363.191 163.425 363.186Z" fill="white" stroke="white" stroke-width="0.5"/>
<path d="M410.142 499.292C416.519 498.92 425.299 500.166 431.671 502.762L431.882 502.862C432.342 503.121 432.589 503.537 432.771 504.077C432.875 504.381 432.961 504.736 433.054 505.132C433.147 505.531 433.248 505.979 433.381 506.485L433.459 506.783L433.151 506.799C433.105 506.801 433.041 506.794 432.982 506.787C432.916 506.779 432.83 506.768 432.729 506.752C432.525 506.721 432.247 506.674 431.909 506.614C431.233 506.495 430.306 506.325 429.217 506.12C427.038 505.711 424.203 505.167 421.413 504.639C418.622 504.11 415.875 503.597 413.868 503.247C412.864 503.072 412.048 502.938 411.505 502.864C411.342 502.842 411.207 502.826 411.1 502.815L411.18 503.194L410.646 502.788C410.63 502.777 410.605 502.756 410.583 502.725C410.562 502.696 410.529 502.636 410.534 502.556L409.911 499.593L409.852 499.31L410.142 499.292Z" fill="white" stroke="white" stroke-width="0.5"/>
<path d="M144.997 476.248C146.06 476.381 146.932 476.716 147.767 477.068C148.607 477.422 149.399 477.788 150.339 478.014C155.781 479.321 160.041 479.329 165.354 482.45L165.872 482.762L165.967 482.82L165.987 482.929L166.427 485.29L166.482 485.593L166.175 485.586C164.334 485.542 162.063 484.948 160.248 484.12L159.891 483.951C158.912 483.471 157.611 483.257 156.146 483.092C154.696 482.929 153.088 482.814 151.561 482.519C150.029 482.222 148.545 481.74 147.329 480.821C146.107 479.898 145.172 478.547 144.722 476.551L144.644 476.204L144.997 476.248Z" fill="white" stroke="white" stroke-width="0.5"/>
<path d="M425.82 351.257C428.008 350.681 430.24 350.239 432.742 350.805L433.246 350.932L433.389 350.972L433.422 351.117L433.561 351.729L433.59 351.86L433.497 351.957C433.291 352.169 432.957 352.36 432.557 352.534C432.151 352.712 431.651 352.884 431.09 353.049C429.969 353.378 428.588 353.684 427.197 353.945C424.42 354.467 421.563 354.82 420.602 354.834C420.485 354.836 420.368 354.837 420.251 354.838H420.224L420.198 354.832L419.237 354.625L419.111 354.598L419.06 354.479L418.386 352.917L418.231 352.558L418.623 352.568C421.2 352.637 423.474 351.874 425.82 351.257Z" fill="white" stroke="white" stroke-width="0.5"/>
<path d="M20.7651 432.043L22.2036 432.215L22.2837 432.225L22.3433 432.279C23.9942 433.791 26.2754 435.317 28.6089 436.844C30.6429 438.175 32.7171 439.507 34.4155 440.82L35.1196 441.383L35.1782 441.431L35.1997 441.504C35.3883 442.143 35.5476 442.682 35.6772 443.121L35.811 443.574L35.3608 443.43C34.6946 443.216 34.2466 442.972 33.9243 442.719C33.6009 442.465 33.4153 442.211 33.269 442.004C33.1178 441.79 33.0302 441.663 32.8921 441.576C32.7626 441.495 32.5578 441.432 32.1509 441.448C31.2063 441.485 30.0816 441.084 28.9302 440.455C27.7711 439.822 26.5528 438.94 25.4126 437.976C24.2717 437.011 23.2035 435.957 22.3433 434.979C21.4871 434.004 20.8234 433.087 20.5083 432.395L20.3247 431.99L20.7651 432.043Z" fill="white" stroke="white" stroke-width="0.5"/>
<path d="M89.3633 432.185C89.853 432.15 90.7582 432.215 91.2441 432.233L91.3252 432.236L91.3896 432.286C92.1902 432.914 93.0958 433.574 94.0371 434.265C94.9768 434.954 95.9505 435.674 96.8809 436.419C98.7357 437.903 100.445 439.506 101.372 441.194L101.603 441.615L101.126 441.563C99.0943 441.342 96.6924 439.856 94.5293 438.074C92.3552 436.284 90.3754 434.156 89.1816 432.586L88.9014 432.218L89.3633 432.185Z" fill="white" stroke="white" stroke-width="0.5"/>
<path d="M34.6196 432.17C35.0207 432.126 35.4814 432.207 35.9702 432.368C36.4619 432.531 36.999 432.781 37.5591 433.094C38.6792 433.72 39.9121 434.607 41.0913 435.581C42.2712 436.555 43.4034 437.621 44.3218 438.608C45.2352 439.59 45.9539 440.511 46.2886 441.194L46.4878 441.603L46.0366 441.553C45.2988 441.472 44.282 441 43.1802 440.337C42.0673 439.667 40.8318 438.781 39.646 437.832C38.4598 436.883 37.3179 435.868 36.394 434.939C35.4763 434.017 34.7537 433.162 34.4253 432.534L34.2554 432.21L34.6196 432.17Z" fill="white" stroke="white" stroke-width="0.5"/>
<path d="M742.549 350.622C743.282 350.628 744.011 350.663 744.665 350.761C745.314 350.858 745.908 351.018 746.361 351.284L746.561 351.417C746.996 351.746 747.212 352.194 747.341 352.679C747.414 352.952 747.461 353.244 747.503 353.536C747.546 353.833 747.585 354.129 747.641 354.431L747.696 354.727H747.396C746.451 354.728 744.812 354.411 743.208 354.003C741.598 353.594 739.983 353.083 739.077 352.681L739.075 352.68C739.016 352.653 738.977 352.611 738.959 352.59C738.938 352.564 738.919 352.537 738.904 352.512C738.873 352.461 738.843 352.398 738.814 352.334C738.755 352.204 738.69 352.038 738.629 351.871C738.51 351.545 738.387 351.169 738.347 351.057L738.229 350.724L738.583 350.723C739.081 350.722 739.702 350.695 740.388 350.668C741.072 350.641 741.816 350.617 742.549 350.622Z" fill="white" stroke="white" stroke-width="0.5"/>
<path d="M414.73 352.435C415.395 352.427 416.067 352.447 416.725 352.477L418.632 352.567L418.79 352.574L418.852 352.719L419.475 354.162L420.31 354.343L420.269 354.837C418.976 354.898 417.037 355.065 415.171 355.032C414.236 355.016 413.31 354.948 412.48 354.791C411.653 354.634 410.904 354.384 410.338 353.988L410.104 353.824L410.298 353.614L410.797 353.073L410.838 353.028L410.896 353.008C412.067 352.582 413.398 352.45 414.73 352.435Z" fill="white" stroke="white" stroke-width="0.5"/>
<path d="M524.142 506.305C525.1 506.241 525.726 506.77 526.265 507.338C526.546 507.635 526.781 507.917 527.064 508.198C527.325 508.458 527.599 508.684 527.912 508.849C532.642 509.028 537.384 508.946 542.133 508.836C546.899 508.725 551.676 508.587 556.444 508.66C556.578 508.662 556.655 508.753 556.683 508.79C556.716 508.835 556.74 508.886 556.757 508.93C556.791 509.019 556.82 509.136 556.846 509.261C556.898 509.514 556.945 509.85 556.984 510.192C557.064 510.878 557.12 511.621 557.139 511.831L557.163 512.104H432.778L432.902 511.768C433.095 511.243 433.285 510.576 433.524 510.075C433.761 509.581 434.115 509.096 434.713 509.103C464.569 509.451 494.294 508.275 524.142 506.305Z" fill="white" stroke="white" stroke-width="0.5"/>
<path d="M526.299 347.188L526.373 347.306L527.413 348.956L527.471 349.049L527.442 349.154C527.24 349.904 526.984 350.242 526.595 350.832L526.524 350.938L526.396 350.943C519.594 351.228 512.259 350.891 504.866 350.459C497.469 350.026 490.015 349.498 482.957 349.397V349.396C471.587 349.302 460.217 349.266 448.851 349.287H448.85C448.042 349.287 446.806 349.299 445.366 349.312C443.928 349.324 442.287 349.336 440.675 349.336C437.463 349.337 434.325 349.291 433.126 349.096L432.97 349.07L432.926 348.918L432.521 347.508L432.429 347.188H526.299Z" fill="white" stroke="white" stroke-width="0.5"/>
<path d="M389.854 506.3C391.978 506.286 393.338 506.774 394.717 507.316C396.087 507.855 397.472 508.444 399.69 508.679L400.161 508.717C401.408 508.792 403.64 508.789 405.793 508.839C407.015 508.867 408.208 508.912 409.161 508.999C409.637 509.042 410.06 509.097 410.398 509.166C410.684 509.224 410.942 509.299 411.121 509.405L411.192 509.453L411.249 509.495L411.275 509.561L412.153 511.761L412.29 512.104H356.353L356.289 511.946L355.678 510.421C355.208 509.855 354.552 509.606 353.812 509.496C353.045 509.382 352.261 509.423 351.516 509.39L351.505 508.891L354.401 508.637L354.648 507.949C353.924 507.781 353.083 507.657 352.207 507.546C350.829 507.372 349.368 507.232 348.227 507.002L348.272 506.507C357.677 506.369 367.083 506.352 376.487 506.454L376.486 506.455C377.176 506.457 378.208 506.475 379.401 506.495C380.597 506.516 381.959 506.538 383.308 506.546C386.018 506.562 388.646 506.52 389.81 506.305L389.832 506.3H389.854Z" fill="white" stroke="white" stroke-width="0.5"/>
<path d="M884.103 424.959L883.973 425.03C883.33 425.384 882.931 425.766 882.661 426.156C882.389 426.549 882.238 426.965 882.109 427.407C881.853 428.281 881.683 429.285 880.709 430.156C879.843 430.931 878.729 432.051 877.462 433.299C876.2 434.543 874.79 435.907 873.344 437.155C871.9 438.403 870.41 439.542 868.985 440.331C867.632 441.081 866.304 441.532 865.113 441.431C864.926 441.779 864.768 442.089 864.622 442.346C864.453 442.642 864.284 442.896 864.077 443.104C863.646 443.534 863.087 443.721 862.14 443.8L861.939 443.816L861.879 443.623L861.786 443.317C861.705 443.369 861.608 443.437 861.498 443.519C861.224 443.723 860.885 444 860.54 444.294C860.195 444.587 859.845 444.893 859.55 445.154C859.257 445.413 859.013 445.63 858.885 445.74L858.412 446.146L858.474 445.525C858.513 445.137 858.527 444.801 858.538 444.438C858.171 444.681 857.956 444.877 857.826 445.038C857.663 445.238 857.623 445.394 857.588 445.562C857.552 445.74 857.52 445.974 857.338 446.225C857.161 446.469 856.858 446.711 856.329 446.993L856.188 447.068L856.06 446.973L855.353 446.44L855.258 446.369L855.253 446.251L855.223 445.539L855.219 445.46L855.263 445.393C856.521 443.444 858.499 442.425 860.485 441.651C860.982 441.458 861.483 441.279 861.974 441.104C862.466 440.93 862.949 440.76 863.415 440.584C864.347 440.231 865.197 439.859 865.898 439.387C869.922 436.678 874.241 433.825 877.378 430.287C880.499 426.768 882.436 422.587 881.732 417.211C881.731 417.209 881.73 417.207 881.729 417.205C881.713 417.178 881.688 417.137 881.653 417.085C881.584 416.981 881.484 416.838 881.363 416.666C881.12 416.324 880.794 415.875 880.457 415.417C879.781 414.498 879.068 413.551 878.902 413.345V413.344C876.289 410.078 873.2 407.222 869.738 404.872L869.737 404.871C867.882 403.594 864.625 402.003 861.6 400.355C860.096 399.536 858.653 398.704 857.491 397.896C856.339 397.097 855.424 396.296 855.019 395.529L854.76 395.04L855.298 395.169C856.007 395.339 856.459 395.5 856.765 395.673C857.084 395.853 857.239 396.043 857.362 396.244C857.483 396.443 857.541 396.589 857.709 396.784C857.855 396.953 858.086 397.152 858.498 397.395L859.023 396.972L859.077 396.929L859.145 396.919C859.66 396.846 860.363 397.001 861.172 397.297C861.992 397.597 862.959 398.056 864.016 398.631C866.132 399.781 868.635 401.406 871.098 403.184C873.562 404.962 875.992 406.896 877.961 408.668C879.922 410.432 881.454 412.058 882.091 413.216C882.545 414.04 882.384 414.649 882.429 415.065C882.474 415.473 882.684 415.975 883.997 416.898L884.103 416.973V424.959Z" fill="white" stroke="white" stroke-width="0.5"/>
<path d="M21.4131 399.24C21.4126 399.849 21.117 400.372 20.6875 400.817C20.2594 401.262 19.6796 401.649 19.0664 401.995C18.4519 402.342 17.7865 402.658 17.1816 402.949C16.5703 403.244 16.0271 403.511 15.6338 403.771C11.7648 406.323 7.62312 409.93 4.69824 413.453C2.46346 416.145 1.77893 418.906 2.13184 421.602C2.4861 424.308 3.88898 426.972 5.87012 429.45C9.83394 434.408 16.059 438.55 20.5439 440.693C21.2262 441.02 21.3977 441.801 21.3984 442.362V442.611L21.1494 442.612C19.598 442.62 17.8554 442.032 16.0752 441.096C14.2911 440.157 12.4478 438.858 10.6895 437.414C7.1737 434.527 3.97246 431.047 2.23145 428.678C1.56204 427.767 1.44971 427.021 1.26367 426.415C1.17091 426.113 1.06019 425.84 0.859375 425.568C0.657906 425.295 0.355909 425.01 -0.133789 424.701L-0.25 424.628V416.99L-0.144531 416.915C0.360153 416.558 0.66685 416.333 0.860352 416.163C1.04915 415.997 1.10913 415.902 1.14258 415.812C1.16138 415.761 1.17506 415.703 1.19043 415.618C1.20436 415.542 1.22349 415.423 1.24707 415.302C1.29745 415.043 1.38272 414.697 1.57617 414.197C2.01221 413.071 3.20306 411.495 4.77441 409.8C6.35411 408.095 8.34385 406.242 10.4092 404.559C12.4737 402.875 14.6214 401.356 16.5166 400.321C17.4638 399.804 18.3547 399.405 19.1455 399.168C19.9311 398.933 20.6454 398.85 21.2246 398.998L21.4131 399.046V399.24Z" fill="white" stroke="white" stroke-width="0.5"/>
<path d="M252.102 495.692C255.079 495.732 257.154 495.732 259.21 496.04C261.274 496.349 263.312 496.966 266.233 498.229L266.214 498.308C268.689 499.267 271.439 499.284 274.244 499.174C277.125 499.06 280.076 498.812 282.738 499.386C291.967 501.374 300.091 502.168 309.385 502.137L309.643 502.136L309.636 502.394L309.554 505.588L309.552 505.66L309.513 505.72C309.408 505.879 309.24 506.002 309.05 506.1C308.857 506.199 308.619 506.283 308.351 506.355C307.813 506.5 307.118 506.606 306.322 506.677C304.729 506.819 302.699 506.831 300.647 506.748C298.595 506.665 296.513 506.488 294.813 506.249C293.964 506.13 293.207 505.994 292.595 505.847C291.992 505.702 291.503 505.539 291.21 505.353V505.352H291.208L291.343 505.14C291.337 505.125 291.29 505.047 291.219 504.924C291.107 504.986 291.096 505.108 291.095 505.127C291.093 505.164 291.099 505.194 291.101 505.2C291.103 505.211 291.107 505.219 291.108 505.224C291.111 505.232 291.114 505.238 291.115 505.24C291.116 505.243 291.117 505.244 291.117 505.245C291.117 505.244 291.115 505.241 291.111 505.234C291.103 505.218 291.088 505.193 291.068 505.158C291.029 505.089 290.969 504.988 290.897 504.866C290.754 504.622 290.559 504.296 290.36 503.97C290.162 503.643 289.961 503.319 289.806 503.078C289.74 502.976 289.683 502.892 289.639 502.829C289.08 502.979 288.171 503.074 287.02 503.125C285.736 503.181 284.122 503.186 282.295 503.144C278.639 503.059 274.119 502.789 269.658 502.38C265.199 501.971 260.793 501.422 257.368 500.779C255.657 500.458 254.183 500.112 253.067 499.746C252.51 499.563 252.036 499.373 251.664 499.176C251.298 498.981 251.003 498.766 250.837 498.52L250.772 498.422L250.805 498.31C251.151 497.123 251.376 496.76 251.878 495.824L251.949 495.69L252.102 495.692Z" fill="white" stroke="white" stroke-width="0.5"/>
<path d="M314.286 499.228C315.152 499.228 316.026 499.255 316.843 499.279C317.662 499.303 318.421 499.325 319.067 499.312L319.187 499.31L319.264 499.402C320.244 500.579 320.18 501.578 320.272 502.197C320.317 502.498 320.391 502.678 320.584 502.813C320.801 502.965 321.205 503.087 321.994 503.133C326.608 503.403 331.043 503.271 335.684 504.667L335.622 505.156C332.646 505.264 330.057 505.251 327.222 506.004C328.061 506.131 329.158 506.232 330.42 506.307C332.259 506.415 334.429 506.474 336.629 506.505C338.829 506.536 341.055 506.539 343.006 506.539C344.956 506.539 346.634 506.535 347.731 506.552H347.758L347.786 506.559C348.902 506.828 350.323 506.99 351.73 507.203C353.117 507.413 354.495 507.675 355.459 508.151L355.771 508.305L355.526 508.552L354.875 509.206L354.513 509.571L354.451 509.061L354.43 508.9L354.278 509.41L354.23 509.569L354.065 509.587L351.012 509.906C347.599 510.395 342.117 510.424 336.583 510.2C331.044 509.976 325.43 509.498 321.747 508.968C321.573 508.943 321.433 508.827 321.328 508.712C321.217 508.59 321.11 508.431 321.008 508.252C320.805 507.893 320.602 507.418 320.412 506.918C320.047 505.959 319.718 504.866 319.519 504.226C319.366 504.127 319.148 504.028 318.866 503.937C318.546 503.832 318.159 503.74 317.724 503.658C316.854 503.494 315.805 503.374 314.736 503.286C312.597 503.11 310.403 503.059 309.421 503.016L309.195 503.006L309.183 502.779C309.149 502.141 309.117 501.702 309.144 501.295C309.172 500.876 309.263 500.494 309.464 499.949L309.503 499.844L309.609 499.804C310.829 499.331 312.563 499.226 314.286 499.228Z" fill="white" stroke="white" stroke-width="0.5"/>
<path d="M336.707 348.672C344.277 348.632 352.139 348.888 354.491 348.998L354.529 349L354.565 349.013C355.533 349.364 357.287 349.588 359.489 349.727C361.531 349.855 363.93 349.905 366.386 349.923C366.481 349.922 366.576 349.922 366.67 349.922C368.152 349.917 369.649 349.921 371.092 349.929C374.884 349.915 378.34 349.884 380.252 349.998L380.238 350.497C380.233 350.497 380.227 350.496 380.222 350.496H380.22C379.064 350.499 377.057 350.476 374.657 350.454C373.539 350.444 372.336 350.435 371.092 350.429C369.731 350.434 368.323 350.436 366.922 350.429C366.743 350.428 366.563 350.424 366.384 350.423C363.728 350.434 361.142 350.474 359.04 350.567C357.95 350.616 356.992 350.678 356.223 350.758C355.447 350.839 354.884 350.936 354.569 351.046L354.532 351.059L354.493 351.06C352.695 351.102 345.604 351.083 338.874 351.113C335.506 351.128 332.227 351.155 329.741 351.208C328.497 351.234 327.455 351.267 326.699 351.308C326.696 351.308 326.693 351.307 326.691 351.308C326.834 351.329 326.987 351.351 327.147 351.369C327.971 351.463 328.987 351.521 330.035 351.558C332.145 351.632 334.312 351.619 335.338 351.646L335.373 352.143C333.259 352.499 330.01 352.62 326.998 352.74C325.487 352.801 324.033 352.862 322.8 352.952C321.561 353.043 320.568 353.162 319.966 353.334L319.805 353.38L319.702 353.248L319.391 352.856L319.307 352.75L319.35 352.622C319.47 352.263 319.604 351.794 319.777 351.364C319.951 350.932 320.18 350.495 320.521 350.186C320.707 350.017 320.988 349.881 321.325 349.766C321.667 349.648 322.09 349.544 322.58 349.451C323.559 349.266 324.825 349.122 326.285 349.01C329.205 348.786 332.922 348.692 336.707 348.672Z" fill="white" stroke="white" stroke-width="0.5"/>
<path d="M259.526 354.31C266.653 352.137 273.855 352.136 281.268 352.476L284.458 352.637L284.6 352.645L284.667 352.77L285.352 354.068L286.065 354.281L286.028 354.769C283.935 355.056 281.22 355.05 278.495 355.021C275.758 354.991 273.009 354.938 270.816 355.124C267.286 355.424 264.231 355.999 261.102 356.385C257.984 356.769 254.834 356.957 251.19 356.466L251.078 356.451L251.015 356.356L250.535 355.633L250.392 355.418L250.611 355.282C252.114 354.35 253.91 354.265 255.529 354.325C255.935 354.34 256.335 354.365 256.716 354.389C257.099 354.412 257.464 354.434 257.808 354.445C258.502 354.468 259.083 354.444 259.526 354.31Z" fill="white" stroke="white" stroke-width="0.5"/>
<path d="M556.528 347.188L556.601 347.311C557.07 348.102 557.484 348.522 557.855 348.755C558.222 348.985 558.57 349.045 558.948 349.075C559.316 349.104 559.755 349.103 560.203 349.235C560.667 349.373 561.143 349.649 561.648 350.215L561.737 350.315L561.703 350.445C561.552 351.015 561.419 351.376 561.185 351.685C560.957 351.986 560.644 352.224 560.189 352.57L560.11 352.63L560.012 352.62C558.774 352.498 558.131 351.93 557.556 351.348C556.987 350.771 556.506 350.211 555.556 349.932C553.664 349.376 551.12 349.224 548.512 349.23C545.904 349.237 543.273 349.399 541.184 349.459H541.163C537.093 349.217 531.415 349.362 527.198 349.34L527.06 349.339L526.987 349.223L525.947 347.571L525.706 347.188H556.528Z" fill="white" stroke="white" stroke-width="0.5"/>
<path d="M663.123 490.641C663.112 491.443 663.079 492.576 663.076 493.695C663.073 494.817 663.102 495.899 663.21 496.59L663.264 496.935L662.919 496.874C660.007 496.362 656.702 496.817 653.687 497.089L653.663 497.091L653.641 497.089C652.394 496.972 650.36 496.671 648.365 496.644C647.371 496.63 646.4 496.685 645.557 496.862C644.711 497.04 644.018 497.336 643.555 497.784H643.554C642.983 498.336 642.617 498.675 642.216 498.946C641.812 499.219 641.381 499.418 640.688 499.707L640.6 499.743L640.51 499.713L638.309 498.952L638.175 498.906L638.146 498.769L637.968 497.931L637.951 497.854L637.981 497.781C638.73 496.012 640.322 494.942 642.311 494.301C644.297 493.66 646.717 493.435 649.185 493.378C651.652 493.321 654.196 493.432 656.424 493.474C658.565 493.514 660.397 493.487 661.638 493.205L661.733 491.732L661.738 491.654L661.787 491.593L662.679 490.48L663.134 489.912L663.123 490.641Z" fill="white" stroke="white" stroke-width="0.5"/>
<path d="M587.932 347.188L587.827 347.515C587.671 348.002 587.413 348.558 587.214 349.012L587.176 349.1L587.089 349.139C585.911 349.676 584.687 349.672 583.5 349.588C582.295 349.502 581.148 349.338 580.024 349.499C580.036 349.497 580.007 349.499 579.936 349.572C579.871 349.639 579.795 349.74 579.711 349.874C579.543 350.141 579.364 350.505 579.187 350.901C578.826 351.71 578.514 352.562 578.324 353.006L578.28 353.109L578.174 353.146C578.067 353.181 577.959 353.214 577.852 353.244C576.628 353.586 574.927 353.612 573.266 353.403C571.604 353.194 569.943 352.745 568.802 352.106L568.622 352.006L568.687 351.81L568.906 351.146L568.949 351.016L569.082 350.981C570.432 350.634 571.567 350.613 572.564 350.678C573.06 350.71 573.526 350.764 573.959 350.808C574.395 350.852 574.8 350.886 575.191 350.885C575.965 350.882 576.681 350.737 577.44 350.232C578.208 349.722 579.037 348.832 580.003 347.305L580.076 347.188H587.932Z" fill="white" stroke="white" stroke-width="0.5"/>
<path d="M572.937 502.819C574.382 502.688 575.892 502.821 576.855 502.963L577.233 503.023L577.333 503.041L577.392 503.122C577.738 503.597 577.979 504.203 578.166 504.829C578.353 505.456 578.493 506.127 578.627 506.733C578.763 507.348 578.891 507.89 579.055 508.292C579.225 508.711 579.396 508.88 579.558 508.911C580.203 509.036 580.899 508.975 581.625 508.873C582.337 508.774 583.092 508.633 583.794 508.633C584.506 508.633 585.201 508.776 585.802 509.264C586.399 509.749 586.868 510.548 587.188 511.793L587.27 512.105H579.388L579.326 511.944L577.346 506.764C576.288 506.836 574.672 507.034 573.142 506.937C571.526 506.833 569.889 506.395 569.055 505.029L568.985 504.917L569.039 504.797C569.34 504.124 569.916 503.667 570.604 503.361C571.292 503.057 572.111 502.894 572.937 502.819Z" fill="white" stroke="white" stroke-width="0.5"/>
<path d="M294.789 350.703L296.663 351.331L296.766 351.366L296.811 351.465L297.502 352.979L297.65 353.303L297.295 353.332C295.355 353.489 293.413 353.864 291.507 354.194C289.608 354.523 287.745 354.809 285.993 354.772L285.959 354.771L285.927 354.762L285.114 354.52L285.014 354.49L284.965 354.397L284.229 353.005L284.033 352.634L284.452 352.638L286.742 352.656C287.808 352.133 288.494 351.764 289.012 351.496C289.535 351.225 289.898 351.052 290.301 350.945C290.703 350.839 291.133 350.8 291.788 350.775C292.432 350.751 293.358 350.738 294.701 350.69L294.746 350.689L294.789 350.703Z" fill="white" stroke="white" stroke-width="0.5"/>
<path d="M309.552 352.425C310.066 352.595 310.783 352.691 311.625 352.733C312.464 352.776 313.409 352.764 314.372 352.728C315.334 352.691 316.31 352.631 317.209 352.575C318.107 352.52 318.931 352.468 319.584 352.452L319.709 352.449L319.787 352.547L320.097 352.939L320.169 353.029L320.147 353.144L319.869 354.54L319.847 354.65L319.75 354.707L319.14 355.067L319.082 355.103H319.014L317.347 355.114H317.342C315.722 355.094 314.041 355.201 312.497 355.044C310.937 354.886 309.461 354.456 308.215 353.339L307.929 353.083L308.28 352.925L309.372 352.435L309.459 352.395L309.552 352.425Z" fill="white" stroke="white" stroke-width="0.5"/>
<path d="M304.261 350.872L304.437 353.057L304.459 353.326H304.188L297.271 353.332L297.11 353.333L297.044 353.187L296.397 351.771L294.627 351.178L294.705 350.69L304.011 350.643L304.242 350.642L304.261 350.872Z" fill="white" stroke="white" stroke-width="0.5"/>
<path d="M306.641 350.523C307.496 350.531 308.36 350.626 309.061 350.961L309.198 351.031L309.277 351.073L309.311 351.156C309.493 351.606 309.744 352.087 309.719 352.671L309.712 352.825L309.571 352.889L308.479 353.379L308.429 353.402L308.373 353.401L304.184 353.326L303.957 353.322L303.939 353.097L303.764 350.912L303.743 350.654L304.001 350.643C304.772 350.608 305.731 350.515 306.641 350.523Z" fill="white" stroke="white" stroke-width="0.5"/>
</g>
<defs>
<clipPath id="clip0_596_8424">
<rect width="839.666" height="839.666" fill="white" transform="translate(22.1919)"/>
</clipPath>
<clipPath id="clip1_596_8424">
<rect width="23.7749" height="245.674" fill="white" transform="translate(429.407 43.752)"/>
</clipPath>
<clipPath id="clip2_596_8424">
<rect width="23.7749" height="245.674" fill="white" transform="matrix(1 0 0 -1 429.407 800.964)"/>
</clipPath>
<clipPath id="clip3_596_8424">
<rect width="883.953" height="164.415" fill="white" transform="translate(0 347.439)"/>
</clipPath>
</defs>
</svg>
