<svg width="884" height="840" viewBox="0 0 884 840" fill="none" xmlns="http://www.w3.org/2000/svg">
<g clip-path="url(#clip0_596_8218)">
<path d="M836.58 552.346C839.856 559.792 831.417 577.472 828.348 584.707C813.608 619.213 794.313 651.587 770.983 680.979C765.359 688.097 759.424 694.727 753.532 701.608C751.3 696.907 756.459 692.491 759.182 689.167C761.643 686.172 764.263 683.357 766.693 680.305C797.322 642.087 820.98 598.77 836.58 552.346Z" fill="white"/>
<path d="M345.082 502.908C347.815 503.254 353.703 503.323 356.615 503.439C364.62 503.767 372.629 504.018 380.639 504.19C406.352 504.95 432.077 505.226 457.798 505.023C462.615 505.01 485.337 504.009 488.484 504.846C489.373 506.137 489.058 506.461 489.131 508.351C453.249 509.176 417.349 509.081 381.471 508.062C373.377 507.868 365.286 507.609 357.197 507.285C354.415 507.177 348.061 507.082 345.562 506.573C344.704 505.278 345.057 504.829 345.082 502.908Z" fill="white"/>
<path d="M685.04 77.8408C687.483 79.0162 696.72 86.1618 699.141 88.04C724.185 107.474 746.959 129.671 767.03 154.21C771.359 159.51 777.264 166.687 780.972 172.385C780.937 174.377 780.877 176.367 780.782 178.357C780.454 178.036 777.368 173.754 776.794 172.981C773.543 168.563 770.224 164.197 766.836 159.884C757.171 147.936 746.911 136.478 736.107 125.552C725.484 115.084 714.378 105.124 702.819 95.7066C697.398 91.2933 690.703 86.9397 685.519 82.242C684.802 81.5919 685.018 79.0102 685.04 77.8408Z" fill="white"/>
<path d="M837.335 668.422C839.135 672.514 841.976 681.544 843.266 685.913C851.817 714.812 859.958 749.858 859.915 780C848.601 780.259 847.129 778.895 836.93 774.125L837.128 770.879L837.659 770.474C841.561 771.682 853.112 777.406 857.191 779.37C855.982 771.807 855.395 761.849 854.333 753.881C852.275 738.622 849.383 723.484 845.679 708.54C842.714 696.441 835.505 679.654 837.335 668.422Z" fill="white"/>
<path d="M837.271 218.601C838.281 219.931 841.104 229.337 841.807 231.561C851.295 261.627 859.867 298.496 859.928 330.05C847.578 330.211 848.554 328.937 836.964 324.319C836.995 322.507 836.757 321.83 837.685 320.608C841.259 321.422 853.142 327.476 857.2 329.335C856.328 324.256 855.793 316.272 855.201 310.964C854.2 302.085 852.879 293.244 851.252 284.458C849.387 274.267 847.138 264.151 844.514 254.128C841.238 241.601 835.972 230.975 837.271 218.601Z" fill="white"/>
<path d="M407.743 343.232C424.35 343.021 440.96 342.967 457.565 343.071C464.324 343.112 471.256 343.093 478.02 343.181C479.734 343.203 481.262 343.826 482.354 345.197C482.354 345.716 482.496 346.181 482.052 346.344C478.56 347.623 468.813 346.924 465.282 346.912L433.777 346.873C410.731 346.856 384.614 347.192 361.528 348.375L360.95 347.787L361.037 344.811C362.248 344.056 403.691 343.312 407.743 343.232Z" fill="white"/>
<path d="M782.085 174.111C783.441 174.956 789.583 184.313 790.817 186.169C805.864 208.585 818.714 232.398 829.195 257.278C831.668 263.114 834.417 269.665 836.351 275.707C837.288 278.63 836.994 284.359 836.938 287.662C836.325 287.109 825.556 258.488 824.049 254.959C812.706 228.433 798.306 203.931 782.077 180.132L782.085 174.111Z" fill="white"/>
<path d="M147.481 67.71L147.953 68.2461C148.017 70.0884 148.303 71.7369 147.132 73.0914C141.966 79.0664 136.109 84.6123 130.919 90.5726C114.458 109.15 99.6544 129.132 86.6763 150.289C84.2276 154.274 79.2805 162.205 77.6165 166.406C74.4371 160.743 82.823 149.231 85.8622 144.407C103.349 116.532 124.028 90.7923 147.481 67.71Z" fill="white"/>
<path d="M77.1678 567.846C78.1166 568.709 87.7422 585.436 89.1761 587.719C94.212 595.718 99.4945 603.561 105.015 611.236C119.016 630.764 131.891 644.464 147.997 661.778L147.972 666.725C142.901 661.877 138.01 656.844 133.309 651.634C115.215 632.02 99.0123 610.739 84.9154 588.082C82.3553 583.994 78.951 578.892 77.2546 574.403C76.8644 573.371 77.1122 569.171 77.1678 567.846Z" fill="white"/>
<path d="M641.388 237.399C642.061 238.004 641.759 237.791 641.936 239.117C644.919 242.375 663.367 238.261 664.006 245.053L663.44 245.623C660.026 245.426 645.061 244.277 642.415 243.356L641.763 241.876L641.168 241.801C630.411 247.551 619.422 252.852 608.229 257.691C606.058 258.62 596.256 262.345 595.31 263.65C595.151 264.698 595.163 265.369 594.507 266.193C592.176 266.899 585.805 267.083 583.047 267.3C581.174 267.56 558.832 268.825 558.487 268.67C558.086 267.962 557.546 265.434 558.565 265.178C563.943 263.829 592.457 264.187 594.969 261.937C594.978 260.728 594.909 260.409 595.263 259.241C600.645 256.533 608.234 253.621 613.94 251.025C623.613 246.626 632.039 242.338 641.388 237.399Z" fill="white"/>
<path d="M243.189 50.0059L243.853 50.33C244.481 53.3784 243.481 54.1899 241.03 55.5492C223.186 65.4466 205.955 76.579 189.74 88.9787C183.432 93.802 176.561 99.1541 170.697 104.536L170.155 104.481C169.271 98.3697 174.809 96.0457 179.25 92.4375C199.27 76.1702 220.749 62.6236 243.189 50.0059Z" fill="white"/>
<path d="M835.855 456.294L836.338 456.233L836.912 456.687C837.133 458.279 837.253 458.305 836.533 459.795C832.039 462.177 823.087 465.009 818.184 466.632C797.189 473.582 775.775 478.282 754.197 482.936C753.55 483.022 753.912 483.061 753.161 482.59C752.859 480.985 752.872 481.071 753.459 479.526C755.837 478.308 766.4 476.452 769.792 475.71C792.307 470.802 814.351 464.608 835.855 456.294Z" fill="white"/>
<path d="M753.062 365C775.879 369.386 798.402 375.152 820.519 382.264C824.991 383.738 832.536 386.034 836.472 388.354C837.202 389.319 837.003 390.932 837.007 392.227C819.927 385.592 802.42 380.112 784.606 375.823C775.248 373.547 762.023 371.207 753.442 368.722C752.756 367.713 753.019 366.317 753.062 365Z" fill="white"/>
<path d="M242.018 353.593C242.951 353.385 242.579 353.406 243.546 353.653C244.27 355.255 244.104 354.422 243.934 356.268C242.342 357.933 223.525 359.29 219.527 359.779C203.652 361.722 187.8 363.854 171.975 366.173C171.472 366.337 171.099 366.297 170.544 366.324C169.552 365.005 169.686 364.463 170.345 363.11C172.946 361.99 184.016 360.646 187.351 360.177C205.525 357.595 223.751 355.399 242.018 353.593Z" fill="white"/>
<path d="M170.052 486.289C185.551 488.667 201.088 490.796 216.657 492.669C224.627 493.623 235.84 494.434 243.414 495.824C244.242 497.115 243.98 497.728 244.092 499.519C238.899 498.634 229.973 497.987 224.36 497.352C212.245 495.984 200.149 494.447 188.076 492.747C183.533 492.108 174.631 491.098 170.57 489.932C169.804 488.901 170.071 487.804 170.052 486.289Z" fill="white"/>
<path d="M146.598 301.049L147.401 300.969L147.955 301.674C148.004 303.645 148.253 302.789 147.375 304.387C145.243 305.082 141.948 305.719 139.667 306.094C118.751 309.529 98.703 315.109 78.2247 320.34L77.5393 320.576L76.963 319.812C76.9673 319.172 76.8063 318.438 77.1952 317.893C80.2305 313.636 137.462 302.319 146.598 301.049Z" fill="white"/>
<path d="M77.1293 413.192C92.2415 418.258 111.07 421.926 126.85 425.474C133.606 426.993 140.648 427.93 147.414 429.652C148.281 431.1 147.981 431.204 148.056 433.157C132.094 431.268 111.56 425.732 95.7684 422.195C91.7403 421.292 81.0607 418.563 77.5791 417.114C76.6722 415.517 77.0425 415.391 77.1293 413.192Z" fill="white"/>
<path d="M338.939 346.169C340.663 346.014 341.268 345.866 342.929 346.209C344.144 347.242 343.762 346.626 344.228 348.044L343.74 348.841C342.834 349.374 341.365 350.045 340.361 350.007C335.951 349.838 317.534 351.666 314.386 351.197L313.829 349.715L313.168 349.728L312.604 351.251C310.506 351.791 303.665 352.082 301.043 352.26C293.485 352.816 285.923 353.323 278.358 353.78C276.102 354.111 272.951 354.997 272.845 351.646C273.316 351.03 273.821 350.555 274.63 350.439C286.803 348.709 300.516 349.31 312.551 347.57C312.928 347.084 313.235 346.679 313.591 346.189L314.133 347.167C315.818 347.828 335.71 346.359 338.939 346.169Z" fill="white"/>
<path d="M716.45 732.894L716.877 733.33C717.028 734.292 717.171 735.207 716.916 736.174C715.319 742.273 672.91 770.707 664.537 776.141C663.207 774.609 663.971 772.053 665.784 770.918C683.848 759.596 700.199 746.612 716.45 732.894Z" fill="white"/>
<path d="M189.015 750.777C190.789 751.692 196.952 756.346 198.927 757.774C204.21 761.625 209.589 765.346 215.06 768.924C224.128 774.898 235.68 780.695 243.544 786.177C244.16 787.252 243.99 788.94 243.989 790.261C229.287 782.491 215.089 773.802 201.482 764.245C197.712 761.616 193.525 758.819 190.067 755.797C188.651 754.559 188.988 752.754 189.015 750.777Z" fill="white"/>
<path d="M664.002 355C678.781 356.692 693.53 358.657 708.241 360.896C712.63 361.561 723.607 363.036 727.405 364.18C728.169 365.392 727.91 365.97 727.984 367.654C723.452 367.487 707.084 364.563 701.844 363.75C689.468 361.831 676.757 360.626 664.524 358.751C663.743 357.676 663.98 356.412 664.002 355Z" fill="white"/>
<path d="M714.844 486.22C716.118 485.996 715.526 485.875 716.67 486.341C717.279 488.033 717.24 487.209 716.89 488.896C716.221 489.652 715.336 489.958 714.352 490.105C698.321 492.527 682.04 494.469 666 496.705C665.046 496.817 665.37 496.8 664.403 496.601C663.639 495.194 663.63 494.478 664.549 493.234C669.026 492.06 679.359 491.158 684.642 490.48C694.631 489.203 704.942 487.347 714.844 486.22Z" fill="white"/>
<path d="M641.129 785.499L641.785 785.719C642.299 786.824 642.445 786.958 641.966 788.162C640.197 792.647 602.476 808.122 595.53 810.936L595.297 810.772C594.922 809.87 594.758 807.28 595.755 806.883C611.449 800.641 626.25 793.437 641.129 785.499Z" fill="white"/>
<path d="M639.924 495.73C641.478 495.566 640.857 495.341 641.923 496.161C642.234 497.538 642.264 496.874 641.811 498.229C639.631 500.366 630.877 500.409 627.51 500.702C617.509 501.596 607.508 502.425 597.494 503.189C596.545 503.31 596.549 503.275 595.591 503.098C594.758 501.419 594.883 502.256 595.029 500.521C596.277 499.157 601.78 499.062 603.839 498.902C615.878 497.953 627.899 496.861 639.924 495.73Z" fill="white"/>
<path d="M535.813 503.115C537.777 502.985 540.665 502.489 542.055 503.581C542.003 505.286 542.249 504.539 541.36 505.929C538.347 507.733 533.983 506.935 530.456 507.09C521.154 507.531 511.848 507.863 502.538 508.079C500.82 508.144 497.643 508.541 496.361 507.72C495.657 506.244 495.791 507.013 496.076 505.308C496.327 505.049 496.573 504.79 496.823 504.531C507.661 503.974 525.488 503.46 535.813 503.115Z" fill="white"/>
<path d="M594.999 347C605.333 348.151 616.711 348.475 627.169 349.676C631.563 350.18 637.136 350.269 641.336 351.394C642.186 352.511 641.949 353.277 642.104 354.951C627.899 352.744 610.072 352.575 595.586 350.776C594.813 349.582 595.003 348.468 594.999 347Z" fill="white"/>
<path d="M495.964 344C506.448 344.507 517.205 344.38 527.698 344.941C531.492 345.143 537.768 345.124 541.359 345.768C542.296 347.042 541.951 347.405 542.003 349.375L511.87 348.247C509.28 348.17 498.182 348.116 496.482 347.669C495.731 346.623 495.955 345.367 495.964 344Z" fill="white"/>
<path d="M496.244 3.58301C507.027 5.35872 531.704 8.22564 541.489 12.2924C542.249 13.2902 542.02 14.453 541.998 15.789C539.007 15.3841 533.922 14.068 530.797 13.3919C524.418 12.0054 518.003 10.763 511.563 9.66564C509.263 9.28048 497.47 7.76416 496.322 7.20599C495.726 6.08507 496.076 4.91395 496.244 3.58301Z" fill="white"/>
<path d="M270.072 799.135C283.858 805.89 298.407 810.198 312.358 815.684C313.155 816.777 312.977 818.313 312.999 819.738C303.665 816.315 278.506 808.471 270.477 803.141C269.75 801.863 270.005 800.654 270.072 799.135Z" fill="white"/>
<path d="M446.032 830.103C450.655 830.193 473.475 830.465 475.811 831.941C475.91 832.77 476.013 833.469 476.156 834.29C478.845 835.878 483.981 832.697 488.216 833.931C489.381 835.179 488.98 835.01 489.014 837.316C486.291 837.648 478.038 838.969 476.164 837.799C476.039 836.621 476.152 836.461 475.495 835.511C472.78 834.143 451.906 834.436 446.519 833.741C445.717 832.33 446.032 832.006 446.032 830.103Z" fill="white"/>
<path d="M269.97 498.116C283.368 499.713 299.679 499.567 312.363 501.362C313.093 502.372 312.922 503.616 313.014 505.049C300.162 503.844 282.887 503.741 270.577 501.824C269.701 500.46 270.021 500.05 269.97 498.116Z" fill="white"/>
<path d="M311.852 20.709L312.829 20.7562C313.099 21.9865 313.005 22.0584 312.834 23.334C311.347 25.6017 303.064 27.6158 299.947 28.7604C291.266 31.9465 282.679 35.3862 274.199 39.075L273.615 39.2758L273.143 38.8758C273.133 38.0292 272.928 36.8868 273.348 36.139C275.105 33.0123 306.645 22.4 311.852 20.709Z" fill="white"/>
<path d="M558.228 97.2773C565.876 97.6533 573.521 98.0962 581.165 98.6064C584.972 98.8555 590.709 99.0709 594.33 99.7209C595.189 100.745 594.956 101.603 595.116 103.246C584.774 102.809 568.492 101.971 558.439 100.878C557.744 99.7973 558.085 98.6379 558.228 97.2773Z" fill="white"/>
<path d="M728.053 651.064C734.095 655.195 747.334 669.768 752.868 675.729L753.036 680.801C751.201 680.305 732.265 658.886 728.817 656.469C727.686 655.674 728.001 652.58 728.053 651.064Z" fill="white"/>
<path d="M728.061 382.114C733.686 385.8 747.623 401.098 752.881 406.749L752.954 412.035C750.442 410.223 742.871 401.409 740.104 398.726C736.746 395.466 732.645 391.112 729.166 387.786C727.582 386.269 727.992 384.373 728.061 382.114Z" fill="white"/>
<path d="M556.436 820.174C557.33 820.066 556.98 820.057 557.87 820.36C558.098 821.732 558.137 821.65 557.805 822.988C554.576 825.673 530.456 830.486 525.389 831.496C524.711 831.833 525.104 831.764 524.189 831.492C523.71 829.8 523.692 830.616 524.227 828.949C526.731 826.813 533.745 826.001 537.22 825.198C543.664 823.679 550.074 822.004 556.436 820.174Z" fill="white"/>
<path d="M314.206 816C322.161 819.522 337.31 821.909 343.594 824.767C344.235 825.881 343.938 826.886 343.799 828.22C338.641 827.154 318.764 822.065 314.487 819.984C313.8 818.922 314.113 817.351 314.206 816Z" fill="white"/>
<path d="M314.251 501.311C321.048 501.803 338.063 502.113 343.56 503.08C344.198 504.09 343.933 505.416 343.872 506.698C339.642 506.689 317.785 505.571 314.441 504.854C313.775 503.503 314.113 503.098 314.251 501.311Z" fill="white"/>
<path d="M148.087 715.002C151.055 716.854 165.21 731.297 168.823 734.137C170.419 735.393 170.021 737.504 169.97 739.611C165.976 737.306 153.83 725.318 149.796 721.567C147.503 719.439 147.99 718.015 148.087 715.002Z" fill="white"/>
<path d="M149.149 339.944C155.352 345.029 162.008 351.915 167.852 357.52C170.168 359.74 169.911 360.324 169.856 363.321C167.18 362.178 153.172 348.94 150.229 345.946C148.489 344.175 148.965 342.328 149.149 339.944Z" fill="white"/>
<path d="M642.139 688.895C646.908 691.299 659.702 698.443 663.423 701.555C664.152 702.841 663.963 704.438 663.963 705.971C658.092 702.151 647.193 696.569 642.471 692.952C641.699 691.584 642.001 690.5 642.139 688.895Z" fill="white"/>
<path d="M684.315 32.3154L684.91 32.8688C685.661 37.0264 681.764 38.829 678.669 40.942C674.042 44.1027 669.242 47.1381 664.528 50.1817L664.226 49.8726C663.837 48.4404 663.872 48.5328 664.101 47.0522C665.728 44.35 680.577 34.9301 684.315 32.3154Z" fill="white"/>
<path d="M641.992 789.613C647.755 793.727 657.747 797.586 663.307 802.472C664.14 803.206 663.967 805.688 663.989 806.966C658.291 803.266 646.969 797.418 642.497 793.951C641.725 792.605 641.953 791.193 641.992 789.613Z" fill="white"/>
<path d="M659.422 392.538C660.864 392.366 662.448 391.967 663.648 392.624C664.101 393.766 663.915 394.263 663.743 395.475C662.141 396.603 650.409 397.365 647.176 397.725C646.507 397.818 645.838 397.904 645.169 397.984C643.559 398.165 643.054 398.337 641.992 397.499C642.022 394.216 645.307 393.904 648.057 393.663C651.881 393.326 655.602 393.002 659.422 392.538Z" fill="white"/>
<path d="M333.319 14.3151L334.533 14.1768C335.251 15.0012 334.966 15.469 334.975 16.9144C333.088 18.8782 319.222 22.2826 315.627 23.2701L314.653 23.721L314.186 23.3103C313.864 21.8452 313.795 21.8927 314.407 20.4424C315.981 18.6983 330.303 15.1448 333.319 14.3151Z" fill="white"/>
<path d="M148.088 482.56C153.493 483.949 162.444 484.303 167.505 486.203C168.253 487.42 168.056 488.158 168.141 489.738C162.577 488.771 153.579 487.739 148.6 486.341C147.798 485.296 148.058 483.98 148.088 482.56Z" fill="white"/>
<path d="M148.975 106.864C152.194 107.21 164.911 109.209 167.51 110.171C168.196 111.436 168.016 112.111 168.093 113.666C163.9 113.034 153.095 111.618 149.471 110.422C148.75 109.173 148.989 108.475 148.975 106.864Z" fill="white"/>
<path d="M349.193 825.854C352.66 826.524 361.855 828.09 364.617 829.321C365.253 830.551 365.015 831.255 364.991 832.783C361.249 832.101 352.786 830.719 349.582 829.537C348.815 828.017 349.132 827.823 349.193 825.854Z" fill="white"/>
<path d="M359.144 8.30078L359.79 8.474C360.043 9.78114 360.271 10.1029 359.703 11.2754C357.523 13.0412 349.184 14.3041 345.839 15.0659C345.46 14.8839 345.167 14.5174 344.835 14.1927C344.516 12.8689 344.568 13.5549 345.192 12.0299C347.858 10.1544 355.657 8.979 359.144 8.30078Z" fill="white"/>
<path d="M359.454 332.582L359.917 332.864C360.043 334.788 360.285 334.382 359.548 335.907C356.733 337.395 349.189 336.789 345.057 337.109L345.02 333.295C349.802 333.116 354.668 332.826 359.454 332.582Z" fill="white"/>
<path d="M717.097 528.937C720.551 531.613 724.884 535.614 727.949 538.675L727.984 543.66C724.966 540.88 721.63 538.489 718.945 535.42C716.623 532.77 716.839 532.355 717.097 528.937Z" fill="white"/>
<path d="M482.168 443.106C485.358 442.847 492.567 443.145 495.735 443.819C496.179 445.157 496.015 445.856 495.907 447.25C491 447.479 487.521 446.288 482.535 447C481.866 445.968 482.147 444.552 482.168 443.106Z" fill="white"/>
<path d="M547.2 13.377C550.282 14.4504 554.689 14.64 557.257 16.5803C558.314 17.3789 558.012 18.7766 558.03 20.2057C554.244 19.1377 550.61 18.9969 547.485 16.868C546.712 15.2635 547.018 15.4552 547.2 13.377Z" fill="white"/>
<path d="M554.101 502.204C556.631 501.992 557.041 501.777 558.867 503.598C557.373 506.408 554.041 506.11 551.313 506.154C548.917 506.374 548.365 506.628 546.543 505.269C545.995 501.928 552.047 502.23 554.101 502.204Z" fill="white"/>
<path d="M546.945 333.615C550.735 333.931 553.847 333.29 557.218 334.506C558.345 335.799 557.956 335.713 558.021 337.944C554.395 337.687 550.903 338.348 547.795 337.172C546.621 335.843 547.027 335.925 546.945 333.615Z" fill="white"/>
<path d="M717.028 776.387C720.559 777.367 724.435 776.771 727.288 778.567C728.311 779.21 727.897 780.604 727.815 781.942C724.168 781.372 720.775 781.536 717.641 779.922C716.64 778.472 717.002 778.571 717.028 776.387Z" fill="white"/>
<path d="M335.01 136.176C337.657 137.141 341.319 137.253 343.342 138.82C344.225 139.504 343.993 141.085 344.024 142.315C342.151 141.936 340.215 141.604 338.357 141.179C334.776 140.36 335.006 139.197 335.01 136.176Z" fill="white"/>
<path d="M489.066 781.675C491.505 782.206 493.309 781.645 495.342 782.836C496.3 784.347 495.977 784.157 496.05 786.246C494.017 786.134 491.35 786.242 489.692 785.288C488.708 783.855 489.07 783.82 489.066 781.675Z" fill="white"/>
<g clip-path="url(#clip1_596_8218)">
<path d="M438.235 43.752H440.891L440.886 101.6L440.89 122.74C440.891 126.577 440.793 130.998 440.957 134.793C440.917 135.139 440.8 135.824 440.89 136.128C440.879 136.499 440.845 137.028 440.897 137.381C440.898 137.836 440.96 139.82 440.873 140.136C440.874 140.476 440.854 141.107 440.88 141.423L440.842 142.847C440.852 143.104 440.861 143.822 440.894 144.04C440.894 144.777 440.928 146.113 440.831 146.794L440.896 147.988C440.886 148.237 440.864 149.245 440.829 149.432L440.89 150.676C440.886 151.528 440.902 152.473 440.867 153.317L440.864 154.539C440.88 155.099 440.875 155.484 440.844 156.043C440.855 156.358 440.857 156.958 440.891 157.247L440.886 159.872C440.874 160.302 440.844 160.831 440.871 161.252C440.888 161.741 440.874 162.164 440.857 162.65L440.871 163.867C440.913 164.111 440.914 166.289 440.873 166.498C440.872 166.87 440.852 167.441 440.875 167.795C440.867 168.114 440.871 168.938 440.837 169.215L440.886 170.392C440.888 171.242 440.92 172.322 440.876 173.152C440.873 173.543 440.855 174.04 440.875 174.422C440.87 174.893 440.864 175.364 440.854 175.834C440.861 176.111 440.86 176.8 440.897 177.041C440.891 177.895 440.904 178.833 440.872 179.681L440.865 180.906C440.872 181.394 440.871 181.813 440.851 182.302C440.857 182.654 440.847 183.346 440.881 183.669C440.886 184.487 440.922 185.587 440.863 186.38L440.873 187.614C440.884 188.078 440.877 188.543 440.853 189.007L440.873 190.233C440.898 190.552 440.937 192.662 440.871 192.863C440.872 193.192 440.855 193.849 440.882 194.148C440.877 194.409 440.87 195.511 440.835 195.706C440.849 195.987 440.864 196.641 440.904 196.89C440.879 197.762 440.871 198.637 440.88 199.511L440.86 200.79L440.828 202.119L440.886 203.397C440.881 204.317 440.864 205.236 440.837 206.155L440.888 207.401C440.881 208.29 440.887 209.212 440.842 210.098C440.851 210.43 440.845 211.095 440.935 211.384L440.947 211.509C440.818 212.203 440.838 213.248 440.83 213.981L440.858 215.265L440.931 215.504C440.828 216.248 440.844 217.251 440.836 218.022L440.891 219.272C440.884 220.153 440.894 221.1 440.842 221.974C440.852 222.225 440.868 223.04 440.913 223.24L440.833 225.852C440.848 226.188 440.856 226.82 440.894 227.13C440.892 228.051 440.873 228.973 440.835 229.894C440.85 230.237 440.856 230.818 440.893 231.139C440.882 232.041 440.864 232.941 440.838 233.841C440.848 234.113 440.861 234.89 440.905 235.118C440.889 235.728 440.807 237.183 440.844 237.725C440.85 238.015 440.852 238.896 440.9 239.137C440.885 240.012 440.862 240.887 440.833 241.762C440.842 241.98 440.861 242.854 440.892 243.018C440.888 243.852 440.909 244.902 440.842 245.716L440.867 247.026L441.5 247.098C440.544 247.422 440.861 248.751 440.863 249.596L440.871 251.001C440.99 251.271 440.848 253.149 440.83 253.635C440.841 253.861 440.863 254.72 440.895 254.893L440.84 257.586L440.859 258.861L440.83 260.187L440.853 261.551L440.825 262.89L440.853 264.177L440.827 265.512L440.85 266.789L440.824 268.135L440.85 269.392L440.828 270.748L440.85 272.004L440.833 273.462L440.846 274.753L440.83 276.081L440.845 277.368L440.828 278.71L440.856 279.994L440.831 281.325L440.846 282.616L440.827 284.011L440.845 285.295L440.825 286.614L440.848 287.694C440.752 287.883 440.488 287.944 440.279 288.022C439.989 287.983 439.941 287.931 439.711 287.742C439.577 287.442 439.579 287.22 439.554 286.897L439.5 286.644L439.525 285.341C439.558 284.997 439.539 284.385 439.538 284.019L439.512 282.623C439.54 282.242 439.527 281.686 439.531 281.289L439.521 280.002C439.555 279.635 439.534 279.054 439.532 278.669L439.516 277.388C439.543 276.984 439.524 276.46 439.521 276.046L439.521 274.766C439.55 274.371 439.528 273.836 439.523 273.43L439.508 272.061L439.534 270.748L439.513 269.449L439.538 268.129L439.508 266.825L439.538 265.505L439.509 264.202L439.537 262.881L439.51 261.586C439.543 261.128 439.526 260.605 439.521 260.141L439.511 258.885C439.562 258.476 439.528 257.963 439.512 257.544C439.522 257.166 439.554 256.775 439.44 256.417C439.052 256.171 438.861 256.249 438.358 256.239L438.396 255.993C438.853 256.049 439.004 256.14 439.346 255.821C439.627 255.058 439.549 254.422 439.446 253.641C439.516 253.059 439.517 252.91 439.442 252.328C439.456 250.547 440.253 249.985 438.241 249.707C438.771 249.529 439.084 249.749 439.509 249.318C439.554 248.907 439.472 248.658 439.375 248.256C439.362 247.418 439.716 246.675 439.419 245.672C439.478 245.297 439.595 244.851 439.424 244.521C439.137 244.287 438.659 244.375 438.276 244.4L438.286 244.285C438.617 243.994 438.955 244.207 439.413 243.925C439.623 243.523 439.53 242.277 439.517 241.753C439.514 241.261 439.494 240.946 439.437 240.457C439.482 239.723 439.737 238.382 439.254 237.872L439.456 237.694C439.513 237.119 439.533 236.962 439.389 236.409L439.365 236.357C439.521 235.731 439.568 234.426 439.449 233.772C439.492 233.402 439.581 232.982 439.422 232.652C439.138 232.417 438.658 232.506 438.276 232.531L438.287 232.417L438.356 232.183C439.899 232.382 439.555 231.091 439.523 229.883C439.517 229.402 439.528 229.061 439.407 228.587L439.213 228.44C439.656 228.072 439.826 226.378 439.1 225.998L439.518 225.911C439.515 225.352 439.52 225.096 439.397 224.539L439.37 224.494C439.523 223.886 439.549 222.544 439.449 221.903C439.502 221.473 439.523 221.303 439.485 220.874C439.16 220.589 438.805 220.642 438.299 220.567C438.627 220.297 438.974 220.387 439.479 220.374C439.515 219.621 439.587 218.749 439.475 218.014C439.512 217.603 439.538 216.972 439.38 216.597C439.346 216.499 439.625 214.81 439.49 214.276L439.265 214.143C439.355 214.13 439.43 214.086 439.514 214.047C439.515 213.472 439.521 213.229 439.391 212.656L439.366 212.61C439.531 211.987 439.59 210.68 439.445 210.033C439.5 209.604 439.521 209.436 439.485 209.006C439.158 208.718 439.97 208.521 439.461 208.448L439.523 208.195C439.523 208.195 439.776 207.199 439.406 206.159C439.594 205.864 439.522 205.078 439.372 204.76L439.008 204.548C439.15 204.47 439.283 204.412 439.431 204.346C439.57 203.807 439.6 202.676 439.428 202.135C439.526 201.554 439.525 201.412 439.456 200.824C439.501 200.446 439.496 199.946 439.504 199.557L439.477 198.153C439.503 197.793 439.563 197.397 439.438 197.066C439.063 196.821 438.764 196.875 438.277 196.837C438.439 196.774 438.956 196.663 439.153 196.615C439.494 196.332 439.699 196.2 439.436 195.792C439.039 195.59 438.732 195.458 438.365 195.759C438.29 194.73 438.514 188.855 438.237 188.472L438.235 43.752Z" fill="white"/>
<path d="M440.894 43.752H441.85L441.73 118.963L441.71 132.224C441.713 133.506 442.29 134.265 441.839 134.74C441.466 134.806 441.338 134.806 440.959 134.793C440.796 130.998 440.893 126.577 440.892 122.74L440.888 101.6L440.894 43.752Z" fill="white"/>
<path d="M441.848 43.752H442.194L442.177 108.229C442.177 117.418 442.311 126.948 442.16 136.115L440.89 136.128C440.8 135.824 440.917 135.139 440.957 134.793C441.336 134.806 441.463 134.806 441.837 134.74C442.288 134.265 441.711 133.506 441.707 132.224L441.728 118.963L441.848 43.752Z" fill="white"/>
<path d="M440.896 137.375L442.14 137.38C442.179 138.082 442.201 139.406 442.145 140.131L440.873 140.13C440.959 139.814 440.897 137.831 440.896 137.375Z" fill="white"/>
<path d="M440.886 203.397L442.061 203.362C442.223 203.954 442.246 205.642 442.057 206.209C441.838 206.152 441.104 206.159 440.837 206.155C440.865 205.236 440.881 204.316 440.886 203.397Z" fill="white"/>
<path d="M442.057 207.361C442.253 208.004 442.191 209.388 442.125 210.084L440.839 210.098C440.885 209.212 440.879 208.29 440.885 207.401C441.206 207.391 441.758 207.392 442.057 207.361ZM442.025 209.962C442.006 209.579 442.035 209.198 441.777 208.92C441.504 208.778 441.433 208.739 441.12 208.743C441.094 209.095 441.006 209.555 441.208 209.821C441.534 209.953 441.679 209.947 442.025 209.962Z" fill="white"/>
<path d="M441.126 208.743C441.439 208.738 441.509 208.777 441.782 208.919C442.039 209.197 442.011 209.577 442.03 209.961C441.684 209.945 441.54 209.951 441.214 209.819C441.012 209.553 441.099 209.094 441.126 208.743Z" fill="white"/>
<path d="M442.108 211.337C442.2 211.897 442.228 213.432 442.112 213.982C442.009 213.457 442.034 213.13 441.688 212.755C441.355 212.695 441.484 212.677 441.17 212.847L441.019 213.357L440.948 211.506L440.936 211.381L442.108 211.337Z" fill="white"/>
<path d="M438.224 263.061C438.262 263.535 438.206 263.783 438.446 264.149C438.832 264.246 439.11 264.217 439.506 264.202L439.535 265.505L438.259 265.506C438.208 264.696 438.132 263.867 438.224 263.061Z" fill="white"/>
<path d="M440.93 215.504C440.939 215.796 440.912 216.492 441.073 216.683L441.384 216.761L441.645 216.589C442.111 216.794 442.097 217.394 442.136 217.862L442.028 218.015C441.63 218.025 441.232 218.028 440.834 218.022C440.843 217.252 440.827 216.248 440.93 215.504Z" fill="white"/>
<path d="M440.857 215.264C441.23 215.246 441.715 215.17 441.993 215.397C442.413 216.037 442.174 217.024 442.137 217.861C442.098 217.393 442.112 216.793 441.646 216.588L441.385 216.76L441.074 216.682C440.913 216.49 440.94 215.795 440.931 215.503L440.857 215.264Z" fill="white"/>
<path d="M440.852 264.175L442.102 264.174C442.154 264.704 442.162 264.96 442.134 265.49L440.827 265.509L440.852 264.175Z" fill="white"/>
<path d="M440.859 200.785H442.177L442.118 202.096L440.827 202.114L440.859 200.785Z" fill="white"/>
<path d="M442.142 140.135C442.143 140.574 442.142 140.994 442.172 141.433L440.878 141.42C440.851 141.105 440.871 140.475 440.87 140.135L442.142 140.135Z" fill="white"/>
<path d="M440.888 136.128L442.156 136.114L442.137 137.384L440.894 137.38C440.842 137.027 440.876 136.498 440.888 136.128Z" fill="white"/>
<path d="M442.174 199.539L441.818 199.669C441.927 199.639 441.981 199.626 442.084 199.577L441.938 199.777C442.172 200.201 442.177 200.302 442.182 200.789H440.864L440.884 199.511C441.218 199.508 441.871 199.486 442.174 199.539Z" fill="white"/>
<path d="M440.839 210.095L442.125 210.081C442.026 210.304 442.05 211.193 442.104 211.336L440.932 211.381C440.843 211.092 440.848 210.427 440.839 210.095Z" fill="white"/>
<path d="M440.836 206.155C441.103 206.159 441.837 206.152 442.056 206.209L441.996 206.421C442.14 206.612 442.079 207.121 442.059 207.36C441.76 207.391 441.208 207.39 440.888 207.4L440.836 206.155Z" fill="white"/>
<path d="M440.944 211.506L441.015 213.357L441.166 212.847C441.48 212.677 441.351 212.695 441.684 212.755C442.03 213.13 442.005 213.457 442.108 213.982L440.827 213.979C440.835 213.245 440.815 212.2 440.944 211.506Z" fill="white"/>
</g>
<g clip-path="url(#clip2_596_8218)">
<path d="M438.235 800.964H440.891L440.886 743.116L440.89 721.976C440.891 718.138 440.793 713.718 440.957 709.923C440.917 709.577 440.8 708.891 440.89 708.588C440.879 708.217 440.845 707.688 440.897 707.335C440.898 706.879 440.96 704.896 440.873 704.58C440.874 704.24 440.854 703.608 440.88 703.293L440.842 701.869C440.852 701.612 440.861 700.894 440.894 700.676C440.894 699.939 440.928 698.603 440.831 697.921L440.896 696.728C440.886 696.478 440.864 695.471 440.829 695.284L440.89 694.039C440.886 693.188 440.902 692.242 440.867 691.399L440.864 690.177C440.88 689.617 440.875 689.232 440.844 688.672C440.855 688.358 440.857 687.758 440.891 687.469L440.886 684.843C440.874 684.413 440.844 683.885 440.871 683.464C440.888 682.975 440.874 682.551 440.857 682.066L440.871 680.848C440.913 680.605 440.914 678.427 440.873 678.217C440.872 677.846 440.852 677.275 440.875 676.92C440.867 676.602 440.871 675.778 440.837 675.501L440.886 674.324C440.888 673.474 440.92 672.394 440.876 671.564C440.873 671.173 440.855 670.675 440.875 670.294C440.87 669.823 440.864 669.352 440.854 668.882C440.861 668.605 440.86 667.916 440.897 667.675C440.891 666.82 440.904 665.883 440.872 665.034L440.865 663.809C440.872 663.322 440.871 662.903 440.851 662.414C440.857 662.062 440.847 661.37 440.881 661.046C440.886 660.229 440.922 659.129 440.863 658.336L440.873 657.102C440.884 656.638 440.877 656.173 440.853 655.709L440.873 654.482C440.898 654.164 440.937 652.054 440.871 651.853C440.872 651.524 440.855 650.867 440.882 650.568C440.877 650.306 440.87 649.205 440.835 649.009C440.849 648.729 440.864 648.074 440.904 647.826C440.879 646.954 440.871 646.079 440.88 645.205L440.86 643.926L440.828 642.596L440.886 641.319C440.881 640.399 440.864 639.48 440.837 638.561L440.888 637.315C440.881 636.426 440.887 635.504 440.842 634.618C440.851 634.286 440.845 633.621 440.935 633.332L440.947 633.207C440.818 632.513 440.838 631.468 440.83 630.734L440.858 629.451L440.931 629.212C440.828 628.468 440.844 627.464 440.836 626.694L440.891 625.443C440.884 624.562 440.894 623.615 440.842 622.742C440.852 622.491 440.868 621.676 440.913 621.476L440.833 618.864C440.848 618.528 440.856 617.895 440.894 617.586C440.892 616.664 440.873 615.743 440.835 614.822C440.85 614.479 440.856 613.898 440.893 613.577C440.882 612.675 440.864 611.775 440.838 610.875C440.848 610.603 440.861 609.826 440.905 609.598C440.889 608.988 440.807 607.533 440.844 606.991C440.85 606.701 440.852 605.82 440.9 605.579C440.885 604.704 440.862 603.829 440.833 602.954C440.842 602.736 440.861 601.862 440.892 601.698C440.888 600.863 440.909 599.813 440.842 599L440.867 597.689L441.5 597.617C440.544 597.294 440.861 595.965 440.863 595.119L440.871 593.715C440.99 593.445 440.848 591.567 440.83 591.081C440.841 590.855 440.863 589.996 440.895 589.823L440.84 587.13L440.859 585.855L440.83 584.529L440.853 583.165L440.825 581.826L440.853 580.539L440.827 579.203L440.85 577.927L440.824 576.581L440.85 575.323L440.828 573.968L440.85 572.711L440.833 571.254L440.846 569.963L440.83 568.635L440.845 567.347L440.828 566.006L440.856 564.722L440.831 563.391L440.846 562.1L440.827 560.704L440.845 559.421L440.825 558.102L440.848 557.022C440.752 556.833 440.488 556.772 440.279 556.694C439.989 556.733 439.941 556.785 439.711 556.974C439.577 557.274 439.579 557.496 439.554 557.819L439.5 558.072L439.525 559.375C439.558 559.719 439.539 560.33 439.538 560.697L439.512 562.092C439.54 562.474 439.527 563.03 439.531 563.427L439.521 564.714C439.555 565.081 439.534 565.662 439.532 566.047L439.516 567.328C439.543 567.732 439.524 568.256 439.521 568.67L439.521 569.95C439.55 570.345 439.528 570.88 439.523 571.286L439.508 572.655L439.534 573.968L439.513 575.267L439.538 576.587L439.508 577.891L439.538 579.211L439.509 580.514L439.537 581.835L439.51 583.13C439.543 583.588 439.526 584.111 439.521 584.575L439.511 585.831C439.562 586.24 439.528 586.753 439.512 587.172C439.522 587.55 439.554 587.941 439.44 588.299C439.052 588.545 438.861 588.467 438.358 588.476L438.396 588.723C438.853 588.667 439.004 588.576 439.346 588.895C439.627 589.658 439.549 590.294 439.446 591.075C439.516 591.656 439.517 591.806 439.442 592.388C439.456 594.169 440.253 594.731 438.241 595.009C438.771 595.187 439.084 594.967 439.509 595.398C439.554 595.809 439.472 596.058 439.375 596.46C439.362 597.297 439.716 598.041 439.419 599.044C439.478 599.419 439.595 599.865 439.424 600.195C439.137 600.428 438.659 600.341 438.276 600.316L438.286 600.431C438.617 600.722 438.955 600.509 439.413 600.79C439.623 601.193 439.53 602.439 439.517 602.962C439.514 603.455 439.494 603.77 439.437 604.259C439.482 604.993 439.737 606.334 439.254 606.844L439.456 607.022C439.513 607.596 439.533 607.753 439.389 608.307L439.365 608.359C439.521 608.984 439.568 610.29 439.449 610.944C439.492 611.314 439.581 611.734 439.422 612.064C439.138 612.299 438.658 612.21 438.276 612.185L438.287 612.299L438.356 612.533C439.899 612.334 439.555 613.625 439.523 614.833C439.517 615.313 439.528 615.655 439.407 616.129L439.213 616.276C439.656 616.644 439.826 618.338 439.1 618.718L439.518 618.805C439.515 619.364 439.52 619.62 439.397 620.176L439.37 620.222C439.523 620.83 439.549 622.172 439.449 622.812C439.502 623.243 439.523 623.413 439.485 623.842C439.16 624.127 438.805 624.073 438.299 624.149C438.627 624.419 438.974 624.329 439.479 624.342C439.515 625.095 439.587 625.967 439.475 626.702C439.512 627.113 439.538 627.744 439.38 628.119C439.346 628.217 439.625 629.906 439.49 630.44L439.265 630.573C439.355 630.586 439.43 630.63 439.514 630.668C439.515 631.244 439.521 631.487 439.391 632.06L439.366 632.106C439.531 632.729 439.59 634.036 439.445 634.683C439.5 635.112 439.521 635.28 439.485 635.71C439.158 635.998 439.97 636.195 439.461 636.268L439.523 636.521C439.523 636.521 439.776 637.516 439.406 638.557C439.594 638.852 439.522 639.638 439.372 639.956L439.008 640.168C439.15 640.246 439.283 640.303 439.431 640.369C439.57 640.909 439.6 642.04 439.428 642.581C439.526 643.162 439.525 643.304 439.456 643.892C439.501 644.27 439.496 644.77 439.504 645.159L439.477 646.563C439.503 646.922 439.563 647.319 439.438 647.65C439.063 647.895 438.764 647.841 438.277 647.879C438.439 647.941 438.956 648.053 439.153 648.101C439.494 648.384 439.699 648.516 439.436 648.924C439.039 649.126 438.732 649.257 438.365 648.957C438.29 649.986 438.514 655.861 438.237 656.243L438.235 800.964Z" fill="white"/>
<path d="M440.893 800.964H441.85L441.73 725.753L441.709 712.492C441.713 711.21 442.29 710.451 441.839 709.976C441.465 709.909 441.337 709.91 440.959 709.923C440.795 713.718 440.893 718.138 440.892 721.976L440.888 743.116L440.893 800.964Z" fill="white"/>
<path d="M441.848 800.964H442.194L442.177 736.487C442.178 727.298 442.312 717.768 442.16 708.601L440.891 708.588C440.801 708.891 440.917 709.577 440.957 709.923C441.336 709.91 441.464 709.909 441.837 709.976C442.288 710.451 441.711 711.21 441.708 712.492L441.728 725.753L441.848 800.964Z" fill="white"/>
<path d="M440.896 707.334L442.14 707.329C442.179 706.627 442.201 705.303 442.145 704.578L440.873 704.579C440.959 704.895 440.897 706.878 440.896 707.334Z" fill="white"/>
<path d="M440.886 641.319L442.06 641.354C442.222 640.761 442.245 639.074 442.057 638.507C441.838 638.564 441.103 638.557 440.836 638.561C440.864 639.48 440.881 640.399 440.886 641.319Z" fill="white"/>
<path d="M442.057 637.354C442.253 636.712 442.191 635.328 442.125 634.632L440.839 634.618C440.885 635.504 440.879 636.426 440.885 637.315C441.206 637.325 441.758 637.323 442.057 637.354ZM442.025 634.753C442.006 635.137 442.035 635.518 441.777 635.796C441.504 635.938 441.433 635.977 441.12 635.972C441.094 635.621 441.006 635.161 441.208 634.895C441.534 634.763 441.679 634.769 442.025 634.753Z" fill="white"/>
<path d="M441.126 635.972C441.439 635.977 441.509 635.938 441.782 635.796C442.039 635.518 442.011 635.137 442.03 634.754C441.684 634.77 441.54 634.764 441.214 634.895C441.012 635.161 441.099 635.621 441.126 635.972Z" fill="white"/>
<path d="M442.108 633.373C442.2 632.813 442.228 631.278 442.112 630.728C442.009 631.253 442.034 631.58 441.688 631.955C441.355 632.015 441.484 632.033 441.17 631.863L441.019 631.353L440.948 633.204L440.936 633.329L442.108 633.373Z" fill="white"/>
<path d="M438.224 581.653C438.262 581.179 438.206 580.931 438.446 580.565C438.832 580.468 439.11 580.497 439.506 580.512L439.535 579.209L438.259 579.208C438.208 580.018 438.132 580.847 438.224 581.653Z" fill="white"/>
<path d="M440.93 629.21C440.939 628.917 440.912 628.222 441.073 628.03L441.384 627.953L441.645 628.125C442.111 627.92 442.097 627.32 442.136 626.852L442.028 626.699C441.63 626.689 441.232 626.686 440.834 626.692C440.843 627.462 440.827 628.466 440.93 629.21Z" fill="white"/>
<path d="M440.857 629.451C441.229 629.469 441.715 629.545 441.993 629.318C442.413 628.677 442.173 627.691 442.136 626.854C442.097 627.322 442.112 627.922 441.645 628.127L441.384 627.955L441.073 628.033C440.913 628.224 440.939 628.92 440.931 629.212L440.857 629.451Z" fill="white"/>
<path d="M440.852 580.539L442.102 580.54C442.154 580.009 442.162 579.754 442.134 579.224L440.827 579.204L440.852 580.539Z" fill="white"/>
<path d="M440.859 643.926H442.177L442.118 642.615L440.827 642.597L440.859 643.926Z" fill="white"/>
<path d="M442.143 704.578C442.144 704.139 442.142 703.718 442.173 703.28L440.878 703.293C440.852 703.608 440.871 704.238 440.871 704.578L442.143 704.578Z" fill="white"/>
<path d="M440.888 708.588L442.156 708.602L442.137 707.332L440.894 707.336C440.842 707.689 440.876 708.218 440.888 708.588Z" fill="white"/>
<path d="M442.174 645.173L441.818 645.044C441.927 645.074 441.981 645.087 442.084 645.136L441.938 644.936C442.172 644.512 442.177 644.41 442.182 643.924H440.864L440.884 645.202C441.218 645.205 441.871 645.227 442.174 645.173Z" fill="white"/>
<path d="M440.839 634.617L442.125 634.632C442.026 634.409 442.05 633.52 442.104 633.377L440.932 633.332C440.843 633.621 440.848 634.286 440.839 634.617Z" fill="white"/>
<path d="M440.837 638.555C441.104 638.551 441.838 638.558 442.056 638.501L441.996 638.289C442.14 638.098 442.08 637.589 442.059 637.35C441.76 637.319 441.209 637.32 440.888 637.31L440.837 638.555Z" fill="white"/>
<path d="M440.944 633.21L441.015 631.359L441.166 631.869C441.48 632.039 441.351 632.021 441.684 631.961C442.03 631.586 442.005 631.259 442.108 630.734L440.827 630.737C440.835 631.471 440.815 632.516 440.944 633.21Z" fill="white"/>
</g>
<path d="M168.051 606.644C168.59 606.838 168.772 607.028 169.26 607.356C170.088 609.052 169.92 610.598 169.959 612.523C169.103 612.212 169.322 612.246 168.581 611.603C167.781 609.928 168.012 608.534 168.051 606.644Z" fill="white"/>
<path d="M440.118 576.272C440.183 572.603 440.403 569.448 440.524 565.899C440.968 569.927 440.96 572.189 440.878 576.276L440.118 576.272Z" fill="white"/>
<path d="M148.123 119.782L148.798 120.369C149.281 122.156 148.993 123.434 148.801 125.283L148.37 124.826C147.803 123.2 148.048 121.542 148.123 119.782Z" fill="white"/>
<path d="M23.0505 391.867C26.2998 342.088 38.4342 293.294 58.8792 247.792C62.4636 239.835 66.3039 231.995 70.3937 224.285C72.3827 220.507 75.4003 215.484 77.063 211.728C77.0612 213.302 77.1368 218.601 76.6736 219.739C73.0664 228.609 67.8142 237.368 63.7909 246.112C55.9134 263.397 49.185 281.183 43.6501 299.355C34.0011 330.939 29.9253 356.997 26.8967 389.421C33.7015 385.987 71.3321 369.128 76.0767 370.832C76.5484 371.001 76.8225 371.244 77.205 371.531L77.4463 372.443C76.2709 374.337 70.3531 376.072 68.1448 376.704C53.0801 381.014 40.7168 386.814 26.7484 393.667C25.6406 411.159 25.6207 428.703 26.6889 446.197C35.1978 450.73 40.4873 453.009 48.9817 456.609C54.139 458.797 75.1586 465.371 77.2352 467.046L77.5252 468.16C77.0276 468.764 76.2977 469.671 75.4309 469.442C60.3887 465.531 40.3088 457.895 27.0095 450.578C29.4711 485.301 36.3482 519.561 47.4744 552.54C54.4825 573.496 63.2224 594.216 73.6893 613.688C77.2257 620.266 76.9995 620.853 77.0621 628.144C70.3505 614.948 64.5083 604.809 58.3082 590.866C39.3915 548.327 25.1081 494.871 23.0716 448.204C14.5612 443.158 6.25037 437.249 1.94338 428.002C0.99494 425.966 0.722355 424.321 0 422.413V417.526C3.88572 405.559 11.7776 397.558 23.0505 391.867ZM12.3901 435.894C15.727 438.768 19.1518 441.57 22.947 443.827C21.4977 434.78 23.01 397.425 22.263 396.654C7.44507 406.298 -5.12988 420.558 12.3901 435.894Z" fill="white"/>
<path d="M424.843 0H459.654C464.985 1.5774 477.451 0.415981 481.849 2.41841C482.134 4.14374 482.229 3.3486 481.685 4.90588C481.059 5.38839 480.196 5.83213 479.397 5.71075C472.854 4.71565 466.366 4.53587 459.754 4.27791C431.625 3.09179 403.446 4.70197 375.635 9.08473C373.052 9.48596 362.832 12.0591 361.263 10.9865C360.991 9.67921 361.031 9.73537 361.23 8.39806C364.551 5.72219 398.312 2.58913 403.763 1.85388C409.4 1.09335 418.714 1.24861 424.843 0Z" fill="white"/>
<path d="M426.634 840C419.267 838.235 380.071 837.419 376.23 834.294C376.116 832.835 375.937 832.658 376.371 831.328C378.56 831.009 399.773 834.026 404.11 834.428C412.752 835.265 421.423 835.77 430.103 835.938C433.967 836.02 442.06 835.805 445.513 836.241C446.187 837.367 445.928 838.623 445.867 840H426.634Z" fill="white"/>
<path d="M877.068 404.28C881.264 409.727 881.825 411.097 884 417.563V422.845C880.888 429.805 881.937 428.989 876.986 436.235C876.796 429.223 879.023 426.993 879.99 420.41C880.452 417.279 877.81 412.309 877.176 409.254C876.904 407.929 877.033 405.696 877.068 404.28Z" fill="white"/>
<path d="M170.121 834.928C172.715 832.831 186.377 821.439 188.286 820.753L188.913 820.986C190.227 827.033 174.146 834.497 170.605 840H170.09L170.121 834.928Z" fill="white"/>
</g>
<defs>
<clipPath id="clip0_596_8218">
<rect width="884" height="840" fill="white"/>
</clipPath>
<clipPath id="clip1_596_8218">
<rect width="23.7749" height="245.674" fill="white" transform="translate(429 43.752)"/>
</clipPath>
<clipPath id="clip2_596_8218">
<rect width="23.7749" height="245.674" fill="white" transform="matrix(1 0 0 -1 429 800.964)"/>
</clipPath>
</defs>
</svg>
