<svg width="390" height="390" viewBox="0 0 390 390" fill="none" xmlns="http://www.w3.org/2000/svg">
<g clip-path="url(#clip0_504_2697)">
<path d="M384.758 227.011L385.731 227.302C386.139 227.787 386.392 228.142 386.218 228.899C385.38 232.535 384.631 236.544 383.793 240.142C377.476 266.395 365.754 291.043 349.377 312.511C347.169 315.417 343.04 320.828 340.416 322.988C339.516 322.94 339.778 323.072 339.089 322.622C339.145 321.132 342.132 318.283 343.206 316.983C345.718 313.929 348.142 310.801 350.474 307.603C354.788 301.616 358.765 295.389 362.382 288.951C369.908 275.594 375.809 261.384 379.96 246.624C380.919 243.121 381.782 239.593 382.55 236.044C383.031 233.774 383.816 229.306 384.64 227.291L384.758 227.011Z" fill="black"/>
<path d="M3.43305 228.233C4.21329 228.376 4.24904 228.43 4.91847 228.891C5.46013 230.174 6.57703 235.958 6.98076 237.785C7.83953 241.716 8.85324 245.612 10.0195 249.462C15.7666 268.919 24.5822 287.334 36.1338 304.012C38.883 307.964 41.7653 311.82 44.7758 315.574C46.9383 318.229 49.3436 320.701 51.3891 323.452C51.3731 323.694 51.3568 323.936 51.3407 324.178C49.5264 323.837 48.6044 323.126 47.3768 321.7C26.3879 297.355 11.2942 267.859 4.62048 236.368C4.20305 234.398 2.90944 229.935 3.43305 228.233Z" fill="black"/>
<path d="M311.833 347.659C312.761 347.631 313.135 347.527 313.912 347.949C313.847 348.14 313.802 348.325 313.661 348.446C312.46 349.484 310.449 350.755 309.293 351.723C302.496 357.407 274.088 374.319 266.397 374.684C265.475 374.667 265.124 374.752 264.37 374.299C264.707 373.787 273.65 370.26 275.019 369.63C283.984 365.459 292.627 360.636 300.884 355.199C303.809 353.292 309.007 349.085 311.833 347.659Z" fill="black"/>
<path d="M76.3792 348.79C77.4966 348.731 78.7099 348.742 79.683 349.349C83.6331 351.808 87.4438 354.69 91.3602 357.219C97.4796 361.17 103.887 364.481 110.26 367.805C112.565 369.009 124.097 373.751 125.128 374.53C120.379 374.966 113.5 371.602 109.376 369.391C103.14 366.047 80.2753 354.032 76.3792 348.79Z" fill="black"/>
<path d="M55.2563 57.2266C56.3954 57.3506 57.0504 57.5295 57.7131 58.4933C57.5814 59.8554 56.162 61.0307 55.213 62.0072C46.9609 70.4973 39.607 79.8534 33.2176 89.8448C32.3294 90.1635 31.8645 90.2526 31.2188 89.6271C31.2986 88.1477 33.8723 84.9558 34.8165 83.605C40.8504 74.9709 47.6176 67.0124 54.7791 59.3087C55.1725 58.8854 55.2254 57.8085 55.2563 57.2266Z" fill="black"/>
<path d="M330.216 57.3969C330.275 57.395 330.334 57.3933 330.393 57.3916C330.492 57.3941 330.59 57.3967 330.689 57.3992C330.959 57.3688 331.755 57.4684 331.954 57.6009C337.652 61.3676 355.689 84.0744 357.756 88.8722C356.777 88.9664 356.62 88.9962 355.703 88.6691C354.162 87.158 350.3 81.3541 348.745 79.2582C344.793 73.9769 340.58 68.8944 336.122 64.0291C334.905 62.723 330.48 58.5217 330.216 57.3969Z" fill="black"/>
<path d="M22.7914 104.496L23.9315 104.847L24.0668 105.337C20.8967 112.136 17.4511 118.174 15.0141 125.39C14.2238 127.73 11.7852 135.093 10.615 136.461C9.60221 136.142 9.69946 136.357 9.28979 135.668C9.78848 131.446 19.9333 106.859 22.7914 104.496Z" fill="black"/>
<path d="M364.435 103.377C364.868 103.398 366.173 103.47 366.331 103.685C370.462 109.378 378.18 129.067 379.758 135.125C379.046 135.09 378.892 135.043 378.197 134.858C376.976 133.822 373.911 124.514 373.205 122.52C372.091 119.382 364.629 104.922 364.435 103.377Z" fill="black"/>
<path d="M85.75 33.7998C86.6421 33.7621 87.2417 33.6406 88.0292 34.0301L87.9803 34.506C80.793 38.3349 71.8925 46.8003 65.3729 51.737C64.4731 51.8422 64.2096 51.9601 63.4407 51.5795L63.4556 51.0975C66.445 47.9388 82.1494 35.1301 85.75 33.7998Z" fill="black"/>
<path d="M301.12 33.8014C301.685 33.7646 302.613 33.784 303.089 33.8869C306.573 34.6395 325.001 49.6144 326.264 51.6915C325.78 51.7165 324.292 51.802 323.876 51.4957C317.604 46.8905 311.937 41.4759 305.465 37.0707C304.185 36.2005 301.57 34.9908 301.12 33.8014Z" fill="black"/>
<path d="M51.6852 326.273C52.523 326.262 53.7403 326.175 54.4366 326.855C59.898 332.194 65.3728 337.509 71.2323 342.42C72.3514 343.356 73.4694 344.268 74.4273 345.317C73.9242 345.35 73.0138 345.393 72.5792 345.28C69.0085 344.355 52.993 328.588 51.6852 326.273Z" fill="black"/>
<path d="M335.241 326.247C336.054 326.219 336.119 326.222 336.918 326.363L337.14 326.751C335.151 329.653 321.606 342.546 318.431 344.349C317.596 344.357 317.185 344.45 316.482 344.065L316.541 343.561C317.52 342.954 318.127 342.343 319.002 341.629C324.787 336.904 329.802 331.279 335.241 326.247Z" fill="black"/>
<path d="M256.576 325.043C258.05 324.607 260.761 324.328 262.357 324.067C268.922 322.993 274.912 322.202 281.512 323.53C275.996 324.12 271.441 325.088 266.175 325.87C261.862 326.508 253.572 326.334 249.084 326.157C251.98 326.064 253.95 326.252 256.576 325.043Z" fill="black"/>
<path d="M215.065 326.244C211.921 326.292 195.086 326.295 193.458 323.691L193.695 323.246C195.418 322.27 210.758 324.709 213.88 325.139C214.357 325.505 214.742 325.735 215.065 326.244Z" fill="black"/>
<path d="M8.51686 138.26C9.10555 138.26 9.38629 138.325 9.95202 138.427L10.2018 138.877C9.63191 142.219 7.79135 148.37 6.80174 151.785C6.00704 151.968 5.95405 152.011 5.2131 151.754C4.64022 150.292 7.7284 140.109 8.51686 138.26Z" fill="black"/>
<path d="M257.938 376.962C259.071 376.951 259.974 376.824 260.983 377.294L260.804 377.623C258.492 378.785 250.051 381.189 247.542 381.361C245.75 381.434 243.946 381.341 242.153 381.277C244.146 380.557 256.415 377.142 257.938 376.962Z" fill="black"/>
<path d="M92.4975 51.6633L92.9354 51.69C93.4711 52.2452 93.7873 54.5782 93.7133 55.4073C93.465 58.1833 91.0285 57.7909 89.4791 57.7299C88.4376 56.9041 88.317 52.8513 89.2752 51.793C90.547 51.6051 91.2186 51.6377 92.4975 51.6633Z" fill="black"/>
<path d="M128.173 376.994C132.281 376.684 141.453 379.576 145.772 380.971L145.816 381.406C140.912 381.561 132.434 379.573 128.124 377.536L128.173 376.994Z" fill="black"/>
<path d="M378.633 137.152C379.311 137.229 379.356 137.268 379.969 137.498C381.516 139.142 383.903 148.621 383.974 150.944C383.265 150.844 383.133 150.862 382.511 150.464C381.383 148.956 378.802 139.058 378.633 137.152Z" fill="black"/>
<path d="M293.775 344.298C294.821 344.267 298.694 344.14 299.478 344.621C298.424 345.476 294.101 346.722 292.568 347.214C290.771 347.783 287.922 347.645 285.995 347.6C288.448 346.407 291.24 345.308 293.775 344.298Z" fill="black"/>
<path d="M48.0873 345.481C53.1484 345.121 55.7117 346.224 60.3391 348.308L60.3653 348.84C56.3997 348.78 51.4004 348.035 47.9464 346.007L48.0873 345.481Z" fill="black"/>
<path d="M357.736 92.1879C361.125 92.101 362.582 96.2134 363.966 98.8847C360.903 99.8081 358.833 94.5194 357.736 92.1879Z" fill="black"/>
<path d="M28.6778 93.3018C29.372 93.306 29.5264 93.2601 30.1372 93.6154C30.2455 95.345 27.6251 98.9209 26.5545 100.364C25.6158 100.272 25.881 100.431 25.2612 99.8906C25.2298 97.9252 27.5279 95.0196 28.6778 93.3018Z" fill="black"/>
<path d="M328.441 30.4159C329.301 30.3813 329.386 30.392 330.226 30.5788L330.392 30.9576C329.442 32.1124 327.062 33.1972 325.648 33.7471C324.781 33.7954 324.621 33.8424 323.806 33.6168L323.685 33.2284C324.644 32.1603 327.065 30.9874 328.441 30.4159Z" fill="black"/>
<path d="M285.874 150.267C286.206 150.391 286.642 150.619 286.971 150.777C287.983 152.131 288.52 154.225 287.578 155.7C285.199 155.145 284.417 152.134 285.874 150.267Z" fill="black"/>
<path d="M370.986 98.8856C374.009 98.7886 374.296 101.243 374.133 103.678C371.514 103.596 370.974 101.222 370.986 98.8856Z" fill="black"/>
<path d="M298.586 150.264C299.27 150.52 298.974 150.326 299.472 150.911C299.517 153.003 299.334 154.617 297.571 155.853L296.772 155.174C296.089 153.413 297.321 151.437 298.586 150.264Z" fill="black"/>
<path d="M384.944 88.4941C385.276 88.5616 385.535 88.6778 385.856 88.7976L385.982 89.3359C385.394 90.8319 383.997 91.895 382.63 92.6454C381.704 92.3928 382.084 92.6243 381.434 91.956L381.496 91.2411C382.329 89.8363 383.457 89.0668 384.944 88.4941Z" fill="black"/>
<path d="M294.691 88.8736L295.028 88.8404C297.213 88.6463 299.708 90.3377 299.849 92.5146C297.579 92.4002 295.363 91.1523 294.691 88.8736Z" fill="black"/>
<path d="M213.88 325.14C217.522 325.249 223.929 325.28 227.367 325.666C222.911 326.315 219.583 326.259 215.065 326.245C214.742 325.736 214.357 325.505 213.88 325.14Z" fill="black"/>
<path d="M69.6753 223.428L70.4403 223.911C70.9746 225.644 69.9936 226.796 68.5472 227.693C68.0451 227.526 68.062 227.485 67.6081 227.184C66.9305 225.264 68.2012 224.391 69.6753 223.428Z" fill="black"/>
<path d="M241.784 326.026C245.021 325.291 252.814 325.232 256.576 325.044C253.95 326.253 251.981 326.065 249.085 326.158C246.528 326.214 244.342 326.141 241.784 326.026Z" fill="black"/>
<path d="M55.9606 223.798C58.2483 223.927 59.6267 225.215 58.3766 227.481L57.2223 227.469C55.7289 226.715 55.5804 225.302 55.9606 223.798Z" fill="black"/>
<path d="M356.903 98.5586C357.891 98.7791 358.116 98.8758 358.453 99.7885C358.315 100.956 357.764 101.63 357.134 102.639C356.738 102.616 356.358 102.544 355.964 102.484C354.876 101.104 355.863 99.638 356.903 98.5586Z" fill="black"/>
<path d="M7.83419 382.528C9.79099 382.463 12.7542 382.444 14.6419 382.922L14.8233 383.285L14.3384 383.622C12.7181 383.645 8.59343 383.83 7.32415 383.422L7.17407 383.02L7.83419 382.528Z" fill="black"/>
<path d="M118.709 31.5848C120.582 31.481 123.688 31.9096 124.688 33.7004C122.872 33.8539 119.47 33.4405 118.709 31.5848Z" fill="black"/>
<path d="M264.354 381.457C266.082 381.386 268.4 381.35 270.052 381.918L269.972 382.284L269.204 382.385C267.649 382.461 264.27 382.689 262.955 382.12C263.327 381.519 263.394 381.69 264.354 381.457Z" fill="black"/>
<path d="M107.637 374.605L108.714 374.76L108.991 375.157C108.422 375.986 107.251 376.487 106.321 377.002C105.286 376.9 105.387 377.072 104.701 376.532L104.908 375.986C106.033 375.165 106.347 375.078 107.637 374.605Z" fill="black"/>
<path d="M350.035 374.636C351.675 374.608 353.948 375.181 354.67 376.824C352.544 376.998 350.817 376.784 350.035 374.636Z" fill="black"/>
<path d="M302.676 134.611C303.584 134.916 303.626 134.723 304.009 135.549C303.677 136.477 302.875 136.923 302.057 137.552C301.559 137.542 301.472 137.432 301.019 137.196L300.907 136.549C301.433 135.476 301.75 135.306 302.676 134.611Z" fill="black"/>
<path d="M182.707 0H206.083C207.62 0.538293 222.416 2.01648 225.497 2.51845C248.138 6.23244 269.954 13.8834 289.955 25.1245C291.338 25.9019 297.236 29.1538 297.922 30.1087C297.304 30.5106 295.622 30.3823 295.037 30.0462C269.911 15.5802 245.058 6.4604 215.774 3.23752C179.822 -0.677306 143.494 5.54625 110.896 21.2042C107.615 22.7487 92.768 31.4769 90.8288 31.6491C90.2221 31.7028 89.9704 31.5987 89.5387 31.1979C89.9859 30.3255 99.6952 24.8609 101.201 24.0204C119.702 13.8655 139.735 6.79241 160.51 3.07879C164.865 2.32215 168.891 1.7982 173.276 1.33225C175.646 1.08039 180.65 0.746353 182.707 0Z" fill="black"/>
<path d="M184.316 389.25C181.445 388.097 176.249 388.435 173.04 387.906C165.559 386.677 153.711 385.805 146.804 383.085L146.681 382.801C151.314 381.955 158.4 383.817 163.349 384.612C168.138 385.425 172.958 386.047 177.796 386.477C192.325 387.627 206.934 387.256 221.386 385.369C225.574 384.854 240.38 381.069 243.236 383.178C242.34 383.766 226.587 386.247 224.444 386.868C219.819 388.21 209.639 387.568 205.499 389.25H184.316Z" fill="black"/>
<path d="M0 183.1C1.84978 180.069 1.11147 158.254 4.95205 156.352L5.44618 156.452C6.01833 157.708 3.78217 169.079 3.33118 172.793C1.28543 189.64 2.31204 206.865 3.89883 223.684C3.85796 223.771 3.81712 223.859 3.77629 223.946L3.36139 224.07C0.158847 222.126 1.77934 208.857 0 205.502V183.1Z" fill="black"/>
<path d="M389.251 205.753C388.095 207.873 388.269 218.991 387.062 221.937C386.778 222.63 386.396 222.669 385.805 222.877L385.406 222.558C385.153 221.327 386.635 208.458 386.767 206.283C387.124 199.815 387.203 193.334 386.998 186.86C386.767 180.83 386.238 174.816 385.411 168.839C385.127 166.679 382.79 156.411 384.191 155.312C387.445 157.04 387.653 179.47 389.251 184.121V205.753Z" fill="black"/>
</g>
<defs>
<clipPath id="clip0_504_2697">
<rect width="389.25" height="389.25" fill="white"/>
</clipPath>
</defs>
</svg>
