<svg width="390" height="390" viewBox="0 0 390 390" fill="none" xmlns="http://www.w3.org/2000/svg">
<g clip-path="url(#clip0_1102_4110)">
<path d="M19.0313 274.414L18.0624 274.719C17.4524 274.545 17.0437 274.393 16.764 273.669C15.4194 270.188 13.7909 266.449 12.4677 263C2.97839 237.72 -1.13511 210.738 0.388948 183.779C0.58811 180.136 0.972814 173.34 1.93453 170.08C2.70656 169.615 2.41587 169.652 3.23874 169.639C4.02794 170.904 3.15213 174.938 2.99106 176.617C2.62396 180.554 2.37008 184.503 2.23245 188.458C2.01732 195.835 2.21567 203.221 2.83039 210.579C4.08745 225.859 7.169 240.934 12.0072 255.483C13.1772 258.921 14.4403 262.327 15.7948 265.696C16.669 267.845 18.5245 271.985 18.972 274.116L19.0313 274.414Z" fill="black"/>
<path d="M334.094 59.5972C333.368 59.9164 333.308 59.8917 332.495 59.8858C331.327 59.1269 327.159 54.9634 325.8 53.677C322.885 50.9037 319.862 48.2466 316.737 45.7121C301.07 32.8238 283.445 22.5184 264.529 15.1853C260.037 13.4547 255.488 11.8779 250.89 10.4569C247.611 9.47096 244.233 8.77251 240.997 7.64182C240.875 7.43255 240.753 7.22313 240.63 7.01387C242.323 6.27838 243.486 6.35067 245.302 6.84305C276.331 15.2332 305.367 31.1935 328.55 53.5273C330 54.9244 333.573 57.8945 334.094 59.5972Z" fill="black"/>
<path d="M11.7695 133.626C11.0168 134.169 10.7654 134.465 9.88607 134.551C9.8324 134.357 9.76559 134.178 9.81422 133.999C10.2267 132.466 11.1791 130.286 11.5938 128.837C14.0356 120.319 28.0761 90.3874 34.2395 85.7724C35.0121 85.2696 35.2557 85.0028 36.1339 84.9549C36.1419 85.5677 30.7142 93.5024 29.9333 94.792C24.8492 103.272 20.3971 112.112 16.6079 121.243C15.255 124.462 13.3105 130.86 11.7695 133.626Z" fill="black"/>
<path d="M206.098 0.673172C205.206 1.34859 204.195 2.01956 203.048 2.06215C198.399 2.24156 193.628 1.9911 188.967 2.09335C181.684 2.25243 174.523 3.10365 167.382 3.92429C164.798 4.22032 152.591 6.75932 151.301 6.69234C154.988 3.66872 162.571 2.59699 167.225 2.1152C174.263 1.38797 199.932 -1.48324 206.098 0.673172Z" fill="black"/>
<path d="M387.064 230.253C386.051 230.789 385.408 231.008 384.319 230.581C383.665 229.38 384.181 227.611 384.419 226.27C386.492 214.613 387.335 202.743 387.024 190.887C387.581 190.125 387.916 189.791 388.801 189.947C389.564 191.217 389.223 195.303 389.198 196.951C389.043 207.483 387.902 217.867 386.292 228.261C386.203 228.832 386.763 229.754 387.064 230.253Z" fill="black"/>
<path d="M159.294 384.278C159.246 384.313 159.198 384.347 159.15 384.382C159.067 384.435 158.984 384.488 158.901 384.541C158.695 384.717 157.98 385.081 157.74 385.084C150.91 385.159 123.244 376.47 118.842 373.657C119.6 373.03 119.713 372.917 120.656 372.674C122.779 373.061 129.231 375.701 131.694 376.565C137.927 378.722 144.266 380.569 150.685 382.098C152.425 382.496 158.444 383.495 159.294 384.278Z" fill="black"/>
<path d="M387.442 172.909L386.301 173.258L385.915 172.928C384.728 165.521 384.195 158.589 382.167 151.248C381.51 148.867 379.4 141.403 379.602 139.614C380.62 139.311 380.419 139.187 381.144 139.528C383.098 143.303 388.484 169.35 387.442 172.909Z" fill="black"/>
<path d="M105.179 365.392C104.809 365.617 103.688 366.289 103.436 366.199C96.8235 363.802 79.3938 351.826 74.6905 347.694C75.2993 347.324 75.454 347.277 76.133 347.04C77.7243 347.214 85.4818 353.202 87.1843 354.458C89.8661 356.432 104.152 364.221 105.179 365.392Z" fill="black"/>
<path d="M374.949 266.748C374.232 267.28 373.803 267.716 372.933 267.835L372.706 267.414C376.511 260.214 379.134 248.214 381.765 240.47C382.451 239.879 382.603 239.634 383.453 239.518L383.711 239.925C383.007 244.217 377.185 263.628 374.949 266.748Z" fill="black"/>
<path d="M196.616 387.501C196.168 387.849 195.389 388.353 194.938 388.534C191.63 389.865 167.976 387.797 165.765 386.786C166.152 386.494 167.336 385.589 167.852 385.609C175.628 385.906 183.356 387.212 191.185 387.231C192.732 387.234 195.576 386.769 196.616 387.501Z" fill="black"/>
<path d="M239.17 5.47158C238.482 5.95066 237.523 6.70533 236.565 6.5322C229.05 5.17417 221.536 3.84234 213.931 3.06158C212.479 2.91354 211.043 2.78582 209.661 2.45427C210.059 2.14421 210.789 1.59883 211.212 1.44835C214.688 0.212461 236.789 4.28822 239.17 5.47158Z" fill="black"/>
<path d="M4.39169 164.479C3.73443 164.958 3.67926 164.992 2.93903 165.323L2.53745 165.127C2.55654 161.608 6.54355 143.339 8.16199 140.065C8.84892 139.59 9.13687 139.283 9.93512 139.208L10.1685 139.658C9.69867 140.71 9.53783 141.556 9.21411 142.638C7.07295 149.794 6.07452 157.263 4.39169 164.479Z" fill="black"/>
<path d="M253.858 207.339C254.481 208.744 255.106 211.397 255.571 212.946C257.484 219.318 259.04 225.156 258.574 231.871C257.277 226.478 255.731 222.086 254.276 216.964C253.087 212.77 252.191 204.527 251.788 200.054C252.253 202.914 252.32 204.891 253.858 207.339Z" fill="black"/>
<path d="M123.631 174.748C126.207 172.946 140.146 163.504 142.954 164.748L143.007 165.249C142.127 167.023 128.058 173.605 125.232 174.999C124.632 174.964 124.184 174.989 123.631 174.748Z" fill="black"/>
<path d="M380.331 136.948C379.843 137.278 379.575 137.382 379.049 137.614L378.59 137.382C377.188 134.296 375.263 128.17 374.168 124.788C374.724 124.191 374.743 124.125 375.501 123.923C376.795 124.812 379.947 134.975 380.331 136.948Z" fill="black"/>
<path d="M39.9661 79.1431C39.0339 79.788 38.3576 80.3988 37.2586 80.5757L37.2222 80.2029C38.485 77.945 44.1265 71.2209 46.1081 69.6719C47.551 68.6065 49.0961 67.6724 50.6174 66.7204C49.3705 68.4343 41.1258 78.1405 39.9661 79.1431Z" fill="black"/>
<path d="M359.346 255.739L358.969 255.963C358.214 255.803 356.644 254.049 356.24 253.321C354.889 250.883 357.127 249.842 358.444 249.024C359.769 249.124 362.142 252.412 361.942 253.825C360.994 254.694 360.419 255.044 359.346 255.739Z" fill="black"/>
<path d="M147.398 6.35899C144.17 8.91843 134.954 11.6674 130.596 12.9337L130.315 12.5975C134.289 9.71953 142.424 6.61252 147.134 5.8821L147.398 6.35899Z" fill="black"/>
<path d="M74.4855 345.385C73.881 345.701 73.8223 345.695 73.1856 345.848C70.9826 345.353 63.6908 338.843 62.3304 336.96C62.9732 336.645 63.0728 336.556 63.8104 336.537C65.5898 337.153 73.2772 343.901 74.4855 345.385Z" fill="black"/>
<path d="M28.607 126.283C27.758 126.896 24.6222 129.172 23.7028 129.214C24.0967 127.914 26.9776 124.459 27.9708 123.192C29.1404 121.714 31.5768 120.23 33.1972 119.188C31.8351 121.55 30.1392 124.026 28.607 126.283Z" fill="black"/>
<path d="M117 370.9C114.242 372.872 110.73 370.284 108.087 368.848C110.105 366.366 114.784 369.585 117 370.9Z" fill="black"/>
<path d="M388.845 185.479C388.268 185.865 388.165 185.99 387.46 186.038C386.401 184.666 386.566 180.236 386.643 178.441C387.472 177.991 387.163 178.008 387.98 178.108C389.107 179.718 388.834 183.412 388.845 185.479Z" fill="black"/>
<path d="M143.94 282.517C143.595 282.599 143.106 282.655 142.745 282.709C141.148 282.156 139.529 280.723 139.482 278.973C141.763 278.098 144.099 280.154 143.94 282.517Z" fill="black"/>
<path d="M102.273 372.783C99.8244 374.558 98.2105 372.687 96.9807 370.58C99.1944 369.179 100.973 370.842 102.273 372.783Z" fill="black"/>
<path d="M133.415 289.647C132.705 289.818 133.059 289.814 132.319 289.608C131.108 287.901 130.355 286.462 131.122 284.45L132.164 284.564C133.717 285.639 133.805 287.966 133.415 289.647Z" fill="black"/>
<path d="M96.5414 389.214C96.2287 389.344 95.9493 389.393 95.6167 389.474L95.2101 389.099C94.858 387.531 95.4194 385.867 96.1305 384.479C97.0382 384.169 96.5941 384.19 97.5067 384.38L97.8563 385.006C97.9547 386.636 97.4523 387.906 96.5414 389.214Z" fill="black"/>
<path d="M171.061 338.296L170.8 338.513C169.1 339.899 166.086 339.897 164.749 338.173C166.692 336.995 169.227 336.786 171.061 338.296Z" fill="black"/>
<path d="M105.504 97.3506C102.427 99.3017 97.1042 102.869 94.0409 104.477C97.3666 101.441 100.154 99.6213 103.903 97.0999C104.455 97.3405 104.904 97.3153 105.504 97.3506Z" fill="black"/>
<path d="M281.938 100.718L281.033 100.747C279.619 99.6117 279.786 98.1076 280.481 96.5541C280.99 96.4105 280.999 96.454 281.543 96.4484C283.181 97.6587 282.618 99.0942 281.938 100.718Z" fill="black"/>
<path d="M81.9018 112.262C79.6329 114.685 73.2131 119.104 70.2037 121.369C71.6998 118.895 73.4363 117.947 75.7823 116.247C77.8681 114.766 79.7191 113.601 81.9018 112.262Z" fill="black"/>
<path d="M293.086 92.7216C291.119 93.8972 289.256 93.6034 289.021 91.0266L289.983 90.389C291.642 90.176 292.558 91.2627 293.086 92.7216Z" fill="black"/>
<path d="M114.117 365.158C113.176 365.529 112.935 365.575 112.144 365.008C111.604 363.964 111.682 363.097 111.638 361.908C111.98 361.705 112.334 361.551 112.694 361.381C114.369 361.913 114.373 363.68 114.117 365.158Z" fill="black"/>
<path d="M348.9 287.061C347.407 288.198 344.595 289.584 342.763 288.662C344.181 287.517 347.229 285.952 348.9 287.061Z" fill="black"/>
<path d="M32.1334 79.0192C30.7418 80.0464 28.8433 81.3761 27.1568 81.832L27.018 81.4844L27.597 80.9701C28.8422 80.0352 31.5121 77.9522 32.9201 77.6849C32.9494 78.3919 32.7978 78.2874 32.1334 79.0192Z" fill="black"/>
<path d="M138.805 304.9C137.882 305.157 137.955 305.341 137.175 304.871C136.93 303.916 137.344 303.098 137.669 302.119C138.086 301.848 138.22 301.889 138.727 301.831L139.184 302.304C139.349 303.487 139.182 303.806 138.805 304.9Z" fill="black"/>
<path d="M313.617 349.098L294.261 362.204C292.686 362.62 279.606 369.692 276.773 371.004C255.943 380.623 233.59 386.52 210.726 388.426C209.144 388.558 202.437 389.172 201.334 388.766C201.621 388.087 203.085 387.25 203.758 387.2C232.674 385.091 258.367 378.707 284.422 364.957C316.385 348.041 342.977 322.519 361.19 291.276C363.04 288.158 370.44 272.606 371.95 271.376C372.422 270.992 372.688 270.937 373.271 271.027C373.39 272 368.414 281.968 367.638 283.509C358.012 302.291 345.391 319.379 330.271 334.103C327.089 337.171 324.049 339.862 320.679 342.707C318.858 344.244 314.902 347.326 313.617 349.098Z" fill="black"/>
<path d="M94.0378 27.689C97.0611 27.0344 101.175 23.8414 104.128 22.4801C111.012 19.3031 121.311 13.3821 128.555 11.7615L128.816 11.9276C125.454 15.2266 118.544 17.6575 113.999 19.7737C109.578 21.7857 105.239 23.9732 100.991 26.3297C88.3159 33.5233 76.4269 42.0221 65.5186 51.6877C62.3391 54.4622 52.202 65.8982 48.6548 65.7526C49.067 64.7637 60.7196 53.8774 62.1459 52.161C65.2237 48.4567 74.0125 43.28 76.497 39.5664L94.0378 27.689Z" fill="black"/>
<path d="M362.242 95.0441C362.41 98.5912 375.253 116.24 373.139 119.969L372.674 120.163C371.496 119.444 366.972 108.774 365.263 105.446C357.511 90.3491 347.003 76.6622 336.259 63.6253C336.244 63.5302 336.229 63.4349 336.213 63.3395L336.488 63.0047C340.229 62.8183 346.327 74.7138 349.682 76.4947L362.242 95.0441Z" fill="black"/>
<path d="M27.2307 294.535C26.9987 292.131 20.6207 283.023 19.9681 279.907C19.8148 279.174 20.1096 278.927 20.4822 278.424L20.9914 278.464C21.8914 279.341 27.8794 290.828 28.9897 292.703C32.3205 298.259 35.8889 303.67 39.6891 308.916C43.2609 313.779 47.0708 318.463 51.1068 322.948C52.5531 324.578 60.2452 331.769 59.7019 333.465C56.0384 333.858 43.2896 315.402 39.3592 312.446L27.2307 294.535Z" fill="black"/>
</g>
<defs>
<clipPath id="clip0_1102_4110">
<rect width="389.25" height="389.25" fill="white" transform="matrix(-1 0 0 -1 389.25 389.25)"/>
</clipPath>
</defs>
</svg>
