<svg width="390" height="390" viewBox="0 0 390 390" fill="none" xmlns="http://www.w3.org/2000/svg">
<g clip-path="url(#clip0_1102_4156)">
<path d="M273.608 370.726L274.138 371.592C274.712 371.862 275.12 372.016 275.807 371.654C279.107 369.913 282.792 368.164 286.055 366.434C309.819 353.611 330.648 335.972 347.212 314.648C349.455 311.77 353.63 306.395 355.047 303.305C354.771 302.447 354.965 302.666 354.354 302.115C352.927 302.551 350.937 306.168 349.956 307.539C347.646 310.748 345.243 313.892 342.748 316.964C338.063 322.667 333.061 328.104 327.762 333.248C316.776 343.941 304.548 353.28 291.341 361.069C288.2 362.893 285.011 364.63 281.776 366.28C279.705 367.326 275.586 369.228 273.849 370.54L273.608 370.726Z" fill="black"/>
<path d="M177.234 1.77796C177.572 2.49568 177.633 2.51643 178.249 3.04579C179.629 3.2411 185.506 2.84096 187.376 2.76385C191.396 2.58841 195.421 2.57183 199.441 2.71416C219.721 3.29229 239.778 7.10334 258.857 14.0037C263.38 15.6504 267.845 17.4503 272.245 19.4C275.365 20.8113 278.37 22.5041 281.553 23.7778C281.782 23.7004 282.012 23.6228 282.242 23.5454C281.449 21.8785 280.525 21.1693 278.832 20.3473C249.928 6.28523 217.552 -0.760207 185.402 0.844762C183.391 0.945185 178.745 0.836388 177.234 1.77796Z" fill="black"/>
<path d="M371.584 269.362C371.795 270.266 371.79 270.655 372.396 271.297C372.564 271.186 372.732 271.095 372.813 270.928C373.509 269.501 374.224 267.232 374.863 265.867C378.619 257.841 387.7 226.052 386.086 218.524C385.834 217.637 385.826 217.276 385.195 216.663C384.786 217.119 383.665 226.667 383.406 228.153C381.667 237.886 379.216 247.475 376.073 256.848C374.977 260.164 372.24 266.265 371.584 269.362Z" fill="black"/>
<path d="M312.441 41.454C312.669 42.5494 312.991 43.7194 313.827 44.5047C317.214 47.6945 320.976 50.6409 324.422 53.7801C329.807 58.6849 334.647 64.0317 339.491 69.3422C341.245 71.2632 348.779 81.1976 349.796 81.995C349.002 77.2926 343.99 71.503 340.798 68.0818C335.97 62.9093 318.505 43.8793 312.441 41.454Z" fill="black"/>
<path d="M25.176 95.6273C25.5873 96.6967 25.9278 97.2842 27.0291 97.6782C28.3122 97.2024 29.0853 95.5295 29.7865 94.3623C35.8829 84.2128 43.0462 74.71 51.0705 65.9771C51.1513 65.0369 51.1185 64.5647 50.3487 64.1005C48.9389 64.5561 46.5117 67.8608 45.4474 69.1191C38.6443 77.1612 32.6819 85.7392 27.0667 94.6332C26.7582 95.1219 25.7306 95.4485 25.176 95.6273Z" fill="black"/>
<path d="M95.6852 361.392C95.6984 361.45 95.7119 361.507 95.7254 361.565C95.753 361.659 95.7807 361.754 95.8083 361.848C95.848 362.117 96.1479 362.861 96.327 363.02C101.426 367.565 127.992 379.192 133.159 379.963C132.999 378.993 132.988 378.833 132.437 378.03C130.582 376.927 123.983 374.679 121.559 373.711C115.443 371.243 109.452 368.47 103.608 365.405C102.033 364.562 96.8401 361.36 95.6852 361.392Z" fill="black"/>
<path d="M62.5673 52.149L63.1981 53.1614L63.7066 53.1667C69.468 48.3629 74.4237 43.4871 80.7761 39.2851C82.8358 37.9226 89.33 33.6814 90.3533 32.2001C89.7856 31.3026 90.0182 31.3417 89.2478 31.1218C85.2938 32.684 64.12 48.7815 62.5673 52.149Z" fill="black"/>
<path d="M148.889 382.71C149.02 383.123 149.424 384.366 149.672 384.464C156.233 387.001 177.241 389.425 183.501 389.4C183.285 388.721 183.2 388.584 182.843 387.96C181.53 387.045 171.747 386.462 169.639 386.29C166.32 386.016 150.432 382.502 148.889 382.71Z" fill="black"/>
<path d="M10.3304 131.099C10.5222 131.971 10.5581 132.581 11.1362 133.243L11.5837 133.074C13.4464 125.146 19.353 114.376 22.4575 106.811C22.329 105.914 22.3756 105.629 21.811 104.983L21.3488 105.121C19.06 108.819 10.6953 127.278 10.3304 131.099Z" fill="black"/>
<path d="M65.4315 339.3C65.5405 339.856 65.7967 340.748 66.0178 341.182C67.6369 344.358 86.8278 358.341 89.1588 359.03C89.0592 358.556 88.7612 357.096 88.3587 356.772C82.3022 351.887 75.6179 347.794 69.7036 342.665C68.535 341.65 66.6964 339.431 65.4315 339.3Z" fill="black"/>
<path d="M284.356 23.3423C284.559 24.1551 284.787 25.3542 285.623 25.8532C292.18 29.7671 298.72 33.6998 304.966 38.1081C306.158 38.9503 307.325 39.7979 308.584 40.4556C308.488 39.9606 308.296 39.0697 308.076 38.6784C306.268 35.4632 286.928 24.0144 284.356 23.3423Z" fill="black"/>
<path d="M356.875 297.468C357.055 298.261 357.075 298.323 357.415 299.059L357.847 299.175C360.144 296.51 369.142 280.117 370.073 276.587C369.867 275.777 369.852 275.356 369.3 274.775L368.828 274.961C368.491 276.063 368.057 276.806 367.59 277.834C364.502 284.636 360.347 290.923 356.875 297.468Z" fill="black"/>
<path d="M105.438 238.768C104.152 239.61 102.186 241.498 100.955 242.546C95.8892 246.858 91.4121 250.916 88.1563 256.807C92.1741 252.983 95.8581 250.134 99.8605 246.624C103.137 243.748 108.366 237.312 111.133 233.775C109.189 235.923 108.059 237.547 105.438 238.768Z" fill="black"/>
<path d="M216.272 129.515C215.514 126.464 211.21 110.188 208.276 109.281L207.906 109.623C207.404 111.539 213.686 125.745 214.9 128.652C215.376 129.02 215.697 129.333 216.272 129.515Z" fill="black"/>
<path d="M91.5552 29.7111C91.7064 30.28 91.8405 30.535 92.0845 31.0556L92.5828 31.1821C95.6676 29.7762 101.144 26.4231 104.191 24.5929C104.165 23.7779 104.194 23.7154 103.755 23.065C102.195 22.8851 93.1415 28.4757 91.5552 29.7111Z" fill="black"/>
<path d="M386.125 209.763C386.404 210.862 386.512 211.767 387.224 212.622L387.497 212.365C388.028 209.833 388.193 201.057 387.717 198.588C387.329 196.837 386.778 195.117 386.257 193.4C386.071 195.511 385.909 208.245 386.125 209.763Z" fill="black"/>
<path d="M29.3259 133.052L29.4638 133.468C30.1376 133.844 32.4738 133.553 33.2564 133.269C35.8764 132.319 34.8738 130.064 34.4184 128.582C33.3537 127.786 29.4049 128.706 28.6269 129.903C28.7707 131.181 28.974 131.822 29.3259 133.052Z" fill="black"/>
<path d="M352.957 84.308C353.708 88.3584 358.85 96.4862 361.304 100.304L361.736 100.235C360.631 95.4545 356.54 87.7674 353.469 84.1219L352.957 84.308Z" fill="black"/>
<path d="M185.173 387.794C185.421 388.429 185.469 388.463 185.849 388.997C187.834 390.072 197.609 389.955 199.872 389.429C199.594 388.769 199.577 388.637 199.034 388.138C197.287 387.433 187.058 387.47 185.173 387.794Z" fill="black"/>
<path d="M363.715 252.765C363.953 253.784 364.822 257.56 365.487 258.196C366.044 256.958 366.142 252.46 366.226 250.852C366.316 248.969 365.453 246.25 364.917 244.399C364.392 247.075 364.043 250.057 363.715 252.765Z" fill="black"/>
<path d="M302.004 14.95C302.951 19.9348 304.673 22.1307 307.871 26.071L308.392 25.9603C307.32 22.1417 305.321 17.4996 302.477 14.6793L302.004 14.95Z" fill="black"/>
<path d="M136.359 379.095C137.142 382.394 141.49 382.75 144.426 383.404C144.536 380.207 138.893 379.559 136.359 379.095Z" fill="black"/>
<path d="M53.251 60.7036C53.4327 61.3736 53.4279 61.5346 53.9275 62.0343C55.6274 61.6964 58.4138 58.2484 59.5352 56.8442C59.2056 55.9604 59.4279 56.1758 58.7465 55.715C56.8385 56.1875 54.6175 59.1524 53.251 60.7036Z" fill="black"/>
<path d="M69.1479 366.579C69.3346 367.42 69.3666 367.499 69.7622 368.264L70.1709 368.327C71.0441 367.113 71.484 364.535 71.6537 363.027C71.4788 362.177 71.4832 362.01 71.0565 361.279L70.6501 361.262C69.8628 362.462 69.3485 365.103 69.1479 366.579Z" fill="black"/>
<path d="M223.813 217.726C224.019 218.015 224.35 218.378 224.587 218.656C226.155 219.288 228.317 219.272 229.502 217.984C228.357 215.825 225.245 215.84 223.813 217.726Z" fill="black"/>
<path d="M146.223 390.191C146.903 393.139 149.349 392.788 151.661 392.007C150.912 389.497 148.479 389.582 146.223 390.191Z" fill="black"/>
<path d="M202.139 279.997C202.562 280.592 202.298 280.357 202.991 280.688C205.025 280.196 206.539 279.607 207.283 277.586L206.422 276.987C204.545 276.777 202.95 278.474 202.139 279.997Z" fill="black"/>
<path d="M117.026 318.996L117.08 319.331C117.451 321.493 119.725 323.472 121.865 323.051C121.174 320.886 119.4 319.063 117.026 318.996Z" fill="black"/>
<path d="M284.625 169.91C285.663 173.403 287.332 179.589 288.584 182.814C288.072 178.34 287.166 175.137 285.997 170.773C285.422 170.592 285.1 170.278 284.625 169.91Z" fill="black"/>
<path d="M129.202 138.895L129.865 139.511C131.676 139.584 132.539 138.341 133.036 136.713C132.747 136.271 132.711 136.298 132.305 135.936C130.275 135.772 129.756 137.224 129.202 138.895Z" fill="black"/>
<path d="M286.278 281.656C283.582 283.594 278.373 289.39 275.739 292.082C278.384 290.918 279.549 289.318 281.538 287.211C283.275 285.334 284.669 283.648 286.278 281.656Z" fill="black"/>
<path d="M186.385 53.6931C187.095 55.8716 188.693 56.8746 190.563 55.0864L190.257 53.9735C189.146 52.7227 187.742 52.9406 186.385 53.6931Z" fill="black"/>
<path d="M142.305 376.66C142.771 377.558 142.922 377.751 143.89 377.844C144.984 377.412 145.494 376.707 146.308 375.839C146.184 375.462 146.018 375.113 145.859 374.748C144.247 374.049 143.082 375.378 142.305 376.66Z" fill="black"/>
<path d="M16.6214 163.528C17.0004 165.365 18.2095 168.259 20.1964 168.767C19.8802 166.972 18.6102 163.789 16.6214 163.528Z" fill="black"/>
<path d="M345.394 65.0678L345.819 66.0698L346.273 66.2356C346.93 65.473 347.114 64.2134 347.374 63.1823C347.011 62.2079 347.203 62.2619 346.505 61.7366L346.031 62.0766C345.525 63.3745 345.521 63.7 345.394 65.0678Z" fill="black"/>
<path d="M163.284 315.014C163.812 315.814 163.635 315.904 164.532 316.063C165.345 315.504 165.57 314.616 165.969 313.664C165.832 313.185 165.704 313.129 165.36 312.751L164.705 312.808C163.803 313.591 163.719 313.942 163.284 315.014Z" fill="black"/>
<path d="M2.4607 233.476L8.44112 256.074C9.35472 257.422 14.5691 271.348 15.8426 274.198C25.2254 295.135 38.2029 314.268 54.1868 330.727C55.2923 331.865 59.9449 336.735 61.0435 337.154C61.2737 336.453 60.7195 334.86 60.2449 334.381C39.8322 313.792 24.6576 292.099 14.0501 264.614C1.06798 230.861 -2.20975 194.149 4.58743 158.63C5.24126 155.064 9.88057 138.477 9.55085 136.558C9.44758 135.958 9.28258 135.741 8.78469 135.427C8.05569 136.082 5.25693 146.866 4.82967 148.537C-0.253949 169.021 -1.96679 190.196 -0.241765 211.23C0.140978 215.634 0.664478 219.66 1.33579 224.018C1.69866 226.373 2.65587 231.296 2.4607 233.476Z" fill="black"/>
<path d="M379.169 135.447C377.319 132.967 376.316 127.857 374.984 124.891C371.882 117.973 368.008 106.742 363.612 100.761L363.306 100.714C363.673 105.41 367.285 111.784 369.321 116.365C371.332 120.786 373.166 125.287 374.82 129.854C379.649 143.605 383.028 157.823 384.9 172.277C385.474 176.457 385.603 191.739 388.372 193.96C388.711 192.943 387.079 177.081 387.132 174.849C387.246 170.035 384.021 160.358 384.588 155.926L379.169 135.447Z" fill="black"/>
<path d="M132.724 10.0065C130.267 12.5702 108.99 17.4374 108.133 21.6369L108.356 22.0889C109.717 22.3207 120.138 17.2498 123.613 15.8637C139.376 9.57584 156.29 6.16164 172.955 3.39272C173.029 3.33091 173.103 3.26905 173.177 3.2072L173.191 2.77451C170.493 0.175751 158.08 5.13694 154.381 4.2753L132.724 10.0065Z" fill="black"/>
<path d="M254.207 380.507C255.961 378.847 266.754 376.172 269.293 374.252C269.89 373.8 269.83 373.42 269.88 372.796L269.47 372.491C268.214 372.562 256.153 377.287 254.084 377.971C247.923 379.971 241.678 381.705 235.366 383.163C229.478 384.483 223.529 385.51 217.539 386.24C215.378 386.518 204.854 386.885 204.15 388.521C206.653 391.224 228.39 385.687 233.295 386.042L254.207 380.507Z" fill="black"/>
</g>
<defs>
<clipPath id="clip0_1102_4156">
<rect width="389.25" height="389.25" fill="white" transform="matrix(1 0 0 -1 0 389.25)"/>
</clipPath>
</defs>
</svg>
