<svg width="577" height="673" viewBox="0 0 577 673" fill="none" xmlns="http://www.w3.org/2000/svg">
<g clip-path="url(#clip0_1144_5614)">
<path d="M378.725 123.876L379.363 123.952L379.286 124.398C378.22 124.969 368.158 127.447 366.301 127.974C355.337 131.105 344.357 134.176 333.361 137.185C327.549 138.82 320.176 141.185 314.391 142.419C314.291 145.611 314.483 169.809 313.837 170.559C312.59 166.796 313.409 148.215 313.025 142.449C301.621 140.393 290.096 137.243 278.696 135.015C274.319 134.16 269.106 133.083 264.882 131.744C264.891 136.768 265.371 170.548 264.415 171.863C263.41 170.549 263.818 157.691 263.826 155.2C263.856 147.347 263.843 139.494 263.788 131.641C253.963 129.73 244.221 127.331 234.41 125.348C232.774 125.017 231.334 124.989 229.684 124.529L229.976 124.213C234.289 123.334 257.465 129.395 263.738 130.547C263.758 128.54 263.617 126.427 264.329 124.585L264.665 124.918C265.122 126.765 264.917 128.979 264.841 130.913C280.528 133.526 296.807 138.774 312.632 141.049C315.476 141.458 324.206 138.65 327.492 137.738L360.794 128.456C364.924 127.301 374.598 124.337 378.258 123.925L378.725 123.876Z" fill="black" stroke="black"/>
<path d="M313.513 282.421L313.878 282.692C314.584 283.833 314.261 314.311 314.262 317.637L314.27 442.188L314.291 474.204C314.294 477.404 314.489 487.322 314.02 489.839C312.59 487.706 313.195 457.82 313.198 453.103L313.201 328.267L313.17 297.256C313.168 294.362 312.989 284.7 313.513 282.421Z" fill="black" stroke="black"/>
<path d="M264.266 491.624C264.336 491.685 264.415 491.739 264.476 491.807C265.366 492.806 264.935 511.083 264.91 513.965C273.815 515.048 286.455 518.746 295.57 520.447C298.478 520.988 311.037 523.634 313.13 524.386C313.467 517.052 312.994 508.931 313.206 501.552C313.283 498.849 313.029 494.827 313.364 492.252L313.816 491.967L314.167 492.354C314.357 495.829 314.623 522.618 313.98 524.425C312.013 525.43 300.633 522.654 297.739 522.032C291.53 520.473 285.127 519.172 278.86 517.818C270.945 516.104 265.847 513.943 257.816 516.489C248.091 519.573 237.865 521.811 228.086 524.63C227.115 525.475 227.041 526.663 226.577 528.031L225.978 528.252C225.489 528.002 225.437 528.085 225.216 527.531C224.92 526.785 224.906 525.712 225.316 525.011C226.098 523.669 260.107 514.737 263.812 513.843C263.968 510.058 263.305 494.096 264.266 491.624Z" fill="black" stroke="black"/>
<path d="M330.835 528.398C334.175 528.674 340.07 530.099 343.486 530.861L363.407 535.284L428.198 549.455C430.443 549.945 452.669 554.675 452.983 554.89C451.856 555.188 451.769 555.185 450.594 555.236C440.622 553.715 425.79 549.984 415.524 547.729L364.553 536.6C352.6 533.98 340.364 531.143 328.359 528.908L328.347 528.77C328.353 528.77 329.935 528.427 330.835 528.398Z" fill="black" stroke="black"/>
<path d="M212.832 528.309C213.201 528.309 213.483 528.408 213.856 528.498L213.725 528.885C211.662 529.67 207.423 530.461 204.894 531.159L182.194 537.506C159.506 543.844 135.97 550.701 113.214 556.565C112.237 556.312 112.586 556.59 111.997 555.924C112.748 555.437 208.865 528.715 212.832 528.309Z" fill="black" stroke="black"/>
<path d="M172.564 624.658C177.724 624.418 197.9 629.295 204.053 630.647L258.728 642.615C262.862 643.531 267.003 644.418 271.149 645.273C272.92 645.638 275.945 646.054 277.459 646.653C274.247 647.662 254.309 642.72 249.487 641.673L203.645 631.633L183.524 627.22C180.836 626.644 174.638 625.616 172.564 624.658Z" fill="black" stroke="black"/>
<path d="M426.37 623.421C427.334 623.341 427.388 623.341 428.343 623.479V623.793C426.546 624.827 412.181 628.363 408.954 629.26L346.115 646.768C345.113 646.928 344.325 647.152 343.525 646.56C344.361 645.772 418.771 625.164 426.37 623.421Z" fill="black" stroke="black"/>
<path d="M313.418 558.735C313.571 558.844 314.111 559.357 314.112 559.459C314.15 572.032 314.719 608.561 314.167 618.742L313.613 618.389C313.094 617.454 312.897 563.03 313.418 558.735Z" fill="black" stroke="black"/>
<path d="M264.301 60.2451C264.324 60.2643 264.351 60.2787 264.368 60.3024C264.373 60.3079 264.796 60.9535 264.8 60.9667C265.055 61.7827 265.315 113.206 264.692 117.042C262.837 115.456 264.276 70.6115 263.837 64.7524C263.757 63.6811 263.88 61.317 264.301 60.2451Z" fill="black" stroke="black"/>
<path d="M313.397 216.683L314.079 217.293C314.382 219.184 314.279 223.38 314.28 225.542L314.294 240.112L314.303 259.655C314.302 262.917 314.461 267.856 314.095 270.879L313.552 270.504C313.007 269.311 313.034 220.218 313.397 216.683Z" fill="black" stroke="black"/>
<path d="M264.177 174.169L264.685 174.595C265.251 176.75 265.122 212.024 264.697 214.717C264.519 214.55 264.44 214.492 264.293 214.27C263.509 213.078 263.378 177.155 264.177 174.169Z" fill="black" stroke="black"/>
<path d="M313.413 174.408L314.1 175.032C314.453 177.588 314.347 186.613 314.298 189.76C314.18 197.263 314.587 205.918 314.191 213.31L313.628 212.925C312.906 211.561 313.069 177.71 313.413 174.408Z" fill="black" stroke="black"/>
<path d="M313.742 651.348C314.61 652.324 314.094 652.03 314.439 653.458C314.424 653.397 314.662 654.14 314.729 654.143C317.194 654.24 324.683 650.691 326.726 651.732L326.63 652.177C322.41 653.791 315.339 656.036 310.938 655.191C308.956 654.646 297.901 652.526 297.173 652.001C299.868 650.419 311.331 655.258 312.905 653.836C313.082 653.051 313.178 652.581 313.515 651.834L313.742 651.348Z" fill="black" stroke="black"/>
<path d="M313.554 528.037C313.743 528.181 313.988 528.511 314.153 528.71C314.419 531.586 314.402 553.549 314.024 555.653C313.969 555.566 313.908 555.483 313.857 555.393C312.612 553.244 312.847 531.262 313.554 528.037Z" fill="black" stroke="black"/>
<path d="M313.539 623.518C314.772 624.462 314.443 644.401 314.093 646.909C313.447 646.614 313.724 646.813 313.325 646.224C313.134 643.168 312.972 625.689 313.539 623.518Z" fill="black" stroke="black"/>
<path d="M40.79 51.1865C41.1608 51.1628 41.532 51.1439 41.9034 51.1301C44.2531 51.0459 59.8039 53.4308 60.9291 54.4771C57.7036 55.0603 44.6118 52.6769 40.9972 51.7751L40.79 51.1865Z" fill="black" stroke="black"/>
<path d="M508.767 54.3089C511.178 54.2939 514.271 54.8226 516.717 55.1624C515.107 55.3763 513.176 55.5515 511.591 55.8032C509.391 56.1529 500.348 58.9129 498.459 57.7081C499.74 56.8963 501.652 56.5433 503.169 56.1513C505.039 55.7952 507.54 55.6063 508.767 54.3089Z" fill="black" stroke="black"/>
<path d="M504.693 49.8574C506.316 49.9381 508.791 50.3231 510.472 50.5332C509.07 50.799 507.101 50.9761 505.983 51.2246C502.935 51.9026 500.447 52.7455 497.283 53.1727C495.64 53.3684 495.362 53.4075 493.751 53.0952L493.77 52.7938C496.351 51.689 501.808 50.5091 504.693 49.8574Z" fill="black" stroke="black"/>
<path d="M485.727 55.418C486.342 55.5467 486.416 55.6095 487.005 55.8497C487.569 56.8591 487.444 56.3384 487.447 57.4583C485.715 59.0458 478.513 57.3443 476.252 56.8825C475.225 56.8249 474.094 56.8761 473.412 56.0319C476.553 55.1397 479.089 56.2324 482.282 56.4787C484.572 56.6554 483.899 56.8578 485.727 55.418Z" fill="black" stroke="black"/>
<path d="M520.228 488.31C522.328 488.192 532.172 489.341 533.667 490.277L533.408 490.722C531.23 490.763 521.422 489.841 519.972 488.775L520.228 488.31Z" fill="black" stroke="black"/>
<path d="M245.847 489.549C247.052 489.428 248.753 489.331 249.897 489.732C249.083 490.827 245.505 491.125 243.995 491.355C241.408 491.877 239.807 491.74 237.208 491.56C240.079 490.853 242.959 490.18 245.847 489.549Z" fill="black" stroke="black"/>
<path d="M399.276 118.08C399.731 118.074 399.935 118.098 400.371 117.977L400.55 118.335C399.141 119.202 391.639 120.954 389.596 121.453C388.629 121.467 388.907 121.648 388.309 121.234L388.59 120.788C391.13 119.79 396.583 118.55 399.276 118.08Z" fill="black" stroke="black"/>
<path d="M494.13 280.428C495.978 280.252 497.172 280.113 498.905 280.813C496.058 281.903 493.042 280.664 490.515 282.116C488.578 282.44 487.326 282.763 485.433 282.253L485.328 281.981C488.283 280.954 491.027 281.545 494.13 280.428Z" fill="black" stroke="black"/>
<path d="M503.169 56.1508C502.692 55.9676 502.211 55.7877 501.731 55.6112C502.58 55.4389 503.431 55.2829 504.283 55.1433C503.848 54.866 503.252 54.7612 502.724 54.6174L502.483 54.1527C503.828 52.7577 507.408 53.1664 508.766 54.3084C507.54 55.6057 505.039 55.7947 503.169 56.1508Z" fill="black" stroke="black"/>
<path d="M222.378 649.334C223.455 649.276 224.89 649.193 225.83 649.721C224.884 650.451 221.29 650.999 219.933 651.258C218.957 651.444 216.889 651.736 215.997 651.364C217.17 650.157 220.656 649.673 222.378 649.334Z" fill="black" stroke="black"/>
<path d="M156.936 621.544C159.423 620.898 168.014 622.118 170.105 623.219C167.672 623.61 159.151 622.435 156.936 621.544Z" fill="black" stroke="black"/>
<path d="M70.5603 54.6039C71.4496 54.5382 71.5226 54.4764 72.3897 54.7646L72.2389 55.0977C70.4153 55.801 67.6611 56.3294 65.6826 56.7717C64.6732 56.8614 64.7261 56.8684 63.7446 56.6231L63.8682 56.2445C65.9868 55.4311 68.3253 55.0481 70.5603 54.6039Z" fill="black" stroke="black"/>
<path d="M438.221 617.392C438.576 617.545 438.621 617.632 438.932 617.885C439.143 622.448 436.155 622.013 432.393 622.343L431.724 621.997C432.492 621.331 435.806 620.962 436.975 620.79C437.795 620.088 437.827 618.759 438.221 617.392Z" fill="black" stroke="black"/>
<path d="M356.014 212.868C358.483 213.309 358.451 215.156 357.544 217.02C356.055 216.928 356.007 216.915 355.335 215.705C355.357 214.277 355.425 214.207 356.014 212.868Z" fill="black" stroke="black"/>
<path d="M313.502 271.812C313.718 271.967 314.015 272.294 314.215 272.495C314.478 274.939 314.397 278 314.064 280.431C313.648 280.108 313.653 279.987 313.348 279.511C313.091 277.33 312.983 273.923 313.502 271.812Z" fill="black" stroke="black"/>
<path d="M500.432 121.601C501.956 121.591 506.234 121.355 507.33 122.221L506.529 122.698C504.512 122.726 501.406 122.856 499.536 122.418L499.382 121.967L500.432 121.601Z" fill="black" stroke="black"/>
<path d="M276.001 170.568C278.469 170.846 277.997 173.242 277.164 174.848C275.884 174.47 275.962 174.353 275.435 173.395C275.37 171.991 275.453 171.907 276.001 170.568Z" fill="black" stroke="black"/>
<path d="M485.449 117.167C487.406 116.995 490.582 116.767 492.5 117.067L492.619 117.551C490.96 118.039 486.727 118.505 485.449 117.167Z" fill="black" stroke="black"/>
<path d="M281.016 648.475C282.879 648.277 285.528 648.129 287.357 648.475L287.419 648.937C285.975 649.183 281.916 649.772 281.016 648.475Z" fill="black" stroke="black"/>
<path d="M338.036 648.154C338.913 648.157 338.529 648.01 339.246 648.452C338.401 649.127 337.613 649.163 336.537 649.377C335.602 649.134 335.461 649.272 334.93 648.673C335.849 648.224 336.989 648.234 338.036 648.154Z" fill="black" stroke="black"/>
<path d="M263.012 0.4375H266.125C267.803 1.65843 284.218 4.86046 287.064 5.4855L330.213 14.9248L454.048 42.0554L478.272 47.3374C480.866 47.9032 485.64 48.6386 487.837 49.3319L487.972 49.6528C484.725 50.3948 472.131 47.0216 468.013 46.1553L420.423 35.7588L304 10.3144C294.765 8.23038 285.517 6.20444 276.256 4.23669C272.771 3.48159 268.9 2.36668 265.491 1.77073C263.644 3.51479 266.358 45.2557 264.423 49.2064C262.392 45.6099 265.158 4.31663 263.173 1.78654C250.115 5.92844 235.241 9.68978 221.882 13.4151L142.83 35.4184L109.766 44.5886C103.962 46.2155 95.9446 48.669 89.9505 49.7764C89.5016 49.8594 89.5534 49.7812 89.1743 49.37C91.2832 47.0402 218.572 14.3666 232.847 9.29782C237.484 7.65132 259.929 2.8131 263.012 0.4375Z" fill="black" stroke="black"/>
<path d="M575.162 581.616C575.607 574.599 574.717 566.612 575.531 559.595C575.585 559.143 576.123 558.497 576.405 558.147V582.708C553.801 589.398 529.718 595.681 506.893 602.003L464.094 613.843C461.871 614.445 450.424 618.266 448.839 617.324C449.697 616.191 454.712 615.483 456.38 615.018L479.794 608.456L551.643 588.428C553.414 587.934 571.794 582.926 572.072 582.673C571.509 582.026 570.442 581.718 569.578 581.529C552.738 577.869 535.812 573.959 518.952 570.429C502.052 566.887 484.981 562.455 468.016 559.614L467.872 559.294C468.907 558.605 471.462 558.983 472.691 559.24C484.837 561.757 496.941 564.489 509.058 567.143L575.162 581.616Z" fill="black" stroke="black"/>
<path d="M5.2549 74.2539C11.4067 75.0885 19.9483 77.304 26.3271 78.6984L65.2306 87.181L189.854 114.458C192.988 115.139 219.097 120.582 220.176 121.326C216.298 122.03 180.15 113.395 173.297 111.892L88.1184 93.2505C80.165 91.5118 6.3011 75.8517 4.67432 74.7593L5.2549 74.2539Z" fill="black" stroke="black"/>
<path d="M572.905 69.1484L573.197 69.5942C574.103 69.6077 573.831 69.4357 574.423 69.8328C572.367 71.0639 560.76 73.984 557.743 74.815L525.584 83.7447L448.407 105.227C435.666 108.771 422.886 112.346 410.129 115.836C406.972 116.701 405.547 116.946 402.29 116.879C405.729 115.656 411.358 114.387 415.134 113.345L442.438 105.744L540.5 78.5307C546.837 76.726 553.183 74.9614 559.543 73.2375C562.316 72.4826 570.769 70.3856 572.905 69.1484Z" fill="black" stroke="black"/>
<path d="M43.794 595.591L118.032 611.898C122.229 612.814 145.188 617.128 147.529 618.447C145.353 619.36 138.196 617.141 135.602 616.632C123.973 614.284 112.379 611.767 100.823 609.083L42.019 596.26C42.7408 595.837 42.9912 595.828 43.794 595.591Z" fill="black" stroke="black"/>
<path d="M4.0293 586.222C7.05948 584.775 12.9208 583.413 16.3696 582.498C21.8277 581.056 27.2717 579.564 32.7009 578.02L78.5197 565.245C81.6552 564.374 102.265 557.992 104.083 559.164C103.575 559.679 87.8132 563.727 85.6037 564.342L34.8934 578.459C25.6958 581.028 14.772 584.435 5.68305 586.449C4.91502 586.427 4.78464 586.392 4.0293 586.222Z" fill="black" stroke="black"/>
<path d="M572.905 69.1483C571.422 68.4835 568.108 68.2731 566.776 67.7805C562.706 66.2759 538.217 62.4073 536.286 60.912C540.221 60.2683 569.95 67.6088 576.405 68.7288V111.358C576.12 111.091 575.512 110.676 575.172 110.428C574.762 108.9 574.958 103.87 574.98 101.983L575.236 80.992C575.271 77.8061 575.374 74.2564 575.198 71.0615C575.15 70.2029 574.977 70.2545 574.423 69.8327C573.83 69.4356 574.103 69.6076 573.196 69.5941L572.905 69.1483Z" fill="black" stroke="black"/>
<path d="M1.625 559.45C4.87883 562.598 1.38757 583.674 3.23955 586.067L4.0299 586.224C4.78525 586.393 4.91562 586.429 5.68365 586.451C7.6876 588.142 38.9076 594.512 43.794 595.591C42.9912 595.828 42.7408 595.838 42.0191 596.26L1.625 587.393V559.45Z" fill="black" stroke="black"/>
<path d="M1.625 73.5079C3.50806 73.212 6.44076 72.1741 8.38912 71.5947C8.98753 71.9512 9.13268 71.9858 9.63301 72.4437C8.20452 72.8479 6.08196 73.1912 5.25482 74.2538L4.67424 74.7592C3.537 74.7339 3.64445 74.5494 2.89623 75.0714C2.48203 76.8107 2.71514 82.5558 2.74509 84.6218L2.85338 105.457C2.86148 108.62 3.50222 116.592 1.625 118.755V73.5079Z" fill="black" stroke="black"/>
<path d="M8.39014 71.5925C15.2468 70.0604 47.9658 59.8705 51.3149 60.5965L51.4359 60.9258C50.3571 61.5442 44.8543 62.5994 43.0303 63.1067L21.3975 69.1852C17.7121 70.2327 13.2836 71.6652 9.63403 72.4415C9.1337 71.9836 8.98855 71.949 8.39014 71.5925Z" fill="black" stroke="black"/>
<path d="M562.235 670.137C568.905 668.141 570.554 671.181 576.405 671.452V672.655C572.562 672.669 566.2 671.013 562.235 670.137Z" fill="black" stroke="black"/>
<path d="M1.625 126.207V320.151M1.625 400.667V480.596" stroke="black" stroke-width="2" stroke-linecap="round"/>
<path d="M575.817 188.504V300.169M575.817 351.299V501.753" stroke="black" stroke-width="2" stroke-linecap="round"/>
</g>
<defs>
<clipPath id="clip0_1144_5614">
<rect width="577" height="673" fill="white"/>
</clipPath>
</defs>
</svg>
