<svg width="577" height="673" viewBox="0 0 577 673" fill="none" xmlns="http://www.w3.org/2000/svg">
<g clip-path="url(#clip0_1144_5665)">
<path d="M198.304 531.937L197.667 531.861L197.744 531.415C198.81 530.844 208.871 528.365 210.729 527.839C221.693 524.707 232.673 521.637 243.669 518.627C249.481 516.992 256.854 514.628 262.639 513.393C262.739 510.202 262.547 486.004 263.193 485.253C264.44 489.016 263.62 507.597 264.005 513.364C275.409 515.42 286.933 518.569 298.334 520.797C302.711 521.653 307.923 522.73 312.148 524.069C312.139 519.045 311.659 485.265 312.614 483.949C313.62 485.263 313.211 498.122 313.204 500.613C313.174 508.466 313.187 516.319 313.242 524.172C323.067 526.083 332.809 528.481 342.62 530.465C344.256 530.796 345.696 530.824 347.346 531.284L347.054 531.599C342.741 532.478 319.564 526.418 313.292 525.265C313.272 527.273 313.412 529.385 312.701 531.227L312.365 530.894C311.908 529.048 312.113 526.833 312.189 524.899C296.502 522.287 280.223 517.038 264.398 514.763C261.554 514.355 252.824 517.162 249.538 518.075L216.236 527.357C212.105 528.511 202.432 531.476 198.772 531.887L198.304 531.937Z" fill="black" stroke="black"/>
<path d="M312.822 405.418L312.457 405.147C311.751 404.006 312.074 373.528 312.073 370.202L312.065 245.65L312.043 213.634C312.041 210.435 311.846 200.517 312.315 198C313.745 200.132 313.14 230.019 313.137 234.736L313.134 359.572L313.165 390.582C313.167 393.477 313.346 403.139 312.822 405.418Z" fill="black" stroke="black"/>
<path d="M312.764 164.188C312.694 164.128 312.615 164.073 312.553 164.006C311.663 163.007 312.094 144.73 312.12 141.847C303.215 140.765 290.574 137.066 281.46 135.365C278.551 134.824 265.993 132.179 263.899 131.426C263.563 138.76 264.036 146.882 263.824 154.261C263.747 156.964 264.001 160.986 263.666 163.561L263.214 163.846L262.863 163.458C262.673 159.984 262.407 133.194 263.05 131.388C265.016 130.382 276.397 133.159 279.291 133.78C285.5 135.34 291.903 136.64 298.169 137.995C306.085 139.708 311.183 141.87 319.214 139.324C328.939 136.24 339.165 134.001 348.944 131.183C349.915 130.337 349.989 129.149 350.453 127.782L351.052 127.561C351.54 127.811 351.593 127.727 351.814 128.281C352.11 129.028 352.124 130.1 351.714 130.802C350.931 132.144 316.923 141.076 313.218 141.969C313.062 145.755 313.725 161.716 312.764 164.188Z" fill="black" stroke="black"/>
<path d="M246.196 127.414C242.856 127.139 236.961 125.714 233.544 124.951L213.624 120.529L148.832 106.357C146.587 105.867 124.361 101.137 124.048 100.923C125.175 100.625 125.261 100.628 126.436 100.577C136.408 102.098 151.24 105.829 161.506 108.083L212.477 119.212C224.431 121.832 236.666 124.669 248.671 126.905L248.684 127.043C248.677 127.043 247.095 127.385 246.196 127.414Z" fill="black" stroke="black"/>
<path d="M364.197 127.504C363.829 127.504 363.547 127.405 363.174 127.315L363.305 126.927C365.367 126.143 369.606 125.352 372.135 124.654L394.835 118.306C417.524 111.968 441.06 105.112 463.816 99.2477C464.793 99.5008 464.444 99.2221 465.033 99.8883C464.282 100.375 368.165 127.097 364.197 127.504Z" fill="black" stroke="black"/>
<path d="M404.466 31.1545C399.306 31.3947 379.129 26.5172 372.977 25.1657L318.301 13.1978C314.167 12.2819 310.027 11.3947 305.881 10.5397C304.11 10.1746 301.085 9.75821 299.571 9.15934C302.783 8.15053 322.721 13.0921 327.543 14.1393L373.385 24.1793L393.506 28.5925C396.194 29.1689 402.392 30.197 404.466 31.1545Z" fill="black" stroke="black"/>
<path d="M150.66 32.391C149.696 32.4711 149.641 32.4711 148.687 32.3334V32.0195C150.484 30.9851 164.848 27.4495 168.076 26.5528L230.914 9.04436C231.917 8.88424 232.704 8.66006 233.505 9.25254C232.669 10.0404 158.258 30.6488 150.66 32.391Z" fill="black" stroke="black"/>
<path d="M263.611 97.0771C263.459 96.9683 262.918 96.4558 262.918 96.3534C262.879 83.7801 262.311 47.2518 262.862 37.0708L263.416 37.4231C263.936 38.3583 264.133 92.7825 263.611 97.0771Z" fill="black" stroke="black"/>
<path d="M312.729 595.567C312.706 595.548 312.679 595.534 312.661 595.51C312.657 595.505 312.234 594.859 312.229 594.846C311.974 594.03 311.714 542.606 312.338 538.771C314.193 540.357 312.754 585.201 313.193 591.06C313.273 592.131 313.149 594.495 312.729 595.567Z" fill="black" stroke="black"/>
<path d="M264.94 236.196L264.258 235.586C263.954 233.695 264.058 229.498 264.056 227.337L264.042 212.767L264.034 193.224C264.034 189.962 263.875 185.023 264.242 182L264.784 182.375C265.33 183.568 265.302 232.661 264.94 236.196Z" fill="black" stroke="black"/>
<path d="M312.853 481.644L312.344 481.218C311.779 479.063 311.908 443.788 312.332 441.095C312.511 441.262 312.59 441.32 312.737 441.543C313.521 442.735 313.652 478.657 312.853 481.644Z" fill="black" stroke="black"/>
<path d="M263.616 481.404L262.929 480.781C262.576 478.225 262.682 469.2 262.732 466.052C262.85 458.55 262.443 449.895 262.838 442.503L263.402 442.888C264.124 444.251 263.961 478.102 263.616 481.404Z" fill="black" stroke="black"/>
<path d="M263.288 4.46484C262.419 3.48806 262.936 3.78267 262.591 2.35433C262.606 2.41518 262.368 1.67222 262.301 1.66902C259.836 1.57294 252.347 5.12134 250.304 4.08051L250.4 3.63535C254.62 2.02126 261.691 -0.223701 266.092 0.621775C268.074 1.16621 279.129 3.28629 279.856 3.81151C277.162 5.39357 265.699 0.554515 264.125 1.97645C263.947 2.76108 263.851 3.23185 263.514 3.97805L263.288 4.46484Z" fill="black" stroke="black"/>
<path d="M263.476 127.775C263.287 127.631 263.042 127.301 262.876 127.103C262.611 124.227 262.627 102.264 263.005 100.16C263.061 100.246 263.121 100.329 263.173 100.419C264.418 102.568 264.183 124.55 263.476 127.775Z" fill="black" stroke="black"/>
<path d="M263.491 32.2949C262.258 31.3502 262.587 11.411 262.937 8.90343C263.583 9.19807 263.306 8.99951 263.705 9.58879C263.896 12.644 264.057 30.1236 263.491 32.2949Z" fill="black" stroke="black"/>
<path d="M536.24 604.626C535.869 604.65 535.498 604.669 535.127 604.682C532.777 604.767 517.226 602.382 516.101 601.335C519.327 600.752 532.419 603.136 536.033 604.037L536.24 604.626Z" fill="black" stroke="black"/>
<path d="M68.2632 601.504C65.852 601.519 62.7587 600.99 60.3123 600.65C61.923 600.436 63.8539 600.261 65.4389 600.009C67.6388 599.66 76.6816 596.9 78.5708 598.104C77.29 598.916 75.3783 599.269 73.8605 599.661C71.9904 600.017 69.4896 600.206 68.2632 601.504Z" fill="black" stroke="black"/>
<path d="M72.3372 605.955C70.7137 605.874 68.2385 605.489 66.5574 605.279C67.9599 605.014 69.9292 604.836 71.0467 604.588C74.0952 603.91 76.5832 603.067 79.7469 602.64C81.3896 602.444 81.6681 602.405 83.2788 602.717L83.2596 603.019C80.6787 604.124 75.2223 605.303 72.3372 605.955Z" fill="black" stroke="black"/>
<path d="M91.3019 600.395C90.6871 600.266 90.6134 600.203 90.0242 599.963C89.4606 598.953 89.5855 599.474 89.5823 598.354C91.3147 596.767 98.5162 598.468 100.777 598.93C101.805 598.988 102.935 598.936 103.617 599.781C100.476 600.673 97.9398 599.58 94.7473 599.334C92.4578 599.157 93.1303 598.955 91.3019 600.395Z" fill="black" stroke="black"/>
<path d="M80.2562 215.008C82.3568 214.89 92.2001 216.04 93.6955 216.975L93.4361 217.42C91.2586 217.462 81.4506 216.539 80 215.473L80.2562 215.008Z" fill="black" stroke="black"/>
<path d="M386.639 344.106C387.844 343.984 389.545 343.888 390.688 344.288C389.874 345.384 386.297 345.682 384.787 345.912C382.2 346.434 380.599 346.296 378 346.117C380.871 345.409 383.75 344.737 386.639 344.106Z" fill="black" stroke="black"/>
<path d="M177.754 537.733C177.299 537.739 177.094 537.714 176.659 537.836L176.48 537.478C177.888 536.611 185.391 534.859 187.434 534.36C188.401 534.345 188.122 534.165 188.721 534.579L188.439 535.024C185.9 536.022 180.447 537.262 177.754 537.733Z" fill="black" stroke="black"/>
<path d="M177.803 414.143C179.65 413.967 180.845 413.828 182.577 414.528C179.73 415.618 176.714 414.379 174.187 415.831C172.25 416.155 170.998 416.478 169.106 415.968L169 415.696C171.956 414.669 174.7 415.26 177.803 414.143Z" fill="black" stroke="black"/>
<path d="M73.8611 599.662C74.3382 599.845 74.8185 600.025 75.2988 600.201C74.4503 600.374 73.5985 600.53 72.7468 600.669C73.1822 600.947 73.7778 601.051 74.3062 601.195L74.5463 601.66C73.2015 603.055 69.6215 602.646 68.2638 601.504C69.4902 600.207 71.991 600.018 73.8611 599.662Z" fill="black" stroke="black"/>
<path d="M169.381 578.043C170.458 577.985 171.893 577.902 172.833 578.43C171.887 579.16 168.293 579.708 166.936 579.967C165.96 580.153 163.892 580.445 163 580.073C164.173 578.866 167.659 578.382 169.381 578.043Z" fill="black" stroke="black"/>
<path d="M420.094 34.268C417.606 34.915 409.015 33.6948 406.924 32.5931C409.357 32.2024 417.878 33.3777 420.094 34.268Z" fill="black" stroke="black"/>
<path d="M506.469 601.209C505.58 601.274 505.507 601.336 504.64 601.048L504.791 600.715C506.615 600.012 509.369 599.483 511.347 599.041C512.357 598.951 512.304 598.944 513.285 599.189L513.162 599.568C511.043 600.381 508.705 600.764 506.469 601.209Z" fill="black" stroke="black"/>
<path d="M138.809 38.4209C138.454 38.2672 138.409 38.1807 138.098 37.9277C137.887 33.364 140.874 33.7996 144.637 33.4697L145.306 33.8156C144.538 34.4818 141.223 34.85 140.055 35.023C139.235 35.7243 139.203 37.0534 138.809 38.4209Z" fill="black" stroke="black"/>
<path d="M502.679 240C505.148 240.441 505.116 242.288 504.209 244.151C502.72 244.06 502.672 244.047 502 242.837C502.022 241.409 502.09 241.339 502.679 240Z" fill="black" stroke="black"/>
<path d="M263.528 384C263.312 383.845 263.015 383.519 262.815 383.318C262.552 380.873 262.633 377.813 262.966 375.382C263.381 375.705 263.376 375.826 263.682 376.302C263.938 378.482 264.047 381.89 263.528 384Z" fill="black" stroke="black"/>
<path d="M206.05 302.036C207.575 302.027 211.853 301.791 212.948 302.656L212.147 303.134C210.13 303.161 207.024 303.292 205.154 302.853L205 302.402L206.05 302.036Z" fill="black" stroke="black"/>
<path d="M353.585 46C356.052 46.278 355.581 48.6732 354.748 50.2793C353.468 49.9017 353.546 49.7851 353.019 48.8263C352.954 47.4229 353.037 47.3383 353.585 46Z" fill="black" stroke="black"/>
<path d="M528 509.246C529.956 509.074 533.133 508.846 535.051 509.146L535.17 509.63C533.511 510.118 529.278 510.584 528 509.246Z" fill="black" stroke="black"/>
<path d="M296.014 7.33715C294.151 7.53571 291.502 7.68302 289.673 7.33715L289.611 6.876C291.055 6.6294 295.113 6.04011 296.014 7.33715Z" fill="black" stroke="black"/>
<path d="M238.995 7.65863C238.117 7.65542 238.501 7.80272 237.784 7.36077C238.629 6.68503 239.417 6.64984 240.493 6.43527C241.428 6.67866 241.569 6.54094 242.101 7.13981C241.182 7.58817 240.042 7.57856 238.995 7.65863Z" fill="black" stroke="black"/>
<path d="M314.017 655.375H310.905C309.227 654.154 292.812 650.952 289.965 650.327L246.817 640.888L122.981 613.757L98.7574 608.475C96.1637 607.909 91.3893 607.174 89.1927 606.481L89.0582 606.16C92.3051 605.418 104.899 608.791 109.017 609.657L156.607 620.054L273.03 645.498C282.265 647.582 291.513 649.608 300.774 651.576C304.258 652.331 308.13 653.446 311.539 654.042C313.386 652.298 310.672 610.557 312.607 606.606C314.638 610.203 311.872 651.496 313.856 654.026C326.915 649.884 341.789 646.123 355.147 642.397L434.2 620.394L467.264 611.224C473.068 609.597 481.085 607.144 487.079 606.036C487.528 605.953 487.476 606.031 487.855 606.442C485.747 608.772 358.458 641.446 344.183 646.515C339.546 648.161 317.1 652.999 314.017 655.375Z" fill="black" stroke="black"/>
<path d="M1.86743 74.1967C1.42234 81.2135 2.31252 89.2007 1.49918 96.2175C1.44475 96.669 0.906798 97.316 0.625012 97.665V73.1046C23.2287 66.4145 47.3119 60.131 70.1365 53.8092L112.936 41.9694C115.158 41.3673 126.606 37.5466 128.191 38.4882C127.333 39.6219 122.318 40.3296 120.65 40.794L97.236 47.356L25.387 67.3848C23.6162 67.878 5.23607 72.8868 4.95748 73.1398C5.52106 73.7867 6.58733 74.0942 7.45191 74.2832C24.2918 77.9437 41.2183 81.854 58.0774 85.3832C74.9782 88.9252 92.0486 93.3576 109.013 96.1982L109.158 96.5185C108.123 97.207 105.568 96.8292 104.338 96.573C92.1927 94.0557 80.0887 91.3239 67.9719 88.669L1.86743 74.1967Z" fill="black" stroke="black"/>
<path d="M571.775 581.559C565.623 580.724 557.081 578.508 550.703 577.114L511.799 568.631L387.176 541.355C384.042 540.673 357.933 535.231 356.854 534.486C360.732 533.782 396.88 542.418 403.733 543.921L488.911 562.562C496.865 564.301 570.729 579.961 572.355 581.053L571.775 581.559Z" fill="black" stroke="black"/>
<path d="M4.12462 586.664L3.83322 586.218C2.92702 586.205 3.19918 586.377 2.60679 585.98C4.66254 584.749 16.2702 581.829 19.2866 580.997L51.4455 572.068L128.623 550.586C141.364 547.042 154.144 543.466 166.901 539.976C170.058 539.112 171.483 538.867 174.74 538.934C171.301 540.157 165.671 541.425 161.896 542.467L134.592 550.069L36.53 577.282C30.193 579.086 23.8464 580.851 17.487 582.575C14.714 583.33 6.26044 585.427 4.12462 586.664Z" fill="black" stroke="black"/>
<path d="M533.236 60.2217L458.998 43.9142C454.801 42.9983 431.841 38.6845 429.501 37.365C431.677 36.4523 438.834 38.6717 441.428 39.1809C453.057 41.5284 464.651 44.0456 476.206 46.7293L535.011 59.5524C534.289 59.9751 534.039 59.9847 533.236 60.2217Z" fill="black" stroke="black"/>
<path d="M573 69.5904C569.97 71.0379 564.109 72.399 560.66 73.315C555.202 74.7561 549.758 76.2485 544.328 77.7921L498.51 90.5671C495.374 91.4382 474.764 97.8209 472.946 96.6488C473.454 96.1332 489.216 92.0851 491.426 91.4702L542.136 77.3534C551.334 74.7849 562.257 71.3774 571.346 69.363C572.114 69.3854 572.245 69.4207 573 69.5904Z" fill="black" stroke="black"/>
<path d="M4.12474 586.664C5.60732 587.329 8.92148 587.539 10.2536 588.032C14.3235 589.537 38.8133 593.405 40.7441 594.901C36.8087 595.544 7.08028 588.204 0.624814 587.084V544.455C0.909803 544.722 1.5182 545.137 1.85762 545.385C2.26749 546.913 2.07216 551.943 2.04974 553.829L1.79359 574.82C1.75837 578.006 1.6559 581.556 1.83202 584.751C1.88005 585.61 2.05294 585.558 2.60691 585.98C3.1993 586.377 2.92714 586.205 3.83334 586.218L4.12474 586.664Z" fill="black" stroke="black"/>
<path d="M575.405 96.3623C572.151 93.2142 575.642 72.1382 573.79 69.7459L573 69.5889C572.245 69.4192 572.114 69.384 571.346 69.3616C569.342 67.6706 538.122 61.3007 533.236 60.2215C534.039 59.9845 534.289 59.9749 535.011 59.5521L575.405 68.42V96.3623Z" fill="black" stroke="black"/>
<path d="M575.405 582.305C573.522 582.6 570.589 583.638 568.641 584.218C568.042 583.861 567.897 583.827 567.397 583.369C568.825 582.965 570.948 582.621 571.775 581.559L572.356 581.053C573.493 581.079 573.385 581.263 574.134 580.741C574.548 579.002 574.315 573.257 574.285 571.191L574.176 550.356C574.168 547.193 573.528 539.221 575.405 537.057V582.305Z" fill="black" stroke="black"/>
<path d="M568.64 584.22C561.783 585.752 529.064 595.942 525.715 595.216L525.594 594.887C526.673 594.268 532.176 593.213 533.999 592.706L555.632 586.627C559.318 585.58 563.746 584.147 567.396 583.371C567.896 583.829 568.041 583.864 568.64 584.22Z" fill="black" stroke="black"/>
<path d="M377 604.675C383.67 602.679 385.319 605.719 391.169 605.99V607.193C387.327 607.207 380.964 605.551 377 604.675Z" fill="black" stroke="black"/>
<path d="M575.405 529.605V335.661M575.405 255.145V175.217" stroke="black" stroke-width="2" stroke-linecap="round"/>
<path d="M1.21289 467.309V355.644M1.21289 304.513V154.059" stroke="black" stroke-width="2" stroke-linecap="round"/>
</g>
<defs>
<clipPath id="clip0_1144_5665">
<rect width="577" height="673" fill="white"/>
</clipPath>
</defs>
</svg>
