<svg width="577" height="673" viewBox="0 0 577 673" fill="none" xmlns="http://www.w3.org/2000/svg">
<g clip-path="url(#clip0_1144_5716)">
<path d="M198.304 531.937L197.667 531.861L197.744 531.415C198.81 530.844 208.871 528.365 210.729 527.839C221.693 524.707 232.673 521.637 243.669 518.627C249.481 516.992 256.854 514.628 262.639 513.393C262.739 510.202 262.547 486.004 263.193 485.253C264.44 489.016 263.62 507.597 264.005 513.364C275.409 515.42 286.933 518.569 298.334 520.797C302.711 521.653 307.923 522.73 312.148 524.069C312.139 519.045 311.659 485.265 312.614 483.949C313.62 485.263 313.211 498.122 313.204 500.613C313.174 508.466 313.187 516.319 313.242 524.172C323.067 526.083 332.809 528.481 342.62 530.465C344.256 530.796 345.696 530.824 347.346 531.284L347.054 531.599C342.741 532.478 319.564 526.418 313.292 525.265C313.272 527.273 313.412 529.385 312.701 531.227L312.365 530.894C311.908 529.048 312.113 526.833 312.189 524.899C296.502 522.287 280.223 517.038 264.398 514.763C261.554 514.355 252.824 517.162 249.538 518.075L216.236 527.357C212.105 528.511 202.432 531.476 198.772 531.887L198.304 531.937Z" fill="black" stroke="black"/>
<path d="M312.822 354.418L312.457 354.147C311.751 353.006 312.074 322.528 312.073 319.202L312.065 194.65L312.043 162.634C312.041 159.435 311.846 149.517 312.315 147C313.745 149.132 313.14 179.019 313.137 183.736L313.134 308.572L313.165 339.582C313.167 342.477 313.346 352.139 312.822 354.418Z" fill="black" stroke="black"/>
<path d="M312.764 164.188C312.694 164.128 312.615 164.073 312.553 164.006C311.663 163.007 312.094 144.73 312.12 141.847C303.215 140.765 290.574 137.066 281.46 135.365C278.551 134.824 265.993 132.179 263.899 131.426C263.563 138.76 264.036 146.882 263.824 154.261C263.747 156.964 264.001 160.986 263.666 163.561L263.214 163.846L262.863 163.458C262.673 159.984 262.407 133.194 263.05 131.388C265.016 130.382 276.397 133.159 279.291 133.78C285.5 135.34 291.903 136.64 298.169 137.995C306.085 139.708 311.183 141.87 319.214 139.324C328.939 136.24 339.165 134.001 348.944 131.183C349.915 130.337 349.989 129.149 350.453 127.782L351.052 127.561C351.54 127.811 351.593 127.727 351.814 128.281C352.11 129.028 352.124 130.1 351.714 130.802C350.931 132.144 316.923 141.076 313.218 141.969C313.062 145.755 313.725 161.716 312.764 164.188Z" fill="black" stroke="black"/>
<path d="M239.148 133.838C235.808 133.562 229.913 132.137 226.496 131.375L206.576 126.952L141.784 112.781C139.54 112.291 117.314 107.561 117 107.346C118.127 107.049 118.214 107.052 119.389 107C129.36 108.522 144.192 112.253 154.458 114.507L205.43 125.636C217.383 128.256 229.618 131.093 241.623 133.329L241.636 133.466C241.63 133.466 240.048 133.809 239.148 133.838Z" fill="black" stroke="black"/>
<path d="M413.023 113.256C412.654 113.256 412.373 113.157 412 113.067L412.131 112.679C414.193 111.895 418.432 111.104 420.961 110.406L443.661 104.058C466.35 97.7203 489.886 90.8636 512.642 84.9997C513.618 85.2527 513.269 84.9741 513.859 85.6402C513.107 86.127 416.99 112.849 413.023 113.256Z" fill="black" stroke="black"/>
<path d="M404.466 31.1545C399.306 31.3947 379.129 26.5172 372.977 25.1657L318.301 13.1978C314.167 12.2819 310.027 11.3947 305.881 10.5397C304.11 10.1746 301.085 9.75821 299.571 9.15934C302.783 8.15053 322.721 13.0921 327.543 14.1393L373.385 24.1793L393.506 28.5925C396.194 29.1689 402.392 30.197 404.466 31.1545Z" fill="black" stroke="black"/>
<path d="M148.972 30.5248C148.009 30.6049 147.954 30.6049 147 30.4672V30.1533C148.796 29.1189 163.161 25.5833 166.389 24.6865L229.227 7.17815C230.229 7.01802 231.017 6.79385 231.818 7.38633C230.982 8.17416 156.571 28.7826 148.972 30.5248Z" fill="black" stroke="black"/>
<path d="M312.729 595.567C312.706 595.548 312.679 595.534 312.661 595.51C312.657 595.505 312.234 594.859 312.229 594.846C311.974 594.03 311.714 542.606 312.338 538.771C314.193 540.357 312.754 585.201 313.193 591.06C313.273 592.131 313.149 594.495 312.729 595.567Z" fill="black" stroke="black"/>
<path d="M264.94 341.196L264.258 340.586C263.954 338.695 264.058 334.498 264.056 332.337L264.042 317.767L264.034 298.224C264.034 294.962 263.875 290.023 264.242 287L264.784 287.375C265.33 288.568 265.302 337.661 264.94 341.196Z" fill="black" stroke="black"/>
<path d="M312.853 437.549L312.344 437.123C311.779 434.968 311.907 399.693 312.332 397C312.511 397.167 312.59 397.225 312.736 397.448C313.521 398.64 313.652 434.563 312.853 437.549Z" fill="black" stroke="black"/>
<path d="M263.616 481.404L262.929 480.781C262.576 478.225 262.682 469.2 262.732 466.052C262.85 458.55 262.443 449.895 262.838 442.503L263.402 442.888C264.124 444.251 263.961 478.102 263.616 481.404Z" fill="black" stroke="black"/>
<path d="M263.288 4.46484C262.419 3.48806 262.936 3.78267 262.591 2.35433C262.606 2.41518 262.368 1.67222 262.301 1.66902C259.836 1.57294 252.347 5.12134 250.304 4.08051L250.4 3.63535C254.62 2.02126 261.691 -0.223701 266.092 0.621775C268.074 1.16621 279.129 3.28629 279.856 3.81151C277.162 5.39357 265.699 0.554515 264.125 1.97645C263.947 2.76108 263.851 3.23185 263.514 3.97805L263.288 4.46484Z" fill="black" stroke="black"/>
<path d="M263.476 127.775C263.287 127.631 263.042 127.301 262.876 127.103C262.611 124.227 262.627 102.264 263.005 100.16C263.061 100.246 263.121 100.329 263.173 100.419C264.418 102.568 264.183 124.55 263.476 127.775Z" fill="black" stroke="black"/>
<path d="M263.491 32.2949C262.258 31.3502 262.587 11.411 262.937 8.90343C263.583 9.19807 263.305 8.99951 263.705 9.58879C263.896 12.644 264.057 30.1236 263.491 32.2949Z" fill="black" stroke="black"/>
<path d="M519.139 333.381C518.768 333.405 518.397 333.424 518.026 333.437C515.676 333.522 500.125 331.137 499 330.09C502.226 329.507 515.317 331.89 518.932 332.792L519.139 333.381Z" fill="black" stroke="black"/>
<path d="M472.951 585.702C470.54 585.717 467.446 585.188 465 584.848C466.611 584.634 468.542 584.459 470.127 584.208C472.327 583.858 481.369 581.098 483.259 582.303C481.978 583.114 480.066 583.467 478.548 583.859C476.678 584.216 474.177 584.404 472.951 585.702Z" fill="black" stroke="black"/>
<path d="M78.7798 185.467C77.1563 185.386 74.6811 185.001 73 184.791C74.4025 184.525 76.3718 184.348 77.4894 184.1C80.5378 183.422 83.0258 182.579 86.1895 182.152C87.8322 181.956 88.1108 181.917 89.7214 182.229L89.7022 182.53C87.1213 183.635 81.6649 184.815 78.7798 185.467Z" fill="black" stroke="black"/>
<path d="M42.7291 440.703C42.1143 440.574 42.0406 440.512 41.4514 440.271C40.8879 439.262 41.0128 439.783 41.0096 438.663C42.7419 437.075 49.9435 438.777 52.2042 439.239C53.232 439.296 54.3624 439.245 55.0444 440.089C51.9032 440.981 49.3671 439.889 46.1745 439.642C43.885 439.466 44.5575 439.263 42.7291 440.703Z" fill="black" stroke="black"/>
<path d="M107.256 352.008C109.357 351.89 119.2 353.04 120.695 353.975L120.436 354.42C118.259 354.462 108.451 353.539 107 352.473L107.256 352.008Z" fill="black" stroke="black"/>
<path d="M221.639 328.106C222.844 327.984 224.545 327.888 225.688 328.288C224.874 329.384 221.297 329.682 219.787 329.912C217.2 330.434 215.599 330.296 213 330.117C215.871 329.409 218.75 328.737 221.639 328.106Z" fill="black" stroke="black"/>
<path d="M177.754 537.733C177.299 537.739 177.094 537.714 176.659 537.836L176.479 537.478C177.888 536.611 185.391 534.859 187.434 534.36C188.401 534.345 188.122 534.165 188.721 534.579L188.439 535.024C185.9 536.022 180.447 537.262 177.754 537.733Z" fill="black" stroke="black"/>
<path d="M80.8027 510.143C82.6503 509.967 83.8446 509.828 85.577 510.528C82.7303 511.618 79.7139 510.379 77.1875 511.831C75.2502 512.155 73.9981 512.478 72.1057 511.968L72 511.696C74.9556 510.669 77.6998 511.26 80.8027 510.143Z" fill="black" stroke="black"/>
<path d="M244.597 576C245.075 576.183 245.555 576.363 246.035 576.539C245.187 576.711 244.335 576.867 243.483 577.007C243.919 577.284 244.514 577.389 245.043 577.533L245.283 577.998C243.938 579.393 240.358 578.984 239 577.842C240.227 576.545 242.727 576.356 244.597 576Z" fill="black" stroke="black"/>
<path d="M169.381 578.043C170.458 577.985 171.893 577.902 172.833 578.43C171.887 579.16 168.293 579.708 166.936 579.967C165.96 580.153 163.892 580.445 163 580.073C164.173 578.866 167.659 578.382 169.381 578.043Z" fill="black" stroke="black"/>
<path d="M456.169 84.7524C453.682 85.3993 445.091 84.1792 443 83.0775C445.433 82.6868 453.954 83.8621 456.169 84.7524Z" fill="black" stroke="black"/>
<path d="M362.829 563.225C361.94 563.291 361.867 563.353 361 563.064L361.151 562.731C362.974 562.028 365.729 561.5 367.707 561.057C368.716 560.968 368.664 560.961 369.645 561.206L369.521 561.585C367.403 562.398 365.064 562.781 362.829 563.225Z" fill="black" stroke="black"/>
<path d="M117.721 30.9512C117.366 30.7974 117.321 30.711 117.011 30.458C116.799 25.8943 119.787 26.3299 123.549 26L124.219 26.3459C123.45 27.012 120.136 27.3803 118.967 27.5532C118.147 28.2546 118.115 29.5837 117.721 30.9512Z" fill="black" stroke="black"/>
<path d="M525.679 128C528.148 128.441 528.116 130.288 527.209 132.151C525.72 132.06 525.672 132.047 525 130.837C525.022 129.409 525.09 129.339 525.679 128Z" fill="black" stroke="black"/>
<path d="M406.869 264.618C406.653 264.463 406.356 264.137 406.156 263.936C405.893 261.491 405.974 258.431 406.307 256C406.723 256.323 406.718 256.444 407.023 256.92C407.28 259.1 407.389 262.508 406.869 264.618Z" fill="black" stroke="black"/>
<path d="M447.05 534.036C448.575 534.027 452.853 533.791 453.948 534.656L453.147 535.134C451.13 535.161 448.024 535.292 446.154 534.853L446 534.402L447.05 534.036Z" fill="black" stroke="black"/>
<path d="M330.585 49C333.052 49.278 332.581 51.6732 331.748 53.2793C330.468 52.9017 330.546 52.7851 330.019 51.8263C329.954 50.4229 330.037 50.3383 330.585 49Z" fill="black" stroke="black"/>
<path d="M528 509.246C529.956 509.074 533.133 508.846 535.051 509.146L535.17 509.63C533.511 510.118 529.278 510.584 528 509.246Z" fill="black" stroke="black"/>
<path d="M229.403 82.8108C227.54 83.0093 224.891 83.1567 223.062 82.8108L223 82.3496C224.444 82.103 228.503 81.5137 229.403 82.8108Z" fill="black" stroke="black"/>
<path d="M304.21 127.223C303.333 127.22 303.717 127.367 303 126.925C303.845 126.249 304.633 126.214 305.709 126C306.644 126.243 306.785 126.105 307.316 126.704C306.397 127.153 305.257 127.143 304.21 127.223Z" fill="black" stroke="black"/>
<path d="M314.018 655.375H310.905C309.227 654.154 292.812 650.952 289.966 650.327L246.817 640.888L122.982 613.757L98.7576 608.475C96.1639 607.909 91.3896 607.174 89.1929 606.481L89.0584 606.16C92.3054 605.418 104.899 608.791 109.017 609.657L156.607 620.054L273.03 645.498C282.265 647.582 291.513 649.608 300.774 651.576C304.259 652.331 308.13 653.446 311.539 654.042C313.386 652.298 310.672 610.557 312.607 606.606C314.638 610.203 311.872 651.496 313.857 654.026C326.915 649.884 341.789 646.123 355.148 642.397L434.2 620.394L467.264 611.224C473.068 609.597 481.085 607.144 487.08 606.036C487.528 605.953 487.477 606.031 487.856 606.442C485.747 608.772 358.458 641.446 344.183 646.515C339.546 648.161 317.101 652.999 314.018 655.375Z" fill="black" stroke="black"/>
<path d="M1.86743 74.1967C1.42234 81.2135 2.31252 89.2007 1.49918 96.2175C1.44475 96.669 0.906798 97.316 0.625012 97.665V73.1046C23.2287 66.4145 47.3119 60.131 70.1365 53.8092L112.936 41.9694C115.158 41.3673 126.606 37.5466 128.191 38.4882C127.333 39.6219 122.318 40.3296 120.65 40.794L97.236 47.356L25.387 67.3848C23.6162 67.878 5.23607 72.8868 4.95748 73.1398C5.52106 73.7867 6.58733 74.0942 7.45191 74.2832C24.2918 77.9437 41.2183 81.854 58.0774 85.3832C74.9782 88.9252 92.0486 93.3576 109.013 96.1982L109.158 96.5185C108.123 97.207 105.568 96.8292 104.338 96.573C92.1927 94.0557 80.0887 91.3239 67.9719 88.669L1.86743 74.1967Z" fill="black" stroke="black"/>
<path d="M571.775 581.559C565.623 580.724 557.081 578.508 550.703 577.114L511.799 568.631L387.176 541.355C384.042 540.673 357.933 535.231 356.854 534.486C360.732 533.782 396.88 542.418 403.733 543.921L488.911 562.562C496.865 564.301 570.729 579.961 572.355 581.053L571.775 581.559Z" fill="black" stroke="black"/>
<path d="M4.12462 586.664L3.83322 586.218C2.92702 586.205 3.19918 586.377 2.60679 585.98C4.66254 584.749 16.2702 581.829 19.2866 580.997L51.4455 572.068L128.623 550.586C141.364 547.042 154.144 543.466 166.901 539.976C170.058 539.112 171.483 538.867 174.74 538.934C171.301 540.157 165.671 541.425 161.896 542.467L134.592 550.069L36.53 577.282C30.193 579.086 23.8464 580.851 17.487 582.575C14.714 583.33 6.26044 585.427 4.12462 586.664Z" fill="black" stroke="black"/>
<path d="M533.236 60.2217L458.998 43.9142C454.801 42.9983 431.841 38.6845 429.501 37.365C431.677 36.4523 438.834 38.6717 441.428 39.1809C453.057 41.5284 464.651 44.0456 476.206 46.7293L535.011 59.5524C534.289 59.9751 534.039 59.9847 533.236 60.2217Z" fill="black" stroke="black"/>
<path d="M573 69.5904C569.97 71.0379 564.109 72.399 560.66 73.315C555.202 74.7561 549.758 76.2485 544.329 77.7921L498.51 90.5671C495.374 91.4382 474.764 97.8209 472.946 96.6488C473.455 96.1332 489.216 92.0851 491.426 91.4702L542.136 77.3534C551.334 74.7849 562.258 71.3774 571.346 69.363C572.115 69.3854 572.245 69.4207 573 69.5904Z" fill="black" stroke="black"/>
<path d="M4.12499 586.664C5.60757 587.329 8.92172 587.539 10.2538 588.032C14.3237 589.537 38.8135 593.405 40.7444 594.901C36.809 595.544 7.08052 588.204 0.625058 587.084V544.455C0.910047 544.722 1.51844 545.137 1.85787 545.385C2.26774 546.913 2.0724 551.943 2.04998 553.829L1.79384 574.82C1.75862 578.006 1.65615 581.556 1.83226 584.751C1.88029 585.61 2.05318 585.558 2.60715 585.98C3.19954 586.377 2.92739 586.205 3.83359 586.218L4.12499 586.664Z" fill="black" stroke="black"/>
<path d="M575.405 96.3623C572.151 93.2142 575.642 72.1382 573.79 69.7459L573 69.5889C572.245 69.4192 572.114 69.384 571.346 69.3616C569.342 67.6706 538.122 61.3007 533.236 60.2215C534.039 59.9845 534.289 59.9749 535.011 59.5521L575.405 68.42V96.3623Z" fill="black" stroke="black"/>
<path d="M575.405 582.305C573.522 582.6 570.589 583.638 568.641 584.218C568.042 583.861 567.897 583.827 567.397 583.369C568.825 582.965 570.948 582.621 571.775 581.559L572.356 581.053C573.493 581.079 573.385 581.263 574.134 580.741C574.548 579.002 574.315 573.257 574.285 571.191L574.176 550.356C574.168 547.193 573.528 539.221 575.405 537.057V582.305Z" fill="black" stroke="black"/>
<path d="M568.64 584.22C561.783 585.752 529.064 595.942 525.715 595.216L525.594 594.887C526.673 594.268 532.176 593.213 533.999 592.706L555.632 586.627C559.318 585.58 563.746 584.147 567.396 583.371C567.896 583.829 568.041 583.864 568.64 584.22Z" fill="black" stroke="black"/>
<path d="M384 491.675C390.67 489.679 392.319 492.719 398.169 492.99V494.193C394.327 494.207 387.964 492.551 384 491.675Z" fill="black" stroke="black"/>
<path d="M575.405 529.605V335.661M575.405 255.145V175.217" stroke="black" stroke-width="2" stroke-linecap="round"/>
<path d="M1.21289 526.665V415M1.21289 378.454V228" stroke="black" stroke-width="2" stroke-linecap="round"/>
</g>
<defs>
<clipPath id="clip0_1144_5716">
<rect width="577" height="673" fill="white"/>
</clipPath>
</defs>
</svg>
